G04 #@! TF.GenerationSoftware,KiCad,Pcbnew,(5.1.5)-3*
G04 #@! TF.CreationDate,2020-04-24T20:35:25-04:00*
G04 #@! TF.ProjectId,plate,706c6174-652e-46b6-9963-61645f706362,rev?*
G04 #@! TF.SameCoordinates,Original*
G04 #@! TF.FileFunction,Profile,NP*
%FSLAX46Y46*%
G04 Gerber Fmt 4.6, Leading zero omitted, Abs format (unit mm)*
G04 Created by KiCad (PCBNEW (5.1.5)-3) date 2020-04-24 20:35:25*
%MOMM*%
%LPD*%
G04 APERTURE LIST*
%ADD10C,0.200000*%
G04 APERTURE END LIST*
D10*
X291062500Y-87422000D02*
X291062500Y-36422001D01*
X6562501Y-88022000D02*
G75*
G02X6062501Y-87522000I0J500000D01*
G01*
X6062501Y-36422001D02*
G75*
G02X8562501Y-33922001I2500000J0D01*
G01*
X264577494Y-74505011D02*
G75*
G02X264327500Y-74072001I250006J433010D01*
G01*
X264327500Y-74072001D02*
X264327500Y-69572001D01*
X289262500Y-87922000D02*
X290562500Y-87922000D01*
X264827500Y-68706001D02*
X264827500Y-65634879D01*
X232655570Y-111872430D02*
X236849570Y-111872430D01*
X221729570Y-112372430D02*
G75*
G02X222229570Y-111872430I500000J0D01*
G01*
X202665000Y-107957000D02*
X202665000Y-93337000D01*
X227289570Y-111372430D02*
X231789570Y-111372430D01*
X260647500Y-127507000D02*
X246027500Y-127507000D01*
X236849570Y-111872430D02*
G75*
G02X237349570Y-112372430I0J-500000D01*
G01*
X156372500Y-127007000D02*
G75*
G02X155872500Y-127507000I-500000J0D01*
G01*
X141252500Y-127507000D02*
G75*
G02X140752500Y-127007000I0J500000D01*
G01*
X226856560Y-111622424D02*
G75*
G02X227289570Y-111372430I433010J-250006D01*
G01*
X260647500Y-111887000D02*
G75*
G02X261147500Y-112387000I0J-500000D01*
G01*
X256453500Y-111887000D02*
G75*
G02X256020503Y-111636983I-22J499918D01*
G01*
X108816000Y-73787001D02*
G75*
G02X108383003Y-73536984I-22J499918D01*
G01*
X103450000Y-73287001D02*
X107950000Y-73287001D01*
X93960000Y-73787001D02*
G75*
G02X94460000Y-74287001I0J-500000D01*
G01*
X60290000Y-73787001D02*
X64484000Y-73787001D01*
X51666001Y-73787001D02*
G75*
G02X51233004Y-73536984I-22J499918D01*
G01*
X75410000Y-74287001D02*
X75410000Y-88907000D01*
X64916991Y-73536995D02*
G75*
G02X64484000Y-73787001I-432969J249912D01*
G01*
X70716000Y-73787001D02*
G75*
G02X70283003Y-73536984I-22J499918D01*
G01*
X50800000Y-73287001D02*
G75*
G02X51233004Y-73536984I1J-500000D01*
G01*
X45866991Y-73536995D02*
G75*
G02X46300001Y-73287001I433010J-250006D01*
G01*
X25472251Y-73787001D02*
X29666251Y-73787001D01*
X113010000Y-89407000D02*
X98390000Y-89407000D01*
X20106251Y-73287001D02*
X24606251Y-73287001D01*
X84400000Y-73287001D02*
X88900000Y-73287001D01*
X113010000Y-73787001D02*
G75*
G02X113510000Y-74287001I0J-500000D01*
G01*
X40740001Y-74287001D02*
G75*
G02X41240001Y-73787001I500000J0D01*
G01*
X79340000Y-73787001D02*
X83534000Y-73787001D01*
X59790000Y-74287001D02*
G75*
G02X60290000Y-73787001I500000J0D01*
G01*
X78840000Y-88907000D02*
X78840000Y-74287001D01*
X69849999Y-73287001D02*
G75*
G02X70283003Y-73536984I1J-500000D01*
G01*
X89766000Y-73787001D02*
G75*
G02X89333003Y-73536984I-22J499918D01*
G01*
X107949999Y-73287001D02*
G75*
G02X108383003Y-73536984I1J-500000D01*
G01*
X55860000Y-89407000D02*
X41240001Y-89407000D01*
X103016990Y-73536995D02*
G75*
G02X103450000Y-73287001I433010J-250006D01*
G01*
X29666251Y-73787001D02*
G75*
G02X30166251Y-74287001I0J-500000D01*
G01*
X83966991Y-73536995D02*
G75*
G02X83534000Y-73787001I-432969J249912D01*
G01*
X56360000Y-74287001D02*
X56360000Y-88907000D01*
X97890000Y-88907000D02*
X97890000Y-74287001D01*
X75410000Y-88907000D02*
G75*
G02X74910000Y-89407000I-500000J0D01*
G01*
X117440000Y-73787001D02*
X121634000Y-73787001D01*
X74910000Y-89407000D02*
X60290000Y-89407000D01*
X70716000Y-73787001D02*
X74910000Y-73787001D01*
X78840000Y-74287001D02*
G75*
G02X79340000Y-73787001I500000J0D01*
G01*
X51666001Y-73787001D02*
X55860000Y-73787001D01*
X93960000Y-89407000D02*
X79340000Y-89407000D01*
X89766000Y-73787001D02*
X93960000Y-73787001D01*
X45866992Y-73536995D02*
G75*
G02X45434001Y-73787001I-432969J249912D01*
G01*
X60290000Y-89407000D02*
G75*
G02X59790000Y-88907000I0J500000D01*
G01*
X79340000Y-89407000D02*
G75*
G02X78840000Y-88907000I0J500000D01*
G01*
X98390000Y-89407000D02*
G75*
G02X97890000Y-88907000I0J500000D01*
G01*
X19673241Y-73536995D02*
G75*
G02X20106251Y-73287001I433010J-250006D01*
G01*
X56360000Y-88907000D02*
G75*
G02X55860000Y-89407000I-500000J0D01*
G01*
X25472251Y-73787001D02*
G75*
G02X25039254Y-73536984I-22J499918D01*
G01*
X94460000Y-74287001D02*
X94460000Y-88907000D01*
X41240001Y-73787001D02*
X45434001Y-73787001D01*
X59790000Y-88907000D02*
X59790000Y-74287001D01*
X65385000Y-108457000D02*
X50765001Y-108457000D01*
X97890000Y-74287001D02*
G75*
G02X98390000Y-73787001I500000J0D01*
G01*
X113510000Y-74287001D02*
X113510000Y-88907000D01*
X94460000Y-88907000D02*
G75*
G02X93960000Y-89407000I-500000J0D01*
G01*
X98390000Y-73787001D02*
X102584000Y-73787001D01*
X41240001Y-89407000D02*
G75*
G02X40740001Y-88907000I0J500000D01*
G01*
X122066991Y-73536995D02*
G75*
G02X121634000Y-73787001I-432969J249912D01*
G01*
X108816000Y-73787001D02*
X113010000Y-73787001D01*
X40740001Y-88907000D02*
X40740001Y-74287001D01*
X88899999Y-73287001D02*
G75*
G02X89333003Y-73536984I1J-500000D01*
G01*
X24606250Y-73287001D02*
G75*
G02X25039254Y-73536984I1J-500000D01*
G01*
X83966990Y-73536995D02*
G75*
G02X84400000Y-73287001I433010J-250006D01*
G01*
X113510000Y-88907000D02*
G75*
G02X113010000Y-89407000I-500000J0D01*
G01*
X64916990Y-73536995D02*
G75*
G02X65350000Y-73287001I433010J-250006D01*
G01*
X46300001Y-73287001D02*
X50800001Y-73287001D01*
X74910000Y-73787001D02*
G75*
G02X75410000Y-74287001I0J-500000D01*
G01*
X55860000Y-73787001D02*
G75*
G02X56360000Y-74287001I0J-500000D01*
G01*
X103016991Y-73536995D02*
G75*
G02X102584000Y-73787001I-432969J249912D01*
G01*
X46903501Y-54737001D02*
G75*
G02X46470504Y-54486984I-22J499918D01*
G01*
X46037500Y-54237001D02*
G75*
G02X46470504Y-54486984I1J-500000D01*
G01*
X41537501Y-54237001D02*
X46037501Y-54237001D01*
X27285001Y-54737001D02*
G75*
G02X27785001Y-55237001I0J-500000D01*
G01*
X15046251Y-73787001D02*
X19240251Y-73787001D01*
X12665001Y-54737001D02*
X16859001Y-54737001D01*
X27285001Y-70357001D02*
X12665001Y-70357001D01*
X17725001Y-54237001D02*
X22225001Y-54237001D01*
X17291991Y-54486995D02*
G75*
G02X17725001Y-54237001I433010J-250006D01*
G01*
X23091001Y-54737001D02*
X27285001Y-54737001D01*
X15046251Y-89407000D02*
G75*
G02X14546251Y-88907000I0J500000D01*
G01*
X12665001Y-70357001D02*
G75*
G02X12165001Y-69857001I0J500000D01*
G01*
X23091001Y-54737001D02*
G75*
G02X22658004Y-54486984I-22J499918D01*
G01*
X29666251Y-89407000D02*
X15046251Y-89407000D01*
X30166251Y-88907000D02*
G75*
G02X29666251Y-89407000I-500000J0D01*
G01*
X12165001Y-69857001D02*
X12165001Y-55237001D01*
X65350000Y-73287001D02*
X69850000Y-73287001D01*
X41104491Y-54486995D02*
G75*
G02X41537501Y-54237001I433010J-250006D01*
G01*
X30166251Y-74287001D02*
X30166251Y-88907000D01*
X17291992Y-54486995D02*
G75*
G02X16859001Y-54737001I-432969J249912D01*
G01*
X27785001Y-55237001D02*
X27785001Y-69857001D01*
X19673242Y-73536995D02*
G75*
G02X19240251Y-73787001I-432969J249912D01*
G01*
X12165001Y-55237001D02*
G75*
G02X12665001Y-54737001I500000J0D01*
G01*
X27785001Y-69857001D02*
G75*
G02X27285001Y-70357001I-500000J0D01*
G01*
X14546251Y-88907000D02*
X14546251Y-74287001D01*
X51097501Y-54737001D02*
G75*
G02X51597501Y-55237001I0J-500000D01*
G01*
X46903501Y-54737001D02*
X51097501Y-54737001D01*
X14546251Y-74287001D02*
G75*
G02X15046251Y-73787001I500000J0D01*
G01*
X122500000Y-73287001D02*
X127000000Y-73287001D01*
X136490000Y-73787001D02*
X140684000Y-73787001D01*
X122066990Y-73536995D02*
G75*
G02X122500000Y-73287001I433010J-250006D01*
G01*
X127866000Y-73787001D02*
X132060000Y-73787001D01*
X30234751Y-92837000D02*
G75*
G02X29801754Y-92586983I-22J499918D01*
G01*
X136490000Y-89407000D02*
G75*
G02X135990000Y-88907000I0J500000D01*
G01*
X84435000Y-108457000D02*
X69815000Y-108457000D01*
X69815000Y-108457000D02*
G75*
G02X69315000Y-107957000I0J500000D01*
G01*
X79374999Y-92337000D02*
G75*
G02X79808003Y-92586983I1J-500000D01*
G01*
X88729491Y-111636994D02*
G75*
G02X88296500Y-111887000I-432969J249912D01*
G01*
X160166991Y-73536995D02*
G75*
G02X159734000Y-73787001I-432969J249912D01*
G01*
X146916000Y-73787001D02*
G75*
G02X146483003Y-73536984I-22J499918D01*
G01*
X84935000Y-107957000D02*
G75*
G02X84435000Y-108457000I-500000J0D01*
G01*
X55391990Y-92586994D02*
G75*
G02X55825000Y-92337000I433010J-250006D01*
G01*
X50765001Y-108457000D02*
G75*
G02X50265001Y-107957000I0J500000D01*
G01*
X34428751Y-92837000D02*
G75*
G02X34928751Y-93337000I0J-500000D01*
G01*
X146916000Y-73787001D02*
X151110000Y-73787001D01*
X24435741Y-92586994D02*
G75*
G02X24868751Y-92337000I433010J-250006D01*
G01*
X151610000Y-74287001D02*
X151610000Y-88907000D01*
X65885000Y-107957000D02*
G75*
G02X65385000Y-108457000I-500000J0D01*
G01*
X80241000Y-92837000D02*
X84435000Y-92837000D01*
X55825000Y-92337000D02*
X60325000Y-92337000D01*
X55391992Y-92586994D02*
G75*
G02X54959001Y-92837000I-432969J249912D01*
G01*
X34428751Y-108457000D02*
X19808751Y-108457000D01*
X24868751Y-92337000D02*
X29368751Y-92337000D01*
X19808751Y-108457000D02*
G75*
G02X19308751Y-107957000I0J500000D01*
G01*
X69815000Y-92837000D02*
X74009000Y-92837000D01*
X69315000Y-93337000D02*
G75*
G02X69815000Y-92837000I500000J0D01*
G01*
X19808751Y-92837000D02*
X24002751Y-92837000D01*
X84935000Y-93337000D02*
X84935000Y-107957000D01*
X93925000Y-92337000D02*
X98425000Y-92337000D01*
X50265001Y-107957000D02*
X50265001Y-93337000D01*
X61191000Y-92837000D02*
X65385000Y-92837000D01*
X69315000Y-107957000D02*
X69315000Y-93337000D01*
X60324999Y-92337000D02*
G75*
G02X60758003Y-92586983I1J-500000D01*
G01*
X74441990Y-92586994D02*
G75*
G02X74875000Y-92337000I433010J-250006D01*
G01*
X74441991Y-92586994D02*
G75*
G02X74009000Y-92837000I-432969J249912D01*
G01*
X84102500Y-111887000D02*
X88296500Y-111887000D01*
X24435742Y-92586994D02*
G75*
G02X24002751Y-92837000I-432969J249912D01*
G01*
X135990000Y-74287001D02*
G75*
G02X136490000Y-73787001I500000J0D01*
G01*
X50265001Y-93337000D02*
G75*
G02X50765001Y-92837000I500000J0D01*
G01*
X74875000Y-92337000D02*
X79375000Y-92337000D01*
X50765001Y-92837000D02*
X54959001Y-92837000D01*
X30234751Y-92837000D02*
X34428751Y-92837000D01*
X84435000Y-92837000D02*
G75*
G02X84935000Y-93337000I0J-500000D01*
G01*
X65385000Y-92837000D02*
G75*
G02X65885000Y-93337000I0J-500000D01*
G01*
X93491990Y-92586994D02*
G75*
G02X93925000Y-92337000I433010J-250006D01*
G01*
X29368750Y-92337000D02*
G75*
G02X29801754Y-92586983I1J-500000D01*
G01*
X61191000Y-92837000D02*
G75*
G02X60758003Y-92586983I-22J499918D01*
G01*
X155540000Y-73787001D02*
X159734000Y-73787001D01*
X34928751Y-107957000D02*
G75*
G02X34428751Y-108457000I-500000J0D01*
G01*
X141550000Y-73287001D02*
X146050000Y-73287001D01*
X132060000Y-73787001D02*
G75*
G02X132560000Y-74287001I0J-500000D01*
G01*
X19308751Y-107957000D02*
X19308751Y-93337000D01*
X132560000Y-88907000D02*
G75*
G02X132060000Y-89407000I-500000J0D01*
G01*
X34928751Y-93337000D02*
X34928751Y-107957000D01*
X80241000Y-92837000D02*
G75*
G02X79808003Y-92586983I-22J499918D01*
G01*
X65885000Y-93337000D02*
X65885000Y-107957000D01*
X132560000Y-74287001D02*
X132560000Y-88907000D01*
X141116991Y-73536995D02*
G75*
G02X140684000Y-73787001I-432969J249912D01*
G01*
X127866000Y-73787001D02*
G75*
G02X127433003Y-73536984I-22J499918D01*
G01*
X151110000Y-73787001D02*
G75*
G02X151610000Y-74287001I0J-500000D01*
G01*
X126999999Y-73287001D02*
G75*
G02X127433003Y-73536984I1J-500000D01*
G01*
X19308751Y-93337000D02*
G75*
G02X19808751Y-92837000I500000J0D01*
G01*
X117440000Y-89407000D02*
G75*
G02X116940000Y-88907000I0J500000D01*
G01*
X170660000Y-74287001D02*
X170660000Y-88907000D01*
X116940000Y-74287001D02*
G75*
G02X117440000Y-73787001I500000J0D01*
G01*
X160166990Y-73536995D02*
G75*
G02X160600000Y-73287001I433010J-250006D01*
G01*
X151110000Y-89407000D02*
X136490000Y-89407000D01*
X193140000Y-74287001D02*
G75*
G02X193640000Y-73787001I500000J0D01*
G01*
X193140000Y-88907000D02*
X193140000Y-74287001D01*
X179216991Y-73536995D02*
G75*
G02X178784000Y-73787001I-432969J249912D01*
G01*
X189210000Y-89407000D02*
X174590000Y-89407000D01*
X198700000Y-73287001D02*
X203200000Y-73287001D01*
X227810000Y-88907000D02*
G75*
G02X227310000Y-89407000I-500000J0D01*
G01*
X231740000Y-89407000D02*
G75*
G02X231240000Y-88907000I0J500000D01*
G01*
X174090000Y-88907000D02*
X174090000Y-74287001D01*
X212690000Y-73787001D02*
X216884000Y-73787001D01*
X236366991Y-73536995D02*
G75*
G02X235934000Y-73787001I-432969J249912D01*
G01*
X204066000Y-73787001D02*
G75*
G02X203633003Y-73536984I-22J499918D01*
G01*
X155040000Y-88907000D02*
X155040000Y-74287001D01*
X198266991Y-73536995D02*
G75*
G02X197834000Y-73787001I-432969J249912D01*
G01*
X212690000Y-89407000D02*
G75*
G02X212190000Y-88907000I0J500000D01*
G01*
X174590000Y-73787001D02*
X178784000Y-73787001D01*
X155540000Y-89407000D02*
G75*
G02X155040000Y-88907000I0J500000D01*
G01*
X170160000Y-89407000D02*
X155540000Y-89407000D01*
X227810000Y-74287001D02*
X227810000Y-88907000D01*
X116940000Y-88907000D02*
X116940000Y-74287001D01*
X185016000Y-73787001D02*
G75*
G02X184583003Y-73536984I-22J499918D01*
G01*
X151610000Y-88907000D02*
G75*
G02X151110000Y-89407000I-500000J0D01*
G01*
X231740000Y-73787001D02*
X235934000Y-73787001D01*
X184149999Y-73287001D02*
G75*
G02X184583003Y-73536984I1J-500000D01*
G01*
X165966000Y-73787001D02*
X170160000Y-73787001D01*
X217316990Y-73536995D02*
G75*
G02X217750000Y-73287001I433010J-250006D01*
G01*
X146049999Y-73287001D02*
G75*
G02X146483003Y-73536984I1J-500000D01*
G01*
X212190000Y-88907000D02*
X212190000Y-74287001D01*
X141116990Y-73536995D02*
G75*
G02X141550000Y-73287001I433010J-250006D01*
G01*
X208260000Y-89407000D02*
X193640000Y-89407000D01*
X208760000Y-74287001D02*
X208760000Y-88907000D01*
X217316991Y-73536995D02*
G75*
G02X216884000Y-73787001I-432969J249912D01*
G01*
X203199999Y-73287001D02*
G75*
G02X203633003Y-73536984I1J-500000D01*
G01*
X132060000Y-89407000D02*
X117440000Y-89407000D01*
X185016000Y-73787001D02*
X189210000Y-73787001D01*
X246860000Y-88907000D02*
G75*
G02X246360000Y-89407000I-500000J0D01*
G01*
X189210000Y-73787001D02*
G75*
G02X189710000Y-74287001I0J-500000D01*
G01*
X246860000Y-74287001D02*
X246860000Y-88907000D01*
X223116000Y-73787001D02*
G75*
G02X222683003Y-73536984I-22J499918D01*
G01*
X231240000Y-74287001D02*
G75*
G02X231740000Y-73787001I500000J0D01*
G01*
X242166000Y-73787001D02*
X246360000Y-73787001D01*
X155040000Y-74287001D02*
G75*
G02X155540000Y-73787001I500000J0D01*
G01*
X208260000Y-73787001D02*
G75*
G02X208760000Y-74287001I0J-500000D01*
G01*
X170660000Y-88907000D02*
G75*
G02X170160000Y-89407000I-500000J0D01*
G01*
X193640000Y-73787001D02*
X197834000Y-73787001D01*
X165099999Y-73287001D02*
G75*
G02X165533003Y-73536984I1J-500000D01*
G01*
X246360000Y-89407000D02*
X231740000Y-89407000D01*
X246360000Y-73787001D02*
G75*
G02X246860000Y-74287001I0J-500000D01*
G01*
X208760000Y-88907000D02*
G75*
G02X208260000Y-89407000I-500000J0D01*
G01*
X227310000Y-89407000D02*
X212690000Y-89407000D01*
X204066000Y-73787001D02*
X208260000Y-73787001D01*
X198266990Y-73536995D02*
G75*
G02X198700000Y-73287001I433010J-250006D01*
G01*
X189710000Y-88907000D02*
G75*
G02X189210000Y-89407000I-500000J0D01*
G01*
X212190000Y-74287001D02*
G75*
G02X212690000Y-73787001I500000J0D01*
G01*
X222249999Y-73287001D02*
G75*
G02X222683003Y-73536984I1J-500000D01*
G01*
X223116000Y-73787001D02*
X227310000Y-73787001D01*
X193640000Y-89407000D02*
G75*
G02X193140000Y-88907000I0J500000D01*
G01*
X231240000Y-88907000D02*
X231240000Y-74287001D01*
X217750000Y-73287001D02*
X222250000Y-73287001D01*
X135990000Y-88907000D02*
X135990000Y-74287001D01*
X189710000Y-74287001D02*
X189710000Y-88907000D01*
X236800000Y-73287001D02*
X241300000Y-73287001D01*
X226841991Y-92586994D02*
G75*
G02X226409000Y-92837000I-432969J249912D01*
G01*
X227310000Y-73787001D02*
G75*
G02X227810000Y-74287001I0J-500000D01*
G01*
X284960000Y-112387000D02*
X284960000Y-127007000D01*
X236835000Y-108457000D02*
X222215000Y-108457000D01*
X227275000Y-92337000D02*
X231775000Y-92337000D01*
X232641000Y-92837000D02*
X236835000Y-92837000D01*
X279399999Y-111387000D02*
G75*
G02X279833003Y-111636983I1J-500000D01*
G01*
X272553750Y-92837000D02*
G75*
G02X273053750Y-93337000I0J-500000D01*
G01*
X160600000Y-73287001D02*
X165100000Y-73287001D01*
X257933750Y-92837000D02*
X262127750Y-92837000D01*
X170160000Y-73787001D02*
G75*
G02X170660000Y-74287001I0J-500000D01*
G01*
X221715000Y-93337000D02*
G75*
G02X222215000Y-92837000I500000J0D01*
G01*
X179216990Y-73536995D02*
G75*
G02X179650000Y-73287001I433010J-250006D01*
G01*
X262560741Y-92586994D02*
G75*
G02X262127750Y-92837000I-432969J249912D01*
G01*
X284960000Y-127007000D02*
G75*
G02X284460000Y-127507000I-500000J0D01*
G01*
X165966000Y-73787001D02*
G75*
G02X165533003Y-73536984I-22J499918D01*
G01*
X269340000Y-127007000D02*
X269340000Y-112387000D01*
X284460000Y-127507000D02*
X269840000Y-127507000D01*
X280266000Y-111887000D02*
G75*
G02X279833003Y-111636983I-22J499918D01*
G01*
X269840000Y-127507000D02*
G75*
G02X269340000Y-127007000I0J500000D01*
G01*
X174090000Y-74287001D02*
G75*
G02X174590000Y-73787001I500000J0D01*
G01*
X272553750Y-108457000D02*
X257933750Y-108457000D01*
X232641000Y-92837000D02*
G75*
G02X232208003Y-92586983I-22J499918D01*
G01*
X231774999Y-92337000D02*
G75*
G02X232208003Y-92586983I1J-500000D01*
G01*
X222215000Y-108457000D02*
G75*
G02X221715000Y-107957000I0J500000D01*
G01*
X257933750Y-108457000D02*
G75*
G02X257433750Y-107957000I0J500000D01*
G01*
X237335000Y-93337000D02*
X237335000Y-107957000D01*
X268359750Y-92837000D02*
X272553750Y-92837000D01*
X274900000Y-111387000D02*
X279400000Y-111387000D01*
X284460000Y-111887000D02*
G75*
G02X284960000Y-112387000I0J-500000D01*
G01*
X262560740Y-92586994D02*
G75*
G02X262993750Y-92337000I433010J-250006D01*
G01*
X274466991Y-111636994D02*
G75*
G02X274034000Y-111887000I-432969J249912D01*
G01*
X242166000Y-73787001D02*
G75*
G02X241733003Y-73536984I-22J499918D01*
G01*
X221715000Y-107957000D02*
X221715000Y-93337000D01*
X257433750Y-107957000D02*
X257433750Y-93337000D01*
X262993750Y-92337000D02*
X267493750Y-92337000D01*
X273053750Y-93337000D02*
X273053750Y-107957000D01*
X174590000Y-89407000D02*
G75*
G02X174090000Y-88907000I0J500000D01*
G01*
X269340000Y-112387000D02*
G75*
G02X269840000Y-111887000I500000J0D01*
G01*
X273053750Y-107957000D02*
G75*
G02X272553750Y-108457000I-500000J0D01*
G01*
X179650000Y-73287001D02*
X184150000Y-73287001D01*
X280266000Y-111887000D02*
X284460000Y-111887000D01*
X274466990Y-111636994D02*
G75*
G02X274900000Y-111387000I433010J-250006D01*
G01*
X241299999Y-73287001D02*
G75*
G02X241733003Y-73536984I1J-500000D01*
G01*
X268359750Y-92837000D02*
G75*
G02X267926753Y-92586983I-22J499918D01*
G01*
X222215000Y-92837000D02*
X226409000Y-92837000D01*
X257433750Y-93337000D02*
G75*
G02X257933750Y-92837000I500000J0D01*
G01*
X236835000Y-92837000D02*
G75*
G02X237335000Y-93337000I0J-500000D01*
G01*
X226841990Y-92586994D02*
G75*
G02X227275000Y-92337000I433010J-250006D01*
G01*
X267493749Y-92337000D02*
G75*
G02X267926753Y-92586983I1J-500000D01*
G01*
X269840000Y-111887000D02*
X274034000Y-111887000D01*
X237335000Y-107957000D02*
G75*
G02X236835000Y-108457000I-500000J0D01*
G01*
X236366990Y-73536995D02*
G75*
G02X236800000Y-73287001I433010J-250006D01*
G01*
X146015000Y-108457000D02*
G75*
G02X145515000Y-107957000I0J500000D01*
G01*
X218285000Y-107957000D02*
G75*
G02X217785000Y-108457000I-500000J0D01*
G01*
X180185000Y-93337000D02*
X180185000Y-107957000D01*
X161135000Y-107957000D02*
G75*
G02X160635000Y-108457000I-500000J0D01*
G01*
X213591000Y-92837000D02*
G75*
G02X213158003Y-92586983I-22J499918D01*
G01*
X165065000Y-92837000D02*
X169259000Y-92837000D01*
X174624999Y-92337000D02*
G75*
G02X175058003Y-92586983I1J-500000D01*
G01*
X198735000Y-108457000D02*
X184115000Y-108457000D01*
X194541000Y-92837000D02*
G75*
G02X194108003Y-92586983I-22J499918D01*
G01*
X164565000Y-107957000D02*
X164565000Y-93337000D01*
X179685000Y-108457000D02*
X165065000Y-108457000D01*
X150641991Y-92586994D02*
G75*
G02X150209000Y-92837000I-432969J249912D01*
G01*
X161135000Y-93337000D02*
X161135000Y-107957000D01*
X145515000Y-93337000D02*
G75*
G02X146015000Y-92837000I500000J0D01*
G01*
X217785000Y-108457000D02*
X203165000Y-108457000D01*
X164565000Y-93337000D02*
G75*
G02X165065000Y-92837000I500000J0D01*
G01*
X203165000Y-108457000D02*
G75*
G02X202665000Y-107957000I0J500000D01*
G01*
X213591000Y-92837000D02*
X217785000Y-92837000D01*
X218285000Y-93337000D02*
X218285000Y-107957000D01*
X217785000Y-92837000D02*
G75*
G02X218285000Y-93337000I0J-500000D01*
G01*
X189175000Y-92337000D02*
X193675000Y-92337000D01*
X170125000Y-92337000D02*
X174625000Y-92337000D01*
X179685000Y-92837000D02*
G75*
G02X180185000Y-93337000I0J-500000D01*
G01*
X213051640Y-111887000D02*
G75*
G02X213551640Y-112387000I0J-500000D01*
G01*
X194330500Y-114513000D02*
X194330500Y-119863000D01*
X195030500Y-116842481D02*
X195030500Y-122551518D01*
X182130500Y-120363000D02*
G75*
G02X181630500Y-119863000I0J500000D01*
G01*
X181630500Y-114513000D02*
G75*
G02X182130500Y-114013000I500000J0D01*
G01*
X194330500Y-119863000D02*
G75*
G02X193830500Y-120363000I-500000J0D01*
G01*
X117772500Y-51307001D02*
X103152500Y-51307001D01*
X137322500Y-50807001D02*
G75*
G02X136822500Y-51307001I-500000J0D01*
G01*
X164929491Y-35436995D02*
G75*
G02X164496500Y-35687001I-432969J249912D01*
G01*
X12529492Y-35436995D02*
G75*
G02X12096501Y-35687001I-432969J249912D01*
G01*
X136822500Y-51307001D02*
X122202500Y-51307001D01*
X122202500Y-51307001D02*
G75*
G02X121702500Y-50807001I0J500000D01*
G01*
X156372500Y-50807001D02*
G75*
G02X155872500Y-51307001I-500000J0D01*
G01*
X169862499Y-35187001D02*
G75*
G02X170295503Y-35436984I1J-500000D01*
G01*
X193830500Y-114013000D02*
G75*
G02X194330500Y-114513000I0J-500000D01*
G01*
X113578500Y-35687001D02*
X117772500Y-35687001D01*
X117772500Y-35687001D02*
G75*
G02X118272500Y-36187001I0J-500000D01*
G01*
X198431640Y-127507000D02*
G75*
G02X197931640Y-127007000I0J500000D01*
G01*
X131762499Y-35187001D02*
G75*
G02X132195503Y-35436984I1J-500000D01*
G01*
X103152500Y-51307001D02*
G75*
G02X102652500Y-50807001I0J500000D01*
G01*
X118272500Y-36187001D02*
X118272500Y-50807001D01*
X7402501Y-36187001D02*
G75*
G02X7902501Y-35687001I500000J0D01*
G01*
X197931640Y-122428355D02*
G75*
G02X195030500Y-122551518I-1569140J2731355D01*
G01*
X184115000Y-92837000D02*
X188309000Y-92837000D01*
X188741990Y-92586994D02*
G75*
G02X189175000Y-92337000I433010J-250006D01*
G01*
X199235000Y-93337000D02*
X199235000Y-107957000D01*
X169691991Y-92586994D02*
G75*
G02X169259000Y-92837000I-432969J249912D01*
G01*
X140752500Y-112387000D02*
G75*
G02X141252500Y-111887000I500000J0D01*
G01*
X141252500Y-111887000D02*
X145446500Y-111887000D01*
X255587499Y-111387000D02*
G75*
G02X256020503Y-111636983I1J-500000D01*
G01*
X250654490Y-111636994D02*
G75*
G02X251087500Y-111387000I433010J-250006D01*
G01*
X145515000Y-107957000D02*
X145515000Y-93337000D01*
X212724999Y-92337000D02*
G75*
G02X213158003Y-92586983I1J-500000D01*
G01*
X183615000Y-107957000D02*
X183615000Y-93337000D01*
X184115000Y-108457000D02*
G75*
G02X183615000Y-107957000I0J500000D01*
G01*
X169691990Y-92586994D02*
G75*
G02X170125000Y-92337000I433010J-250006D01*
G01*
X165065000Y-108457000D02*
G75*
G02X164565000Y-107957000I0J500000D01*
G01*
X175491000Y-92837000D02*
G75*
G02X175058003Y-92586983I-22J499918D01*
G01*
X160635000Y-108457000D02*
X146015000Y-108457000D01*
X188741991Y-92586994D02*
G75*
G02X188309000Y-92837000I-432969J249912D01*
G01*
X180185000Y-107957000D02*
G75*
G02X179685000Y-108457000I-500000J0D01*
G01*
X236849570Y-127492430D02*
X222229570Y-127492430D01*
X146015000Y-92837000D02*
X150209000Y-92837000D01*
X183615000Y-93337000D02*
G75*
G02X184115000Y-92837000I500000J0D01*
G01*
X199235000Y-107957000D02*
G75*
G02X198735000Y-108457000I-500000J0D01*
G01*
X194541000Y-92837000D02*
X198735000Y-92837000D01*
X126465000Y-107957000D02*
X126465000Y-93337000D01*
X131591990Y-92586994D02*
G75*
G02X132025000Y-92337000I433010J-250006D01*
G01*
X123035000Y-107957000D02*
G75*
G02X122535000Y-108457000I-500000J0D01*
G01*
X112541990Y-92586994D02*
G75*
G02X112975000Y-92337000I433010J-250006D01*
G01*
X88865000Y-108457000D02*
G75*
G02X88365000Y-107957000I0J500000D01*
G01*
X122535000Y-108457000D02*
X107915000Y-108457000D01*
X122535000Y-92837000D02*
G75*
G02X123035000Y-93337000I0J-500000D01*
G01*
X112975000Y-92337000D02*
X117475000Y-92337000D01*
X107415000Y-93337000D02*
G75*
G02X107915000Y-92837000I500000J0D01*
G01*
X136524999Y-92337000D02*
G75*
G02X136958003Y-92586983I1J-500000D01*
G01*
X112541991Y-92586994D02*
G75*
G02X112109000Y-92837000I-432969J249912D01*
G01*
X103485000Y-108457000D02*
X88865000Y-108457000D01*
X137391000Y-92837000D02*
X141585000Y-92837000D01*
X137391000Y-92837000D02*
G75*
G02X136958003Y-92586983I-22J499918D01*
G01*
X107915000Y-92837000D02*
X112109000Y-92837000D01*
X98424999Y-92337000D02*
G75*
G02X98858003Y-92586983I1J-500000D01*
G01*
X151075000Y-92337000D02*
X155575000Y-92337000D01*
X123035000Y-93337000D02*
X123035000Y-107957000D01*
X103985000Y-93337000D02*
X103985000Y-107957000D01*
X107415000Y-107957000D02*
X107415000Y-93337000D01*
X142085000Y-93337000D02*
X142085000Y-107957000D01*
X107915000Y-108457000D02*
G75*
G02X107415000Y-107957000I0J500000D01*
G01*
X103985000Y-107957000D02*
G75*
G02X103485000Y-108457000I-500000J0D01*
G01*
X175491000Y-92837000D02*
X179685000Y-92837000D01*
X132025000Y-92337000D02*
X136525000Y-92337000D01*
X88365000Y-93337000D02*
G75*
G02X88865000Y-92837000I500000J0D01*
G01*
X142085000Y-107957000D02*
G75*
G02X141585000Y-108457000I-500000J0D01*
G01*
X208225000Y-92337000D02*
X212725000Y-92337000D01*
X198735000Y-92837000D02*
G75*
G02X199235000Y-93337000I0J-500000D01*
G01*
X131591991Y-92586994D02*
G75*
G02X131159000Y-92837000I-432969J249912D01*
G01*
X99291000Y-92837000D02*
G75*
G02X98858003Y-92586983I-22J499918D01*
G01*
X193674999Y-92337000D02*
G75*
G02X194108003Y-92586983I1J-500000D01*
G01*
X88365000Y-107957000D02*
X88365000Y-93337000D01*
X118341000Y-92837000D02*
G75*
G02X117908003Y-92586983I-22J499918D01*
G01*
X88865000Y-92837000D02*
X93059000Y-92837000D01*
X103485000Y-92837000D02*
G75*
G02X103985000Y-93337000I0J-500000D01*
G01*
X99291000Y-92837000D02*
X103485000Y-92837000D01*
X141585000Y-92837000D02*
G75*
G02X142085000Y-93337000I0J-500000D01*
G01*
X117474999Y-92337000D02*
G75*
G02X117908003Y-92586983I1J-500000D01*
G01*
X126965000Y-108457000D02*
G75*
G02X126465000Y-107957000I0J500000D01*
G01*
X118341000Y-92837000D02*
X122535000Y-92837000D01*
X141585000Y-108457000D02*
X126965000Y-108457000D01*
X126465000Y-93337000D02*
G75*
G02X126965000Y-92837000I500000J0D01*
G01*
X150641990Y-92586994D02*
G75*
G02X151075000Y-92337000I433010J-250006D01*
G01*
X126965000Y-92837000D02*
X131159000Y-92837000D01*
X207791990Y-92586994D02*
G75*
G02X208225000Y-92337000I433010J-250006D01*
G01*
X264827500Y-65634880D02*
G75*
G02X262300000Y-62547001I622500J3087879D01*
G01*
X289262500Y-94322000D02*
G75*
G02X289262500Y-87922000I0J3200000D01*
G01*
X288562500Y-33922001D02*
X8562501Y-33922001D01*
X268600000Y-61047001D02*
X268600000Y-62547001D01*
X151678500Y-111887000D02*
G75*
G02X151245503Y-111636983I-22J499918D01*
G01*
X145879491Y-111636994D02*
G75*
G02X145446500Y-111887000I-432969J249912D01*
G01*
X150812499Y-111387000D02*
G75*
G02X151245503Y-111636983I1J-500000D01*
G01*
X226856561Y-111622424D02*
G75*
G02X226423570Y-111872430I-432969J249912D01*
G01*
X290562500Y-94322000D02*
X289262500Y-94322000D01*
X291062500Y-87422000D02*
G75*
G02X290562500Y-87922000I-500000J0D01*
G01*
X268600000Y-62547001D02*
G75*
G02X268238597Y-64012001I-3150000J0D01*
G01*
X155872500Y-127507000D02*
X141252500Y-127507000D01*
X279947500Y-64012001D02*
G75*
G02X280447500Y-64512001I0J-500000D01*
G01*
X6062501Y-36422001D02*
X6062501Y-87522000D01*
X237349570Y-112372430D02*
X237349570Y-126992430D01*
X268238597Y-64012001D02*
X279947500Y-64012001D01*
X262300000Y-62547001D02*
X262300000Y-61047001D01*
X264827499Y-68706001D02*
G75*
G02X264577505Y-69139010I-499999J0D01*
G01*
X264327499Y-69572001D02*
G75*
G02X264577505Y-69139010I499919J22D01*
G01*
X232655570Y-111872430D02*
G75*
G02X232222573Y-111622413I-22J499918D01*
G01*
X262300000Y-61047001D02*
G75*
G02X268600000Y-61047001I3150000J0D01*
G01*
X6562501Y-88022000D02*
X9662501Y-88022000D01*
X288562500Y-33922001D02*
G75*
G02X291062500Y-36422001I0J-2500000D01*
G01*
X256453500Y-111887000D02*
X260647500Y-111887000D01*
X245527500Y-112387000D02*
G75*
G02X246027500Y-111887000I500000J0D01*
G01*
X245527500Y-127007000D02*
X245527500Y-112387000D01*
X203165000Y-92837000D02*
X207359000Y-92837000D01*
X221729570Y-126992430D02*
X221729570Y-112372430D01*
X237349570Y-126992430D02*
G75*
G02X236849570Y-127492430I-500000J0D01*
G01*
X246027500Y-127507000D02*
G75*
G02X245527500Y-127007000I0J500000D01*
G01*
X146312500Y-111387000D02*
X150812500Y-111387000D01*
X222229570Y-127492430D02*
G75*
G02X221729570Y-126992430I0J500000D01*
G01*
X155872500Y-111887000D02*
G75*
G02X156372500Y-112387000I0J-500000D01*
G01*
X202665000Y-93337000D02*
G75*
G02X203165000Y-92837000I500000J0D01*
G01*
X140752500Y-127007000D02*
X140752500Y-112387000D01*
X231789569Y-111372430D02*
G75*
G02X232222573Y-111622413I1J-500000D01*
G01*
X246027500Y-111887000D02*
X250221500Y-111887000D01*
X156372500Y-112387000D02*
X156372500Y-127007000D01*
X261147500Y-127007000D02*
G75*
G02X260647500Y-127507000I-500000J0D01*
G01*
X222229570Y-111872430D02*
X226423570Y-111872430D01*
X251087500Y-111387000D02*
X255587500Y-111387000D01*
X207791991Y-92586994D02*
G75*
G02X207359000Y-92837000I-432969J249912D01*
G01*
X250654491Y-111636994D02*
G75*
G02X250221500Y-111887000I-432969J249912D01*
G01*
X261147500Y-112387000D02*
X261147500Y-127007000D01*
X151678500Y-111887000D02*
X155872500Y-111887000D01*
X145879490Y-111636994D02*
G75*
G02X146312500Y-111387000I433010J-250006D01*
G01*
X155872500Y-51307001D02*
X141252500Y-51307001D01*
X118272500Y-50807001D02*
G75*
G02X117772500Y-51307001I-500000J0D01*
G01*
X145879490Y-35436995D02*
G75*
G02X146312500Y-35187001I433010J-250006D01*
G01*
X107779490Y-35436995D02*
G75*
G02X108212500Y-35187001I433010J-250006D01*
G01*
X175422500Y-36187001D02*
X175422500Y-50807001D01*
X174922500Y-35687001D02*
G75*
G02X175422500Y-36187001I0J-500000D01*
G01*
X93662499Y-35187001D02*
G75*
G02X94095503Y-35436984I1J-500000D01*
G01*
X102652500Y-50807001D02*
X102652500Y-36187001D01*
X122202500Y-35687001D02*
X126396500Y-35687001D01*
X132628500Y-35687001D02*
G75*
G02X132195503Y-35436984I-22J499918D01*
G01*
X189778500Y-35687001D02*
G75*
G02X189345503Y-35436984I-22J499918D01*
G01*
X151678500Y-35687001D02*
G75*
G02X151245503Y-35436984I-22J499918D01*
G01*
X112712499Y-35187001D02*
G75*
G02X113145503Y-35436984I1J-500000D01*
G01*
X127262500Y-35187001D02*
X131762500Y-35187001D01*
X113578500Y-35687001D02*
G75*
G02X113145503Y-35436984I-22J499918D01*
G01*
X141252500Y-51307001D02*
G75*
G02X140752500Y-50807001I0J500000D01*
G01*
X126829491Y-35436995D02*
G75*
G02X126396500Y-35687001I-432969J249912D01*
G01*
X121702500Y-36187001D02*
G75*
G02X122202500Y-35687001I500000J0D01*
G01*
X151678500Y-35687001D02*
X155872500Y-35687001D01*
X175422500Y-50807001D02*
G75*
G02X174922500Y-51307001I-500000J0D01*
G01*
X155872500Y-35687001D02*
G75*
G02X156372500Y-36187001I0J-500000D01*
G01*
X136822500Y-35687001D02*
G75*
G02X137322500Y-36187001I0J-500000D01*
G01*
X160302500Y-35687001D02*
X164496500Y-35687001D01*
X121702500Y-50807001D02*
X121702500Y-36187001D01*
X89162500Y-35187001D02*
X93662500Y-35187001D01*
X156372500Y-36187001D02*
X156372500Y-50807001D01*
X170728500Y-35687001D02*
G75*
G02X170295503Y-35436984I-22J499918D01*
G01*
X102652500Y-36187001D02*
G75*
G02X103152500Y-35687001I500000J0D01*
G01*
X160302500Y-51307001D02*
G75*
G02X159802500Y-50807001I0J500000D01*
G01*
X137322500Y-36187001D02*
X137322500Y-50807001D01*
X141252500Y-35687001D02*
X145446500Y-35687001D01*
X146312500Y-35187001D02*
X150812500Y-35187001D01*
X170728500Y-35687001D02*
X174922500Y-35687001D01*
X140752500Y-36187001D02*
G75*
G02X141252500Y-35687001I500000J0D01*
G01*
X159802500Y-36187001D02*
G75*
G02X160302500Y-35687001I500000J0D01*
G01*
X145879491Y-35436995D02*
G75*
G02X145446500Y-35687001I-432969J249912D01*
G01*
X107779491Y-35436995D02*
G75*
G02X107346500Y-35687001I-432969J249912D01*
G01*
X126829490Y-35436995D02*
G75*
G02X127262500Y-35187001I433010J-250006D01*
G01*
X174922500Y-51307001D02*
X160302500Y-51307001D01*
X108212500Y-35187001D02*
X112712500Y-35187001D01*
X88729490Y-35436995D02*
G75*
G02X89162500Y-35187001I433010J-250006D01*
G01*
X103152500Y-35687001D02*
X107346500Y-35687001D01*
X132628500Y-35687001D02*
X136822500Y-35687001D01*
X140752500Y-50807001D02*
X140752500Y-36187001D01*
X159802500Y-50807001D02*
X159802500Y-36187001D01*
X150812499Y-35187001D02*
G75*
G02X151245503Y-35436984I1J-500000D01*
G01*
X197902500Y-36187001D02*
G75*
G02X198402500Y-35687001I500000J0D01*
G01*
X197902500Y-50807001D02*
X197902500Y-36187001D01*
X216952500Y-36187001D02*
G75*
G02X217452500Y-35687001I500000J0D01*
G01*
X222512500Y-35187001D02*
X227012500Y-35187001D01*
X246062499Y-35187001D02*
G75*
G02X246495503Y-35436984I1J-500000D01*
G01*
X251122500Y-35687001D02*
G75*
G02X251622500Y-36187001I0J-500000D01*
G01*
X255552500Y-35687001D02*
X259746500Y-35687001D01*
X241129491Y-35436995D02*
G75*
G02X240696500Y-35687001I-432969J249912D01*
G01*
X194472500Y-36187001D02*
X194472500Y-50807001D01*
X217452500Y-35687001D02*
X221646500Y-35687001D01*
X203029490Y-35436995D02*
G75*
G02X203462500Y-35187001I433010J-250006D01*
G01*
X260179491Y-35436995D02*
G75*
G02X259746500Y-35687001I-432969J249912D01*
G01*
X251622500Y-50807001D02*
G75*
G02X251122500Y-51307001I-500000J0D01*
G01*
X213022500Y-51307001D02*
X198402500Y-51307001D01*
X236002500Y-36187001D02*
G75*
G02X236502500Y-35687001I500000J0D01*
G01*
X188912499Y-35187001D02*
G75*
G02X189345503Y-35436984I1J-500000D01*
G01*
X203029491Y-35436995D02*
G75*
G02X202596500Y-35687001I-432969J249912D01*
G01*
X194472500Y-50807001D02*
G75*
G02X193972500Y-51307001I-500000J0D01*
G01*
X255052500Y-36187001D02*
G75*
G02X255552500Y-35687001I500000J0D01*
G01*
X208828500Y-35687001D02*
G75*
G02X208395503Y-35436984I-22J499918D01*
G01*
X236502500Y-35687001D02*
X240696500Y-35687001D01*
X213022500Y-35687001D02*
G75*
G02X213522500Y-36187001I0J-500000D01*
G01*
X178852500Y-50807001D02*
X178852500Y-36187001D01*
X193972500Y-35687001D02*
G75*
G02X194472500Y-36187001I0J-500000D01*
G01*
X216952500Y-50807001D02*
X216952500Y-36187001D01*
X227878500Y-35687001D02*
X232072500Y-35687001D01*
X255052500Y-50807001D02*
X255052500Y-36187001D01*
X236502500Y-51307001D02*
G75*
G02X236002500Y-50807001I0J500000D01*
G01*
X227878500Y-35687001D02*
G75*
G02X227445503Y-35436984I-22J499918D01*
G01*
X246928500Y-35687001D02*
X251122500Y-35687001D01*
X241129490Y-35436995D02*
G75*
G02X241562500Y-35187001I433010J-250006D01*
G01*
X241562500Y-35187001D02*
X246062500Y-35187001D01*
X270172500Y-51307001D02*
X255552500Y-51307001D01*
X251122500Y-51307001D02*
X236502500Y-51307001D01*
X179352500Y-51307001D02*
G75*
G02X178852500Y-50807001I0J500000D01*
G01*
X255552500Y-51307001D02*
G75*
G02X255052500Y-50807001I0J500000D01*
G01*
X184412500Y-35187001D02*
X188912500Y-35187001D01*
X198402500Y-35687001D02*
X202596500Y-35687001D01*
X227012499Y-35187001D02*
G75*
G02X227445503Y-35436984I1J-500000D01*
G01*
X232072500Y-51307001D02*
X217452500Y-51307001D01*
X232572500Y-36187001D02*
X232572500Y-50807001D01*
X207962499Y-35187001D02*
G75*
G02X208395503Y-35436984I1J-500000D01*
G01*
X222079490Y-35436995D02*
G75*
G02X222512500Y-35187001I433010J-250006D01*
G01*
X213522500Y-50807001D02*
G75*
G02X213022500Y-51307001I-500000J0D01*
G01*
X232572500Y-50807001D02*
G75*
G02X232072500Y-51307001I-500000J0D01*
G01*
X183979490Y-35436995D02*
G75*
G02X184412500Y-35187001I433010J-250006D01*
G01*
X198402500Y-51307001D02*
G75*
G02X197902500Y-50807001I0J500000D01*
G01*
X222079491Y-35436995D02*
G75*
G02X221646500Y-35687001I-432969J249912D01*
G01*
X42072501Y-36187001D02*
X42072501Y-50807001D01*
X65052500Y-51307001D02*
G75*
G02X64552500Y-50807001I0J500000D01*
G01*
X203462500Y-35187001D02*
X207962500Y-35187001D01*
X61122500Y-50807001D02*
G75*
G02X60622500Y-51307001I-500000J0D01*
G01*
X80172500Y-36187001D02*
X80172500Y-50807001D01*
X37378501Y-35687001D02*
X41572501Y-35687001D01*
X46002501Y-35687001D02*
X50196501Y-35687001D01*
X61122500Y-36187001D02*
X61122500Y-50807001D01*
X60622500Y-35687001D02*
G75*
G02X61122500Y-36187001I0J-500000D01*
G01*
X26952501Y-35687001D02*
X31146501Y-35687001D01*
X99222500Y-50807001D02*
G75*
G02X98722500Y-51307001I-500000J0D01*
G01*
X12962501Y-35187001D02*
X17462501Y-35187001D01*
X74612499Y-35187001D02*
G75*
G02X75045503Y-35436984I1J-500000D01*
G01*
X99222500Y-36187001D02*
X99222500Y-50807001D01*
X179352500Y-35687001D02*
X183546500Y-35687001D01*
X164929490Y-35436995D02*
G75*
G02X165362500Y-35187001I433010J-250006D01*
G01*
X23022501Y-50807001D02*
G75*
G02X22522501Y-51307001I-500000J0D01*
G01*
X178852500Y-36187001D02*
G75*
G02X179352500Y-35687001I500000J0D01*
G01*
X70112500Y-35187001D02*
X74612500Y-35187001D01*
X189778500Y-35687001D02*
X193972500Y-35687001D01*
X232072500Y-35687001D02*
G75*
G02X232572500Y-36187001I0J-500000D01*
G01*
X183979491Y-35436995D02*
G75*
G02X183546500Y-35687001I-432969J249912D01*
G01*
X31579491Y-35436995D02*
G75*
G02X32012501Y-35187001I433010J-250006D01*
G01*
X251622500Y-36187001D02*
X251622500Y-50807001D01*
X217452500Y-51307001D02*
G75*
G02X216952500Y-50807001I0J500000D01*
G01*
X22522501Y-51307001D02*
X7902501Y-51307001D01*
X246928500Y-35687001D02*
G75*
G02X246495503Y-35436984I-22J499918D01*
G01*
X22522501Y-35687001D02*
G75*
G02X23022501Y-36187001I0J-500000D01*
G01*
X36512500Y-35187001D02*
G75*
G02X36945504Y-35436984I1J-500000D01*
G01*
X56428500Y-35687001D02*
G75*
G02X55995503Y-35436984I-22J499918D01*
G01*
X236002500Y-50807001D02*
X236002500Y-36187001D01*
X50629492Y-35436995D02*
G75*
G02X50196501Y-35687001I-432969J249912D01*
G01*
X94528500Y-35687001D02*
X98722500Y-35687001D01*
X80172500Y-50807001D02*
G75*
G02X79672500Y-51307001I-500000J0D01*
G01*
X17462500Y-35187001D02*
G75*
G02X17895504Y-35436984I1J-500000D01*
G01*
X165362500Y-35187001D02*
X169862500Y-35187001D01*
X208828500Y-35687001D02*
X213022500Y-35687001D01*
X69679490Y-35436995D02*
G75*
G02X70112500Y-35187001I433010J-250006D01*
G01*
X31579492Y-35436995D02*
G75*
G02X31146501Y-35687001I-432969J249912D01*
G01*
X32012501Y-35187001D02*
X36512501Y-35187001D01*
X37378501Y-35687001D02*
G75*
G02X36945504Y-35436984I-22J499918D01*
G01*
X83602500Y-50807001D02*
X83602500Y-36187001D01*
X193972500Y-51307001D02*
X179352500Y-51307001D01*
X213522500Y-36187001D02*
X213522500Y-50807001D01*
X64552500Y-36187001D02*
G75*
G02X65052500Y-35687001I500000J0D01*
G01*
X23022501Y-36187001D02*
X23022501Y-50807001D01*
X260612500Y-35187001D02*
X265112500Y-35187001D01*
X274602500Y-35687001D02*
X278796500Y-35687001D01*
X18328501Y-35687001D02*
X22522501Y-35687001D01*
X245527500Y-69857001D02*
X245527500Y-55237001D01*
X284162499Y-35187001D02*
G75*
G02X284595503Y-35436984I1J-500000D01*
G01*
X75478500Y-35687001D02*
X79672500Y-35687001D01*
X26452501Y-50807001D02*
X26452501Y-36187001D01*
X245527500Y-55237001D02*
G75*
G02X246027500Y-54737001I500000J0D01*
G01*
X45502501Y-50807001D02*
X45502501Y-36187001D01*
X41572501Y-51307001D02*
X26952501Y-51307001D01*
X12529491Y-35436995D02*
G75*
G02X12962501Y-35187001I433010J-250006D01*
G01*
X60622500Y-51307001D02*
X46002501Y-51307001D01*
X18328501Y-35687001D02*
G75*
G02X17895504Y-35436984I-22J499918D01*
G01*
X79672500Y-51307001D02*
X65052500Y-51307001D01*
X65052500Y-35687001D02*
X69246500Y-35687001D01*
X56428500Y-35687001D02*
X60622500Y-35687001D01*
X7902501Y-51307001D02*
G75*
G02X7402501Y-50807001I0J500000D01*
G01*
X84102500Y-35687001D02*
X88296500Y-35687001D01*
X75478500Y-35687001D02*
G75*
G02X75045503Y-35436984I-22J499918D01*
G01*
X26952501Y-51307001D02*
G75*
G02X26452501Y-50807001I0J500000D01*
G01*
X55562500Y-35187002D02*
G75*
G02X55995503Y-35436984I1J-499999D01*
G01*
X42072501Y-50807001D02*
G75*
G02X41572501Y-51307001I-500000J0D01*
G01*
X41572501Y-35687001D02*
G75*
G02X42072501Y-36187001I0J-500000D01*
G01*
X260179490Y-35436995D02*
G75*
G02X260612500Y-35187001I433010J-250006D01*
G01*
X98722500Y-35687001D02*
G75*
G02X99222500Y-36187001I0J-500000D01*
G01*
X285028500Y-35687001D02*
X289222500Y-35687001D01*
X246027500Y-70357001D02*
G75*
G02X245527500Y-69857001I0J500000D01*
G01*
X83602500Y-36187001D02*
G75*
G02X84102500Y-35687001I500000J0D01*
G01*
X260647500Y-70357001D02*
X246027500Y-70357001D01*
X88729491Y-35436995D02*
G75*
G02X88296500Y-35687001I-432969J249912D01*
G01*
X279229491Y-35436995D02*
G75*
G02X278796500Y-35687001I-432969J249912D01*
G01*
X274102500Y-50807001D02*
X274102500Y-36187001D01*
X94528500Y-35687001D02*
G75*
G02X94095503Y-35436984I-22J499918D01*
G01*
X98722500Y-51307001D02*
X84102500Y-51307001D01*
X45502501Y-36187001D02*
G75*
G02X46002501Y-35687001I500000J0D01*
G01*
X64552500Y-50807001D02*
X64552500Y-36187001D01*
X69679491Y-35436995D02*
G75*
G02X69246500Y-35687001I-432969J249912D01*
G01*
X50629491Y-35436995D02*
G75*
G02X51062501Y-35187001I433010J-250006D01*
G01*
X79672500Y-35687001D02*
G75*
G02X80172500Y-36187001I0J-500000D01*
G01*
X26452501Y-36187001D02*
G75*
G02X26952501Y-35687001I500000J0D01*
G01*
X7402501Y-50807001D02*
X7402501Y-36187001D01*
X84102500Y-51307001D02*
G75*
G02X83602500Y-50807001I0J500000D01*
G01*
X46002501Y-51307001D02*
G75*
G02X45502501Y-50807001I0J500000D01*
G01*
X51062501Y-35187001D02*
X55562501Y-35187001D01*
X169327500Y-69857001D02*
X169327500Y-55237001D01*
X212554491Y-54486995D02*
G75*
G02X212121500Y-54737001I-432969J249912D01*
G01*
X223047500Y-69857001D02*
G75*
G02X222547500Y-70357001I-500000J0D01*
G01*
X218353500Y-54737001D02*
G75*
G02X217920503Y-54486984I-22J499918D01*
G01*
X222547500Y-54737001D02*
G75*
G02X223047500Y-55237001I0J-500000D01*
G01*
X199303500Y-54737001D02*
X203497500Y-54737001D01*
X203997500Y-69857001D02*
G75*
G02X203497500Y-70357001I-500000J0D01*
G01*
X226977500Y-54737001D02*
X231171500Y-54737001D01*
X207927500Y-54737001D02*
X212121500Y-54737001D01*
X289722500Y-50807001D02*
G75*
G02X289222500Y-51307001I-500000J0D01*
G01*
X270172500Y-35687001D02*
G75*
G02X270672500Y-36187001I0J-500000D01*
G01*
X274602500Y-51307001D02*
G75*
G02X274102500Y-50807001I0J500000D01*
G01*
X251087500Y-54237001D02*
X255587500Y-54237001D01*
X169827500Y-70357001D02*
G75*
G02X169327500Y-69857001I0J500000D01*
G01*
X184947500Y-55237001D02*
X184947500Y-69857001D01*
X241597500Y-54737001D02*
G75*
G02X242097500Y-55237001I0J-500000D01*
G01*
X207927500Y-70357001D02*
G75*
G02X207427500Y-69857001I0J500000D01*
G01*
X285028500Y-35687001D02*
G75*
G02X284595503Y-35436984I-22J499918D01*
G01*
X265978500Y-35687001D02*
G75*
G02X265545503Y-35436984I-22J499918D01*
G01*
X255587499Y-54237001D02*
G75*
G02X256020503Y-54486984I1J-500000D01*
G01*
X226977500Y-70357001D02*
G75*
G02X226477500Y-69857001I0J500000D01*
G01*
X188877500Y-70357001D02*
G75*
G02X188377500Y-69857001I0J500000D01*
G01*
X246027500Y-54737001D02*
X250221500Y-54737001D01*
X274102500Y-36187001D02*
G75*
G02X274602500Y-35687001I500000J0D01*
G01*
X289222500Y-35687001D02*
G75*
G02X289722500Y-36187001I0J-500000D01*
G01*
X265112499Y-35187001D02*
G75*
G02X265545503Y-35436984I1J-500000D01*
G01*
X279662500Y-35187001D02*
X284162500Y-35187001D01*
X231604491Y-54486995D02*
G75*
G02X231171500Y-54737001I-432969J249912D01*
G01*
X188377500Y-69857001D02*
X188377500Y-55237001D01*
X203497500Y-70357001D02*
X188877500Y-70357001D01*
X174887500Y-54237001D02*
X179387500Y-54237001D01*
X270672500Y-36187001D02*
X270672500Y-50807001D01*
X242097500Y-69857001D02*
G75*
G02X241597500Y-70357001I-500000J0D01*
G01*
X193937500Y-54237001D02*
X198437500Y-54237001D01*
X241597500Y-70357001D02*
X226977500Y-70357001D01*
X242097500Y-55237001D02*
X242097500Y-69857001D01*
X184947500Y-69857001D02*
G75*
G02X184447500Y-70357001I-500000J0D01*
G01*
X198437499Y-54237001D02*
G75*
G02X198870503Y-54486984I1J-500000D01*
G01*
X207427500Y-69857001D02*
X207427500Y-55237001D01*
X223047500Y-55237001D02*
X223047500Y-69857001D01*
X193504491Y-54486995D02*
G75*
G02X193071500Y-54737001I-432969J249912D01*
G01*
X236537499Y-54237001D02*
G75*
G02X236970503Y-54486984I1J-500000D01*
G01*
X174454491Y-54486995D02*
G75*
G02X174021500Y-54737001I-432969J249912D01*
G01*
X289722500Y-36187001D02*
X289722500Y-50807001D01*
X217487499Y-54237001D02*
G75*
G02X217920503Y-54486984I1J-500000D01*
G01*
X179387499Y-54237001D02*
G75*
G02X179820503Y-54486984I1J-500000D01*
G01*
X169827500Y-54737001D02*
X174021500Y-54737001D01*
X289222500Y-51307001D02*
X274602500Y-51307001D01*
X279229490Y-35436995D02*
G75*
G02X279662500Y-35187001I433010J-250006D01*
G01*
X232037500Y-54237001D02*
X236537500Y-54237001D01*
X212987500Y-54237001D02*
X217487500Y-54237001D01*
X226477500Y-55237001D02*
G75*
G02X226977500Y-54737001I500000J0D01*
G01*
X226477500Y-69857001D02*
X226477500Y-55237001D01*
X270672500Y-50807001D02*
G75*
G02X270172500Y-51307001I-500000J0D01*
G01*
X250654491Y-54486995D02*
G75*
G02X250221500Y-54737001I-432969J249912D01*
G01*
X180253500Y-54737001D02*
X184447500Y-54737001D01*
X174454490Y-54486995D02*
G75*
G02X174887500Y-54237001I433010J-250006D01*
G01*
X237403500Y-54737001D02*
G75*
G02X236970503Y-54486984I-22J499918D01*
G01*
X265978500Y-35687001D02*
X270172500Y-35687001D01*
X193504490Y-54486995D02*
G75*
G02X193937500Y-54237001I433010J-250006D01*
G01*
X199303500Y-54737001D02*
G75*
G02X198870503Y-54486984I-22J499918D01*
G01*
X184447500Y-70357001D02*
X169827500Y-70357001D01*
X203497500Y-54737001D02*
G75*
G02X203997500Y-55237001I0J-500000D01*
G01*
X222547500Y-70357001D02*
X207927500Y-70357001D01*
X207427500Y-55237001D02*
G75*
G02X207927500Y-54737001I500000J0D01*
G01*
X188377500Y-55237001D02*
G75*
G02X188877500Y-54737001I500000J0D01*
G01*
X184447500Y-54737001D02*
G75*
G02X184947500Y-55237001I0J-500000D01*
G01*
X88729490Y-111636994D02*
G75*
G02X89162500Y-111387000I433010J-250006D01*
G01*
X74910000Y-127507000D02*
X60290000Y-127507000D01*
X93662499Y-111387000D02*
G75*
G02X94095503Y-111636983I1J-500000D01*
G01*
X59790000Y-112387000D02*
G75*
G02X60290000Y-111887000I500000J0D01*
G01*
X75410000Y-127007000D02*
G75*
G02X74910000Y-127507000I-500000J0D01*
G01*
X94528500Y-111887000D02*
G75*
G02X94095503Y-111636983I-22J499918D01*
G01*
X59790000Y-127007000D02*
X59790000Y-112387000D01*
X203997500Y-55237001D02*
X203997500Y-69857001D01*
X74910000Y-111887000D02*
G75*
G02X75410000Y-112387000I0J-500000D01*
G01*
X169327500Y-55237001D02*
G75*
G02X169827500Y-54737001I500000J0D01*
G01*
X94528500Y-111887000D02*
X98722500Y-111887000D01*
X83602500Y-127007000D02*
X83602500Y-112387000D01*
X261147500Y-55237001D02*
X261147500Y-69857001D01*
X237403500Y-54737001D02*
X241597500Y-54737001D01*
X212554490Y-54486995D02*
G75*
G02X212987500Y-54237001I433010J-250006D01*
G01*
X260647500Y-54737001D02*
G75*
G02X261147500Y-55237001I0J-500000D01*
G01*
X250654490Y-54486995D02*
G75*
G02X251087500Y-54237001I433010J-250006D01*
G01*
X256453500Y-54737001D02*
X260647500Y-54737001D01*
X180253500Y-54737001D02*
G75*
G02X179820503Y-54486984I-22J499918D01*
G01*
X256453500Y-54737001D02*
G75*
G02X256020503Y-54486984I-22J499918D01*
G01*
X188877500Y-54737001D02*
X193071500Y-54737001D01*
X218353500Y-54737001D02*
X222547500Y-54737001D01*
X261147500Y-69857001D02*
G75*
G02X260647500Y-70357001I-500000J0D01*
G01*
X98722500Y-111887000D02*
G75*
G02X99222500Y-112387000I0J-500000D01*
G01*
X231604490Y-54486995D02*
G75*
G02X232037500Y-54237001I433010J-250006D01*
G01*
X12665001Y-111887000D02*
X16859001Y-111887000D01*
X114994500Y-114013000D02*
X103294500Y-114013000D01*
X17291991Y-111636994D02*
G75*
G02X17725001Y-111387000I433010J-250006D01*
G01*
X257702500Y-74818001D02*
X257702500Y-76867001D01*
X12665001Y-127507000D02*
G75*
G02X12165001Y-127007000I0J500000D01*
G01*
X103294500Y-120363000D02*
X114994500Y-120363000D01*
X89162500Y-111387000D02*
X93662500Y-111387000D01*
X41104491Y-111636994D02*
G75*
G02X41537501Y-111387000I433010J-250006D01*
G01*
X12165001Y-112387000D02*
G75*
G02X12665001Y-111887000I500000J0D01*
G01*
X257972698Y-77311064D02*
G75*
G02X257972700Y-80595937I-714198J-1642437D01*
G01*
X64916991Y-111636994D02*
G75*
G02X64484000Y-111887000I-432969J249912D01*
G01*
X257972700Y-77311064D02*
G75*
G02X257702500Y-76867001I229800J444063D01*
G01*
X255467500Y-74818001D02*
G75*
G02X255967500Y-74318001I500000J0D01*
G01*
X46037500Y-111387000D02*
G75*
G02X46470504Y-111636983I1J-500000D01*
G01*
X12165001Y-127007000D02*
X12165001Y-112387000D01*
X23091001Y-111887000D02*
G75*
G02X22658004Y-111636983I-22J499918D01*
G01*
X103294500Y-120363000D02*
G75*
G02X102794500Y-119863000I0J500000D01*
G01*
X114994500Y-114013000D02*
G75*
G02X115494500Y-114513000I0J-500000D01*
G01*
X115494500Y-119863000D02*
G75*
G02X114994500Y-120363000I-500000J0D01*
G01*
X35977501Y-112387000D02*
G75*
G02X36477501Y-111887000I500000J0D01*
G01*
X84102500Y-127507000D02*
G75*
G02X83602500Y-127007000I0J500000D01*
G01*
X70716000Y-111887000D02*
X74910000Y-111887000D01*
X35977501Y-127007000D02*
X35977501Y-112387000D01*
X27285001Y-111887000D02*
G75*
G02X27785001Y-112387000I0J-500000D01*
G01*
X22225000Y-111387000D02*
G75*
G02X22658004Y-111636983I1J-500000D01*
G01*
X257202500Y-74318001D02*
G75*
G02X257702500Y-74818001I0J-500000D01*
G01*
X51097501Y-127507000D02*
X36477501Y-127507000D01*
X27285001Y-127507000D02*
X12665001Y-127507000D01*
X17725001Y-111387000D02*
X22225001Y-111387000D01*
X115494500Y-119863000D02*
X115494500Y-114513000D01*
X27785001Y-127007000D02*
G75*
G02X27285001Y-127507000I-500000J0D01*
G01*
X23091001Y-111887000D02*
X27285001Y-111887000D01*
X102794500Y-114513000D02*
G75*
G02X103294500Y-114013000I500000J0D01*
G01*
X75410000Y-112387000D02*
X75410000Y-127007000D01*
X60290000Y-111887000D02*
X64484000Y-111887000D01*
X17291992Y-111636994D02*
G75*
G02X16859001Y-111887000I-432969J249912D01*
G01*
X41104492Y-111636994D02*
G75*
G02X40671501Y-111887000I-432969J249912D01*
G01*
X69849999Y-111387000D02*
G75*
G02X70283003Y-111636983I1J-500000D01*
G01*
X8562501Y-128922000D02*
G75*
G02X6062501Y-126422000I0J2500000D01*
G01*
X46903501Y-111887000D02*
G75*
G02X46470504Y-111636983I-22J499918D01*
G01*
X255467500Y-83089000D02*
X255467500Y-74818001D01*
X255967500Y-74318001D02*
X257202500Y-74318001D01*
X9662501Y-88022000D02*
G75*
G02X9662501Y-94222000I0J-3100000D01*
G01*
X6062501Y-94722000D02*
G75*
G02X6562501Y-94222000I500000J0D01*
G01*
X34825001Y-62547001D02*
G75*
G03X34825001Y-62547001I-3150000J0D01*
G01*
X290562500Y-94322000D02*
G75*
G02X291062500Y-94822000I0J-500000D01*
G01*
X291062500Y-126422000D02*
X291062500Y-94822000D01*
X99222500Y-127007000D02*
G75*
G02X98722500Y-127507000I-500000J0D01*
G01*
X36477501Y-127507000D02*
G75*
G02X35977501Y-127007000I0J500000D01*
G01*
X46903501Y-111887000D02*
X51097501Y-111887000D01*
X65350000Y-111387000D02*
X69850000Y-111387000D01*
X70716000Y-111887000D02*
G75*
G02X70283003Y-111636983I-22J499918D01*
G01*
X60290000Y-127507000D02*
G75*
G02X59790000Y-127007000I0J500000D01*
G01*
X64916990Y-111636994D02*
G75*
G02X65350000Y-111387000I433010J-250006D01*
G01*
X99222500Y-112387000D02*
X99222500Y-127007000D01*
X51097501Y-111887000D02*
G75*
G02X51597501Y-112387000I0J-500000D01*
G01*
X83602500Y-112387000D02*
G75*
G02X84102500Y-111887000I500000J0D01*
G01*
X98722500Y-127507000D02*
X84102500Y-127507000D01*
X27785001Y-112387000D02*
X27785001Y-127007000D01*
X102794500Y-114513000D02*
X102794500Y-119863000D01*
X41537501Y-111387000D02*
X46037501Y-111387000D01*
X51597501Y-127007000D02*
G75*
G02X51097501Y-127507000I-500000J0D01*
G01*
X51597501Y-112387000D02*
X51597501Y-127007000D01*
X36477501Y-111887000D02*
X40671501Y-111887000D01*
X282746500Y-74819001D02*
G75*
G02X283246500Y-74319001I500000J0D01*
G01*
X284981500Y-81041000D02*
X284981500Y-83090000D01*
X6062501Y-94722000D02*
X6062501Y-126422000D01*
X255967500Y-83589000D02*
G75*
G02X255467500Y-83089000I0J500000D01*
G01*
X284481500Y-74319001D02*
G75*
G02X284981500Y-74819001I0J-500000D01*
G01*
X257202500Y-83589000D02*
X255967500Y-83589000D01*
X284981500Y-83090000D02*
G75*
G02X284481500Y-83590000I-500000J0D01*
G01*
X165397500Y-54737001D02*
G75*
G02X165897500Y-55237001I0J-500000D01*
G01*
X283246500Y-83590000D02*
G75*
G02X282746500Y-83090000I0J500000D01*
G01*
X279947500Y-79632000D02*
X265327500Y-79632000D01*
X257702500Y-81040000D02*
X257702500Y-83089000D01*
X283246500Y-74319001D02*
X284481500Y-74319001D01*
X291062500Y-126422000D02*
G75*
G02X288562500Y-128922000I-2500000J0D01*
G01*
X285251700Y-77312064D02*
G75*
G02X284981500Y-76868001I229800J444063D01*
G01*
X265327500Y-79632001D02*
G75*
G02X264827500Y-79132001I0J500000D01*
G01*
X264827500Y-79132001D02*
X264827500Y-74938001D01*
X280447500Y-64512001D02*
X280447500Y-79132001D01*
X257702500Y-83089000D02*
G75*
G02X257202500Y-83589000I-500000J0D01*
G01*
X257702500Y-81040000D02*
G75*
G02X257972700Y-80595937I500000J0D01*
G01*
X8562501Y-128922000D02*
X288562500Y-128922000D01*
X264577494Y-74505010D02*
G75*
G02X264827500Y-74938001I-249912J-432969D01*
G01*
X285251698Y-77312064D02*
G75*
G02X285251700Y-80596937I-714198J-1642437D01*
G01*
X284981500Y-74819001D02*
X284981500Y-76868001D01*
X280447499Y-79132001D02*
G75*
G02X279947500Y-79632000I-499999J0D01*
G01*
X9662501Y-94222000D02*
X6562501Y-94222000D01*
X284481500Y-83590000D02*
X283246500Y-83590000D01*
X284981500Y-81041000D02*
G75*
G02X285251700Y-80596937I500000J0D01*
G01*
X282746500Y-83090000D02*
X282746500Y-74819001D01*
X93627500Y-70357001D02*
G75*
G02X93127500Y-69857001I0J500000D01*
G01*
X51597501Y-69857001D02*
G75*
G02X51097501Y-70357001I-500000J0D01*
G01*
X65953500Y-54737001D02*
X70147500Y-54737001D01*
X55527501Y-54737001D02*
X59721500Y-54737001D01*
X165397500Y-70357001D02*
X150777500Y-70357001D01*
X127797500Y-55237001D02*
X127797500Y-69857001D01*
X36477501Y-70357001D02*
G75*
G02X35977501Y-69857001I0J500000D01*
G01*
X104053500Y-54737001D02*
G75*
G02X103620503Y-54486984I-22J499918D01*
G01*
X85003500Y-54737001D02*
G75*
G02X84570503Y-54486984I-22J499918D01*
G01*
X131727500Y-70357001D02*
G75*
G02X131227500Y-69857001I0J500000D01*
G01*
X85003500Y-54737001D02*
X89197500Y-54737001D01*
X60154490Y-54486995D02*
G75*
G02X60587500Y-54237001I433010J-250006D01*
G01*
X165897500Y-55237001D02*
X165897500Y-69857001D01*
X146847500Y-55237001D02*
X146847500Y-69857001D01*
X146847500Y-69857001D02*
G75*
G02X146347500Y-70357001I-500000J0D01*
G01*
X136354491Y-54486995D02*
G75*
G02X135921500Y-54737001I-432969J249912D01*
G01*
X98254491Y-54486995D02*
G75*
G02X97821500Y-54737001I-432969J249912D01*
G01*
X160337499Y-54237001D02*
G75*
G02X160770503Y-54486984I1J-500000D01*
G01*
X70647500Y-55237001D02*
X70647500Y-69857001D01*
X55027501Y-55237001D02*
G75*
G02X55527501Y-54737001I500000J0D01*
G01*
X155404491Y-54486995D02*
G75*
G02X154971500Y-54737001I-432969J249912D01*
G01*
X161203500Y-54737001D02*
G75*
G02X160770503Y-54486984I-22J499918D01*
G01*
X165897500Y-69857001D02*
G75*
G02X165397500Y-70357001I-500000J0D01*
G01*
X131227500Y-55237001D02*
G75*
G02X131727500Y-54737001I500000J0D01*
G01*
X117737500Y-54237001D02*
X122237500Y-54237001D01*
X103187499Y-54237001D02*
G75*
G02X103620503Y-54486984I1J-500000D01*
G01*
X70147500Y-70357001D02*
X55527501Y-70357001D01*
X136354490Y-54486995D02*
G75*
G02X136787500Y-54237001I433010J-250006D01*
G01*
X122237499Y-54237001D02*
G75*
G02X122670503Y-54486984I1J-500000D01*
G01*
X146347500Y-54737001D02*
G75*
G02X146847500Y-55237001I0J-500000D01*
G01*
X150277500Y-55237001D02*
G75*
G02X150777500Y-54737001I500000J0D01*
G01*
X155837500Y-54237001D02*
X160337500Y-54237001D01*
X150777500Y-54737001D02*
X154971500Y-54737001D01*
X142153500Y-54737001D02*
G75*
G02X141720503Y-54486984I-22J499918D01*
G01*
X150277500Y-69857001D02*
X150277500Y-55237001D01*
X127297500Y-70357001D02*
X112677500Y-70357001D01*
X108747500Y-69857001D02*
G75*
G02X108247500Y-70357001I-500000J0D01*
G01*
X127297500Y-54737001D02*
G75*
G02X127797500Y-55237001I0J-500000D01*
G01*
X123103500Y-54737001D02*
X127297500Y-54737001D01*
X35977501Y-55237001D02*
G75*
G02X36477501Y-54737001I500000J0D01*
G01*
X131727500Y-54737001D02*
X135921500Y-54737001D01*
X141287499Y-54237001D02*
G75*
G02X141720503Y-54486984I1J-500000D01*
G01*
X131227500Y-69857001D02*
X131227500Y-55237001D01*
X117304490Y-54486995D02*
G75*
G02X117737500Y-54237001I433010J-250006D01*
G01*
X93127500Y-55237001D02*
G75*
G02X93627500Y-54737001I500000J0D01*
G01*
X142153500Y-54737001D02*
X146347500Y-54737001D01*
X108747500Y-55237001D02*
X108747500Y-69857001D01*
X60154491Y-54486995D02*
G75*
G02X59721500Y-54737001I-432969J249912D01*
G01*
X98254490Y-54486995D02*
G75*
G02X98687500Y-54237001I433010J-250006D01*
G01*
X89197500Y-54737001D02*
G75*
G02X89697500Y-55237001I0J-500000D01*
G01*
X150777500Y-70357001D02*
G75*
G02X150277500Y-69857001I0J500000D01*
G01*
X79204491Y-54486995D02*
G75*
G02X78771500Y-54737001I-432969J249912D01*
G01*
X123103500Y-54737001D02*
G75*
G02X122670503Y-54486984I-22J499918D01*
G01*
X146347500Y-70357001D02*
X131727500Y-70357001D01*
X41104492Y-54486995D02*
G75*
G02X40671501Y-54737001I-432969J249912D01*
G01*
X136787500Y-54237001D02*
X141287500Y-54237001D01*
X55027501Y-69857001D02*
X55027501Y-55237001D01*
X161203500Y-54737001D02*
X165397500Y-54737001D01*
X51097501Y-70357001D02*
X36477501Y-70357001D01*
X93127500Y-69857001D02*
X93127500Y-55237001D01*
X104053500Y-54737001D02*
X108247500Y-54737001D01*
X70147500Y-54737001D02*
G75*
G02X70647500Y-55237001I0J-500000D01*
G01*
X98687500Y-54237001D02*
X103187500Y-54237001D01*
X155404490Y-54486995D02*
G75*
G02X155837500Y-54237001I433010J-250006D01*
G01*
X74577500Y-54737001D02*
X78771500Y-54737001D01*
X89197500Y-70357001D02*
X74577500Y-70357001D01*
X84137499Y-54237001D02*
G75*
G02X84570503Y-54486984I1J-500000D01*
G01*
X117304491Y-54486995D02*
G75*
G02X116871500Y-54737001I-432969J249912D01*
G01*
X74577500Y-70357001D02*
G75*
G02X74077500Y-69857001I0J500000D01*
G01*
X112677500Y-54737001D02*
X116871500Y-54737001D01*
X108247500Y-70357001D02*
X93627500Y-70357001D01*
X79637500Y-54237001D02*
X84137500Y-54237001D01*
X55527501Y-70357001D02*
G75*
G02X55027501Y-69857001I0J500000D01*
G01*
X93627500Y-54737001D02*
X97821500Y-54737001D01*
X108247500Y-54737001D02*
G75*
G02X108747500Y-55237001I0J-500000D01*
G01*
X65087499Y-54237001D02*
G75*
G02X65520503Y-54486984I1J-500000D01*
G01*
X89697500Y-69857001D02*
G75*
G02X89197500Y-70357001I-500000J0D01*
G01*
X60587500Y-54237001D02*
X65087500Y-54237001D01*
X74077500Y-69857001D02*
X74077500Y-55237001D01*
X89697500Y-55237001D02*
X89697500Y-69857001D01*
X65953500Y-54737001D02*
G75*
G02X65520503Y-54486984I-22J499918D01*
G01*
X112177500Y-55237001D02*
G75*
G02X112677500Y-54737001I500000J0D01*
G01*
X79204490Y-54486995D02*
G75*
G02X79637500Y-54237001I433010J-250006D01*
G01*
X112677500Y-70357001D02*
G75*
G02X112177500Y-69857001I0J500000D01*
G01*
X112177500Y-69857001D02*
X112177500Y-55237001D01*
X35977501Y-69857001D02*
X35977501Y-55237001D01*
X70647500Y-69857001D02*
G75*
G02X70147500Y-70357001I-500000J0D01*
G01*
X74077500Y-55237001D02*
G75*
G02X74577500Y-54737001I500000J0D01*
G01*
X51597501Y-55237001D02*
X51597501Y-69857001D01*
X36477501Y-54737001D02*
X40671501Y-54737001D01*
X127797500Y-69857001D02*
G75*
G02X127297500Y-70357001I-500000J0D01*
G01*
X22225000Y-54237001D02*
G75*
G02X22658004Y-54486984I1J-500000D01*
G01*
X207991640Y-111387000D02*
X203491640Y-111387000D01*
X213551640Y-127007000D02*
G75*
G02X213051640Y-127507000I-500000J0D01*
G01*
X207991639Y-111387000D02*
G75*
G02X208424649Y-111636994I1J-500000D01*
G01*
X155574999Y-92337000D02*
G75*
G02X156008003Y-92586983I1J-500000D01*
G01*
X213051640Y-111887000D02*
X208857640Y-111887000D01*
X195030500Y-116842482D02*
G75*
G02X197931640Y-116965645I1332000J-2854518D01*
G01*
X203058637Y-111636983D02*
G75*
G02X202625640Y-111887000I-432975J249901D01*
G01*
X202625640Y-111887000D02*
X198431640Y-111887000D01*
X197931640Y-122428355D02*
X197931640Y-127007000D01*
X7902501Y-35687001D02*
X12096501Y-35687001D01*
X197931640Y-112387000D02*
X197931640Y-116965645D01*
X193830500Y-120363000D02*
X182130500Y-120363000D01*
X208857639Y-111887000D02*
G75*
G02X208424649Y-111636994I-21J499918D01*
G01*
X156441000Y-92837000D02*
X160635000Y-92837000D01*
X213551640Y-127007000D02*
X213551640Y-112387000D01*
X197931640Y-112387000D02*
G75*
G02X198431640Y-111887000I500000J0D01*
G01*
X182130500Y-114013000D02*
X193830500Y-114013000D01*
X93491991Y-92586994D02*
G75*
G02X93059000Y-92837000I-432969J249912D01*
G01*
X156441000Y-92837000D02*
G75*
G02X156008003Y-92586983I-22J499918D01*
G01*
X181630500Y-119863000D02*
X181630500Y-114513000D01*
X203058637Y-111636984D02*
G75*
G02X203491640Y-111387000I433003J-250016D01*
G01*
X198431640Y-127507000D02*
X213051640Y-127507000D01*
X160635000Y-92837000D02*
G75*
G02X161135000Y-93337000I0J-500000D01*
G01*
M02*
