G04 #@! TF.GenerationSoftware,KiCad,Pcbnew,(5.1.5)-3*
G04 #@! TF.CreationDate,2020-04-24T20:35:25-04:00*
G04 #@! TF.ProjectId,plate,706c6174-652e-46b6-9963-61645f706362,rev?*
G04 #@! TF.SameCoordinates,Original*
G04 #@! TF.FileFunction,Soldermask,Bot*
G04 #@! TF.FilePolarity,Negative*
%FSLAX46Y46*%
G04 Gerber Fmt 4.6, Leading zero omitted, Abs format (unit mm)*
G04 Created by KiCad (PCBNEW (5.1.5)-3) date 2020-04-24 20:35:25*
%MOMM*%
%LPD*%
G04 APERTURE LIST*
%ADD10C,0.150000*%
G04 APERTURE END LIST*
D10*
G36*
X15476000Y-105476000D02*
G01*
X15450940Y-105476000D01*
X15426554Y-105478402D01*
X15403105Y-105485515D01*
X15381494Y-105497066D01*
X15362552Y-105512611D01*
X15347007Y-105531553D01*
X15335456Y-105553164D01*
X15328343Y-105576613D01*
X15325941Y-105600999D01*
X15328343Y-105625385D01*
X15335456Y-105648834D01*
X15347007Y-105670445D01*
X15362552Y-105689387D01*
X15369733Y-105696568D01*
X15421826Y-105774530D01*
X15421826Y-105774531D01*
X15457708Y-105861157D01*
X15476000Y-105953117D01*
X15476000Y-106046883D01*
X15457708Y-106138843D01*
X15436689Y-106189588D01*
X15421826Y-106225470D01*
X15369733Y-106303432D01*
X15303432Y-106369733D01*
X15225470Y-106421826D01*
X15189588Y-106436689D01*
X15138843Y-106457708D01*
X15046883Y-106476000D01*
X14953117Y-106476000D01*
X14861157Y-106457708D01*
X14810412Y-106436689D01*
X14774530Y-106421826D01*
X14696568Y-106369733D01*
X14630267Y-106303432D01*
X14578174Y-106225470D01*
X14563311Y-106189588D01*
X14542292Y-106138843D01*
X14524000Y-106046883D01*
X14524000Y-105953117D01*
X14542292Y-105861157D01*
X14578174Y-105774531D01*
X14578174Y-105774530D01*
X14630267Y-105696568D01*
X14637448Y-105689387D01*
X14652993Y-105670445D01*
X14664544Y-105648834D01*
X14671657Y-105625385D01*
X14674059Y-105600999D01*
X14671657Y-105576613D01*
X14664544Y-105553164D01*
X14652993Y-105531553D01*
X14637448Y-105512611D01*
X14618506Y-105497066D01*
X14596895Y-105485515D01*
X14573446Y-105478402D01*
X14549060Y-105476000D01*
X14524000Y-105476000D01*
X14524000Y-104524000D01*
X15476000Y-104524000D01*
X15476000Y-105476000D01*
G37*
M02*
