G04 #@! TF.GenerationSoftware,KiCad,Pcbnew,(5.1.5)-3*
G04 #@! TF.CreationDate,2020-04-19T20:31:16-04:00*
G04 #@! TF.ProjectId,Squid60,53717569-6436-4302-9e6b-696361645f70,rev?*
G04 #@! TF.SameCoordinates,Original*
G04 #@! TF.FileFunction,Legend,Bot*
G04 #@! TF.FilePolarity,Positive*
%FSLAX46Y46*%
G04 Gerber Fmt 4.6, Leading zero omitted, Abs format (unit mm)*
G04 Created by KiCad (PCBNEW (5.1.5)-3) date 2020-04-19 20:31:16*
%MOMM*%
%LPD*%
G04 APERTURE LIST*
%ADD10C,0.500000*%
%ADD11C,0.120000*%
%ADD12C,0.150000*%
G04 APERTURE END LIST*
D10*
X124360814Y-109040442D02*
X124360814Y-106040442D01*
X123646528Y-106040442D01*
X123217957Y-106183300D01*
X122932242Y-106469014D01*
X122789385Y-106754728D01*
X122646528Y-107326157D01*
X122646528Y-107754728D01*
X122789385Y-108326157D01*
X122932242Y-108611871D01*
X123217957Y-108897585D01*
X123646528Y-109040442D01*
X124360814Y-109040442D01*
X120217957Y-108897585D02*
X120503671Y-109040442D01*
X121075100Y-109040442D01*
X121360814Y-108897585D01*
X121503671Y-108611871D01*
X121503671Y-107469014D01*
X121360814Y-107183300D01*
X121075100Y-107040442D01*
X120503671Y-107040442D01*
X120217957Y-107183300D01*
X120075100Y-107469014D01*
X120075100Y-107754728D01*
X121503671Y-108040442D01*
X118932242Y-108897585D02*
X118646528Y-109040442D01*
X118075100Y-109040442D01*
X117789385Y-108897585D01*
X117646528Y-108611871D01*
X117646528Y-108469014D01*
X117789385Y-108183300D01*
X118075100Y-108040442D01*
X118503671Y-108040442D01*
X118789385Y-107897585D01*
X118932242Y-107611871D01*
X118932242Y-107469014D01*
X118789385Y-107183300D01*
X118503671Y-107040442D01*
X118075100Y-107040442D01*
X117789385Y-107183300D01*
X116360814Y-109040442D02*
X116360814Y-107040442D01*
X116360814Y-106040442D02*
X116503671Y-106183300D01*
X116360814Y-106326157D01*
X116217957Y-106183300D01*
X116360814Y-106040442D01*
X116360814Y-106326157D01*
X113646528Y-107040442D02*
X113646528Y-109469014D01*
X113789385Y-109754728D01*
X113932242Y-109897585D01*
X114217957Y-110040442D01*
X114646528Y-110040442D01*
X114932242Y-109897585D01*
X113646528Y-108897585D02*
X113932242Y-109040442D01*
X114503671Y-109040442D01*
X114789385Y-108897585D01*
X114932242Y-108754728D01*
X115075100Y-108469014D01*
X115075100Y-107611871D01*
X114932242Y-107326157D01*
X114789385Y-107183300D01*
X114503671Y-107040442D01*
X113932242Y-107040442D01*
X113646528Y-107183300D01*
X112217957Y-107040442D02*
X112217957Y-109040442D01*
X112217957Y-107326157D02*
X112075100Y-107183300D01*
X111789385Y-107040442D01*
X111360814Y-107040442D01*
X111075100Y-107183300D01*
X110932242Y-107469014D01*
X110932242Y-109040442D01*
X108360814Y-108897585D02*
X108646528Y-109040442D01*
X109217957Y-109040442D01*
X109503671Y-108897585D01*
X109646528Y-108611871D01*
X109646528Y-107469014D01*
X109503671Y-107183300D01*
X109217957Y-107040442D01*
X108646528Y-107040442D01*
X108360814Y-107183300D01*
X108217957Y-107469014D01*
X108217957Y-107754728D01*
X109646528Y-108040442D01*
X105646528Y-109040442D02*
X105646528Y-106040442D01*
X105646528Y-108897585D02*
X105932242Y-109040442D01*
X106503671Y-109040442D01*
X106789385Y-108897585D01*
X106932242Y-108754728D01*
X107075100Y-108469014D01*
X107075100Y-107611871D01*
X106932242Y-107326157D01*
X106789385Y-107183300D01*
X106503671Y-107040442D01*
X105932242Y-107040442D01*
X105646528Y-107183300D01*
X101932242Y-109040442D02*
X101932242Y-106040442D01*
X101932242Y-107183300D02*
X101646528Y-107040442D01*
X101075100Y-107040442D01*
X100789385Y-107183300D01*
X100646528Y-107326157D01*
X100503671Y-107611871D01*
X100503671Y-108469014D01*
X100646528Y-108754728D01*
X100789385Y-108897585D01*
X101075100Y-109040442D01*
X101646528Y-109040442D01*
X101932242Y-108897585D01*
X99503671Y-107040442D02*
X98789385Y-109040442D01*
X98075100Y-107040442D02*
X98789385Y-109040442D01*
X99075100Y-109754728D01*
X99217957Y-109897585D01*
X99503671Y-110040442D01*
X94789385Y-108183300D02*
X93360814Y-108183300D01*
X95075100Y-109040442D02*
X94075100Y-106040442D01*
X93075100Y-109040442D01*
X91646528Y-109040442D02*
X91932242Y-108897585D01*
X92075100Y-108611871D01*
X92075100Y-106040442D01*
X89217957Y-109040442D02*
X89217957Y-107469014D01*
X89360814Y-107183300D01*
X89646528Y-107040442D01*
X90217957Y-107040442D01*
X90503671Y-107183300D01*
X89217957Y-108897585D02*
X89503671Y-109040442D01*
X90217957Y-109040442D01*
X90503671Y-108897585D01*
X90646528Y-108611871D01*
X90646528Y-108326157D01*
X90503671Y-108040442D01*
X90217957Y-107897585D01*
X89503671Y-107897585D01*
X89217957Y-107754728D01*
X87932242Y-108897585D02*
X87646528Y-109040442D01*
X87075100Y-109040442D01*
X86789385Y-108897585D01*
X86646528Y-108611871D01*
X86646528Y-108469014D01*
X86789385Y-108183300D01*
X87075100Y-108040442D01*
X87503671Y-108040442D01*
X87789385Y-107897585D01*
X87932242Y-107611871D01*
X87932242Y-107469014D01*
X87789385Y-107183300D01*
X87503671Y-107040442D01*
X87075100Y-107040442D01*
X86789385Y-107183300D01*
D11*
X61608900Y-81709900D02*
X57608900Y-81709900D01*
X61608900Y-78409900D02*
X61608900Y-81709900D01*
X29189000Y-29304064D02*
X29189000Y-28099936D01*
X31009000Y-29304064D02*
X31009000Y-28099936D01*
X52399000Y-89481922D02*
X52399000Y-89999078D01*
X50979000Y-89481922D02*
X50979000Y-89999078D01*
X39651678Y-89978300D02*
X39134522Y-89978300D01*
X39651678Y-88558300D02*
X39134522Y-88558300D01*
X50316200Y-74445122D02*
X50316200Y-74962278D01*
X48896200Y-74445122D02*
X48896200Y-74962278D01*
X41270422Y-73331000D02*
X41787578Y-73331000D01*
X41270422Y-74751000D02*
X41787578Y-74751000D01*
X46589422Y-72823000D02*
X47106578Y-72823000D01*
X46589422Y-74243000D02*
X47106578Y-74243000D01*
X57059900Y-79791822D02*
X57059900Y-80308978D01*
X55639900Y-79791822D02*
X55639900Y-80308978D01*
X62116900Y-80278978D02*
X62116900Y-79761822D01*
X63536900Y-80278978D02*
X63536900Y-79761822D01*
X33326000Y-22786078D02*
X33326000Y-22268922D01*
X34746000Y-22786078D02*
X34746000Y-22268922D01*
X18340000Y-22913078D02*
X18340000Y-22395922D01*
X19760000Y-22913078D02*
X19760000Y-22395922D01*
X28650000Y-32977828D02*
X28650000Y-32460672D01*
X27230000Y-32977828D02*
X27230000Y-32460672D01*
X25538500Y-32992828D02*
X25538500Y-32475672D01*
X24118500Y-32992828D02*
X24118500Y-32475672D01*
X40717400Y-92293178D02*
X40717400Y-91776022D01*
X42137400Y-92293178D02*
X42137400Y-91776022D01*
X52804322Y-77064800D02*
X53321478Y-77064800D01*
X52804322Y-78484800D02*
X53321478Y-78484800D01*
D12*
X41431250Y-78168750D02*
X41431250Y-76893750D01*
X40856250Y-88518750D02*
X40856250Y-87843750D01*
X51206250Y-88518750D02*
X51206250Y-87843750D01*
X51206250Y-78168750D02*
X51206250Y-78843750D01*
X40856250Y-78168750D02*
X40856250Y-78843750D01*
X51206250Y-78168750D02*
X50531250Y-78168750D01*
X51206250Y-88518750D02*
X50531250Y-88518750D01*
X40856250Y-88518750D02*
X41531250Y-88518750D01*
X40856250Y-78168750D02*
X41431250Y-78168750D01*
X25750000Y-27281250D02*
X25750000Y-30181250D01*
X25750000Y-27281250D02*
X27050000Y-27281250D01*
X27050000Y-27281250D02*
X27050000Y-30181250D01*
X27050000Y-30181250D02*
X25750000Y-30181250D01*
D11*
X286337500Y-100081250D02*
X288337500Y-100081250D01*
X288337500Y-100081250D02*
X288337500Y-103981250D01*
X286337500Y-100081250D02*
X286337500Y-103981250D01*
X262525000Y-100081250D02*
X264525000Y-100081250D01*
X264525000Y-100081250D02*
X264525000Y-103981250D01*
X262525000Y-100081250D02*
X262525000Y-103981250D01*
X240300000Y-100143750D02*
X242300000Y-100143750D01*
X242300000Y-100143750D02*
X242300000Y-104043750D01*
X240300000Y-100143750D02*
X240300000Y-104043750D01*
X158543750Y-100143750D02*
X160543750Y-100143750D01*
X160543750Y-100143750D02*
X160543750Y-104043750D01*
X158543750Y-100143750D02*
X158543750Y-104043750D01*
X76787500Y-100143750D02*
X78787500Y-100143750D01*
X78787500Y-100143750D02*
X78787500Y-104043750D01*
X76787500Y-100143750D02*
X76787500Y-104043750D01*
X52975000Y-100143750D02*
X54975000Y-100143750D01*
X54975000Y-100143750D02*
X54975000Y-104043750D01*
X52975000Y-100143750D02*
X52975000Y-104043750D01*
X29956250Y-100143750D02*
X31956250Y-100143750D01*
X31956250Y-100143750D02*
X31956250Y-104043750D01*
X29956250Y-100143750D02*
X29956250Y-104043750D01*
X243887500Y-94325000D02*
X241887500Y-94325000D01*
X241887500Y-94325000D02*
X241887500Y-90425000D01*
X243887500Y-94325000D02*
X243887500Y-90425000D01*
X240712500Y-94325000D02*
X238712500Y-94325000D01*
X238712500Y-94325000D02*
X238712500Y-90425000D01*
X240712500Y-94325000D02*
X240712500Y-90425000D01*
X221662500Y-94325000D02*
X219662500Y-94325000D01*
X219662500Y-94325000D02*
X219662500Y-90425000D01*
X221662500Y-94325000D02*
X221662500Y-90425000D01*
X202612500Y-94325000D02*
X200612500Y-94325000D01*
X200612500Y-94325000D02*
X200612500Y-90425000D01*
X202612500Y-94325000D02*
X202612500Y-90425000D01*
X183562500Y-94325000D02*
X181562500Y-94325000D01*
X181562500Y-94325000D02*
X181562500Y-90425000D01*
X183562500Y-94325000D02*
X183562500Y-90425000D01*
X164512500Y-94325000D02*
X162512500Y-94325000D01*
X162512500Y-94325000D02*
X162512500Y-90425000D01*
X164512500Y-94325000D02*
X164512500Y-90425000D01*
X145462500Y-94325000D02*
X143462500Y-94325000D01*
X143462500Y-94325000D02*
X143462500Y-90425000D01*
X145462500Y-94325000D02*
X145462500Y-90425000D01*
X126412500Y-94325000D02*
X124412500Y-94325000D01*
X124412500Y-94325000D02*
X124412500Y-90425000D01*
X126412500Y-94325000D02*
X126412500Y-90425000D01*
X107362500Y-94325000D02*
X105362500Y-94325000D01*
X105362500Y-94325000D02*
X105362500Y-90425000D01*
X107362500Y-94325000D02*
X107362500Y-90425000D01*
X88312500Y-94325000D02*
X86312500Y-94325000D01*
X86312500Y-94325000D02*
X86312500Y-90425000D01*
X88312500Y-94325000D02*
X88312500Y-90425000D01*
X69262500Y-94325000D02*
X67262500Y-94325000D01*
X67262500Y-94325000D02*
X67262500Y-90425000D01*
X69262500Y-94325000D02*
X69262500Y-90425000D01*
X37512500Y-94325000D02*
X35512500Y-94325000D01*
X35512500Y-94325000D02*
X35512500Y-90425000D01*
X37512500Y-94325000D02*
X37512500Y-90425000D01*
X253412500Y-75275000D02*
X251412500Y-75275000D01*
X251412500Y-75275000D02*
X251412500Y-71375000D01*
X253412500Y-75275000D02*
X253412500Y-71375000D01*
X250237500Y-75275000D02*
X248237500Y-75275000D01*
X248237500Y-75275000D02*
X248237500Y-71375000D01*
X250237500Y-75275000D02*
X250237500Y-71375000D01*
X231187500Y-75275000D02*
X229187500Y-75275000D01*
X229187500Y-75275000D02*
X229187500Y-71375000D01*
X231187500Y-75275000D02*
X231187500Y-71375000D01*
X212137500Y-75275000D02*
X210137500Y-75275000D01*
X210137500Y-75275000D02*
X210137500Y-71375000D01*
X212137500Y-75275000D02*
X212137500Y-71375000D01*
X193087500Y-75275000D02*
X191087500Y-75275000D01*
X191087500Y-75275000D02*
X191087500Y-71375000D01*
X193087500Y-75275000D02*
X193087500Y-71375000D01*
X174037500Y-75275000D02*
X172037500Y-75275000D01*
X172037500Y-75275000D02*
X172037500Y-71375000D01*
X174037500Y-75275000D02*
X174037500Y-71375000D01*
X154987500Y-75275000D02*
X152987500Y-75275000D01*
X152987500Y-75275000D02*
X152987500Y-71375000D01*
X154987500Y-75275000D02*
X154987500Y-71375000D01*
X135937500Y-75275000D02*
X133937500Y-75275000D01*
X133937500Y-75275000D02*
X133937500Y-71375000D01*
X135937500Y-75275000D02*
X135937500Y-71375000D01*
X116887500Y-75275000D02*
X114887500Y-75275000D01*
X114887500Y-75275000D02*
X114887500Y-71375000D01*
X116887500Y-75275000D02*
X116887500Y-71375000D01*
X97837500Y-75275000D02*
X95837500Y-75275000D01*
X95837500Y-75275000D02*
X95837500Y-71375000D01*
X97837500Y-75275000D02*
X97837500Y-71375000D01*
X78787500Y-75275000D02*
X76787500Y-75275000D01*
X76787500Y-75275000D02*
X76787500Y-71375000D01*
X78787500Y-75275000D02*
X78787500Y-71375000D01*
X59737500Y-75275000D02*
X57737500Y-75275000D01*
X57737500Y-75275000D02*
X57737500Y-71375000D01*
X59737500Y-75275000D02*
X59737500Y-71375000D01*
X35925000Y-75275000D02*
X33925000Y-75275000D01*
X33925000Y-75275000D02*
X33925000Y-71375000D01*
X35925000Y-75275000D02*
X35925000Y-71375000D01*
X267700000Y-56225000D02*
X265700000Y-56225000D01*
X265700000Y-56225000D02*
X265700000Y-52325000D01*
X267700000Y-56225000D02*
X267700000Y-52325000D01*
X264525000Y-56225000D02*
X262525000Y-56225000D01*
X262525000Y-56225000D02*
X262525000Y-52325000D01*
X264525000Y-56225000D02*
X264525000Y-52325000D01*
X245475000Y-56225000D02*
X243475000Y-56225000D01*
X243475000Y-56225000D02*
X243475000Y-52325000D01*
X245475000Y-56225000D02*
X245475000Y-52325000D01*
X226425000Y-56225000D02*
X224425000Y-56225000D01*
X224425000Y-56225000D02*
X224425000Y-52325000D01*
X226425000Y-56225000D02*
X226425000Y-52325000D01*
X207375000Y-56225000D02*
X205375000Y-56225000D01*
X205375000Y-56225000D02*
X205375000Y-52325000D01*
X207375000Y-56225000D02*
X207375000Y-52325000D01*
X188325000Y-56225000D02*
X186325000Y-56225000D01*
X186325000Y-56225000D02*
X186325000Y-52325000D01*
X188325000Y-56225000D02*
X188325000Y-52325000D01*
X169275000Y-56225000D02*
X167275000Y-56225000D01*
X167275000Y-56225000D02*
X167275000Y-52325000D01*
X169275000Y-56225000D02*
X169275000Y-52325000D01*
X150225000Y-56225000D02*
X148225000Y-56225000D01*
X148225000Y-56225000D02*
X148225000Y-52325000D01*
X150225000Y-56225000D02*
X150225000Y-52325000D01*
X131175000Y-56225000D02*
X129175000Y-56225000D01*
X129175000Y-56225000D02*
X129175000Y-52325000D01*
X131175000Y-56225000D02*
X131175000Y-52325000D01*
X112125000Y-56225000D02*
X110125000Y-56225000D01*
X110125000Y-56225000D02*
X110125000Y-52325000D01*
X112125000Y-56225000D02*
X112125000Y-52325000D01*
X93075000Y-56225000D02*
X91075000Y-56225000D01*
X91075000Y-56225000D02*
X91075000Y-52325000D01*
X93075000Y-56225000D02*
X93075000Y-52325000D01*
X74025000Y-56225000D02*
X72025000Y-56225000D01*
X72025000Y-56225000D02*
X72025000Y-52325000D01*
X74025000Y-56225000D02*
X74025000Y-52325000D01*
X54975000Y-56225000D02*
X52975000Y-56225000D01*
X52975000Y-56225000D02*
X52975000Y-52325000D01*
X54975000Y-56225000D02*
X54975000Y-52325000D01*
X30496000Y-55154000D02*
X32496000Y-55154000D01*
X32496000Y-55154000D02*
X32496000Y-59054000D01*
X30496000Y-55154000D02*
X30496000Y-59054000D01*
X258968750Y-37175000D02*
X256968750Y-37175000D01*
X256968750Y-37175000D02*
X256968750Y-33275000D01*
X258968750Y-37175000D02*
X258968750Y-33275000D01*
X255000000Y-37175000D02*
X253000000Y-37175000D01*
X253000000Y-37175000D02*
X253000000Y-33275000D01*
X255000000Y-37175000D02*
X255000000Y-33275000D01*
X238998000Y-37175000D02*
X236998000Y-37175000D01*
X236998000Y-37175000D02*
X236998000Y-33275000D01*
X238998000Y-37175000D02*
X238998000Y-33275000D01*
X235950000Y-37175000D02*
X233950000Y-37175000D01*
X233950000Y-37175000D02*
X233950000Y-33275000D01*
X235950000Y-37175000D02*
X235950000Y-33275000D01*
X216900000Y-37175000D02*
X214900000Y-37175000D01*
X214900000Y-37175000D02*
X214900000Y-33275000D01*
X216900000Y-37175000D02*
X216900000Y-33275000D01*
X197850000Y-37175000D02*
X195850000Y-37175000D01*
X195850000Y-37175000D02*
X195850000Y-33275000D01*
X197850000Y-37175000D02*
X197850000Y-33275000D01*
X178800000Y-37175000D02*
X176800000Y-37175000D01*
X176800000Y-37175000D02*
X176800000Y-33275000D01*
X178800000Y-37175000D02*
X178800000Y-33275000D01*
X159750000Y-37175000D02*
X157750000Y-37175000D01*
X157750000Y-37175000D02*
X157750000Y-33275000D01*
X159750000Y-37175000D02*
X159750000Y-33275000D01*
X140700000Y-37175000D02*
X138700000Y-37175000D01*
X138700000Y-37175000D02*
X138700000Y-33275000D01*
X140700000Y-37175000D02*
X140700000Y-33275000D01*
X121650000Y-37175000D02*
X119650000Y-37175000D01*
X119650000Y-37175000D02*
X119650000Y-33275000D01*
X121650000Y-37175000D02*
X121650000Y-33275000D01*
X102600000Y-37112500D02*
X100600000Y-37112500D01*
X100600000Y-37112500D02*
X100600000Y-33212500D01*
X102600000Y-37112500D02*
X102600000Y-33212500D01*
X83550000Y-37112500D02*
X81550000Y-37112500D01*
X81550000Y-37112500D02*
X81550000Y-33212500D01*
X83550000Y-37112500D02*
X83550000Y-33212500D01*
X64500000Y-37112500D02*
X62500000Y-37112500D01*
X62500000Y-37112500D02*
X62500000Y-33212500D01*
X64500000Y-37112500D02*
X64500000Y-33212500D01*
X45450000Y-37112500D02*
X43450000Y-37112500D01*
X43450000Y-37112500D02*
X43450000Y-33212500D01*
X45450000Y-37112500D02*
X45450000Y-33212500D01*
X22812500Y-35850000D02*
X24812500Y-35850000D01*
X24812500Y-35850000D02*
X24812500Y-39750000D01*
X22812500Y-35850000D02*
X22812500Y-39750000D01*
D12*
X60085090Y-77586090D02*
X60085090Y-78062280D01*
X60418423Y-77062280D02*
X60085090Y-77586090D01*
X59751757Y-77062280D01*
X58894614Y-78062280D02*
X59466042Y-78062280D01*
X59180328Y-78062280D02*
X59180328Y-77062280D01*
X59275566Y-77205138D01*
X59370804Y-77300376D01*
X59466042Y-77347995D01*
X31847571Y-28368666D02*
X31847571Y-28035333D01*
X32371380Y-28035333D02*
X31371380Y-28035333D01*
X31371380Y-28511523D01*
X32371380Y-29416285D02*
X32371380Y-28844857D01*
X32371380Y-29130571D02*
X31371380Y-29130571D01*
X31514238Y-29035333D01*
X31609476Y-28940095D01*
X31657095Y-28844857D01*
X50396142Y-89573833D02*
X50443761Y-89526214D01*
X50491380Y-89383357D01*
X50491380Y-89288119D01*
X50443761Y-89145261D01*
X50348523Y-89050023D01*
X50253285Y-89002404D01*
X50062809Y-88954785D01*
X49919952Y-88954785D01*
X49729476Y-89002404D01*
X49634238Y-89050023D01*
X49539000Y-89145261D01*
X49491380Y-89288119D01*
X49491380Y-89383357D01*
X49539000Y-89526214D01*
X49586619Y-89573833D01*
X49491380Y-89907166D02*
X49491380Y-90573833D01*
X50491380Y-90145261D01*
X39559766Y-87975442D02*
X39607385Y-88023061D01*
X39750242Y-88070680D01*
X39845480Y-88070680D01*
X39988338Y-88023061D01*
X40083576Y-87927823D01*
X40131195Y-87832585D01*
X40178814Y-87642109D01*
X40178814Y-87499252D01*
X40131195Y-87308776D01*
X40083576Y-87213538D01*
X39988338Y-87118300D01*
X39845480Y-87070680D01*
X39750242Y-87070680D01*
X39607385Y-87118300D01*
X39559766Y-87165919D01*
X38702623Y-87070680D02*
X38893100Y-87070680D01*
X38988338Y-87118300D01*
X39035957Y-87165919D01*
X39131195Y-87308776D01*
X39178814Y-87499252D01*
X39178814Y-87880204D01*
X39131195Y-87975442D01*
X39083576Y-88023061D01*
X38988338Y-88070680D01*
X38797861Y-88070680D01*
X38702623Y-88023061D01*
X38655004Y-87975442D01*
X38607385Y-87880204D01*
X38607385Y-87642109D01*
X38655004Y-87546871D01*
X38702623Y-87499252D01*
X38797861Y-87451633D01*
X38988338Y-87451633D01*
X39083576Y-87499252D01*
X39131195Y-87546871D01*
X39178814Y-87642109D01*
X48313342Y-74537033D02*
X48360961Y-74489414D01*
X48408580Y-74346557D01*
X48408580Y-74251319D01*
X48360961Y-74108461D01*
X48265723Y-74013223D01*
X48170485Y-73965604D01*
X47980009Y-73917985D01*
X47837152Y-73917985D01*
X47646676Y-73965604D01*
X47551438Y-74013223D01*
X47456200Y-74108461D01*
X47408580Y-74251319D01*
X47408580Y-74346557D01*
X47456200Y-74489414D01*
X47503819Y-74537033D01*
X47408580Y-75441795D02*
X47408580Y-74965604D01*
X47884771Y-74917985D01*
X47837152Y-74965604D01*
X47789533Y-75060842D01*
X47789533Y-75298938D01*
X47837152Y-75394176D01*
X47884771Y-75441795D01*
X47980009Y-75489414D01*
X48218104Y-75489414D01*
X48313342Y-75441795D01*
X48360961Y-75394176D01*
X48408580Y-75298938D01*
X48408580Y-75060842D01*
X48360961Y-74965604D01*
X48313342Y-74917985D01*
X41695666Y-76048142D02*
X41743285Y-76095761D01*
X41886142Y-76143380D01*
X41981380Y-76143380D01*
X42124238Y-76095761D01*
X42219476Y-76000523D01*
X42267095Y-75905285D01*
X42314714Y-75714809D01*
X42314714Y-75571952D01*
X42267095Y-75381476D01*
X42219476Y-75286238D01*
X42124238Y-75191000D01*
X41981380Y-75143380D01*
X41886142Y-75143380D01*
X41743285Y-75191000D01*
X41695666Y-75238619D01*
X40838523Y-75476714D02*
X40838523Y-76143380D01*
X41076619Y-75095761D02*
X41314714Y-75810047D01*
X40695666Y-75810047D01*
X47014666Y-75540142D02*
X47062285Y-75587761D01*
X47205142Y-75635380D01*
X47300380Y-75635380D01*
X47443238Y-75587761D01*
X47538476Y-75492523D01*
X47586095Y-75397285D01*
X47633714Y-75206809D01*
X47633714Y-75063952D01*
X47586095Y-74873476D01*
X47538476Y-74778238D01*
X47443238Y-74683000D01*
X47300380Y-74635380D01*
X47205142Y-74635380D01*
X47062285Y-74683000D01*
X47014666Y-74730619D01*
X46681333Y-74635380D02*
X46062285Y-74635380D01*
X46395619Y-75016333D01*
X46252761Y-75016333D01*
X46157523Y-75063952D01*
X46109904Y-75111571D01*
X46062285Y-75206809D01*
X46062285Y-75444904D01*
X46109904Y-75540142D01*
X46157523Y-75587761D01*
X46252761Y-75635380D01*
X46538476Y-75635380D01*
X46633714Y-75587761D01*
X46681333Y-75540142D01*
X55057042Y-79883733D02*
X55104661Y-79836114D01*
X55152280Y-79693257D01*
X55152280Y-79598019D01*
X55104661Y-79455161D01*
X55009423Y-79359923D01*
X54914185Y-79312304D01*
X54723709Y-79264685D01*
X54580852Y-79264685D01*
X54390376Y-79312304D01*
X54295138Y-79359923D01*
X54199900Y-79455161D01*
X54152280Y-79598019D01*
X54152280Y-79693257D01*
X54199900Y-79836114D01*
X54247519Y-79883733D01*
X54247519Y-80264685D02*
X54199900Y-80312304D01*
X54152280Y-80407542D01*
X54152280Y-80645638D01*
X54199900Y-80740876D01*
X54247519Y-80788495D01*
X54342757Y-80836114D01*
X54437995Y-80836114D01*
X54580852Y-80788495D01*
X55152280Y-80217066D01*
X55152280Y-80836114D01*
X64834042Y-79853733D02*
X64881661Y-79806114D01*
X64929280Y-79663257D01*
X64929280Y-79568019D01*
X64881661Y-79425161D01*
X64786423Y-79329923D01*
X64691185Y-79282304D01*
X64500709Y-79234685D01*
X64357852Y-79234685D01*
X64167376Y-79282304D01*
X64072138Y-79329923D01*
X63976900Y-79425161D01*
X63929280Y-79568019D01*
X63929280Y-79663257D01*
X63976900Y-79806114D01*
X64024519Y-79853733D01*
X64929280Y-80806114D02*
X64929280Y-80234685D01*
X64929280Y-80520400D02*
X63929280Y-80520400D01*
X64072138Y-80425161D01*
X64167376Y-80329923D01*
X64214995Y-80234685D01*
X36138380Y-22360833D02*
X35662190Y-22027500D01*
X36138380Y-21789404D02*
X35138380Y-21789404D01*
X35138380Y-22170357D01*
X35186000Y-22265595D01*
X35233619Y-22313214D01*
X35328857Y-22360833D01*
X35471714Y-22360833D01*
X35566952Y-22313214D01*
X35614571Y-22265595D01*
X35662190Y-22170357D01*
X35662190Y-21789404D01*
X35138380Y-23217976D02*
X35138380Y-23027500D01*
X35186000Y-22932261D01*
X35233619Y-22884642D01*
X35376476Y-22789404D01*
X35566952Y-22741785D01*
X35947904Y-22741785D01*
X36043142Y-22789404D01*
X36090761Y-22837023D01*
X36138380Y-22932261D01*
X36138380Y-23122738D01*
X36090761Y-23217976D01*
X36043142Y-23265595D01*
X35947904Y-23313214D01*
X35709809Y-23313214D01*
X35614571Y-23265595D01*
X35566952Y-23217976D01*
X35519333Y-23122738D01*
X35519333Y-22932261D01*
X35566952Y-22837023D01*
X35614571Y-22789404D01*
X35709809Y-22741785D01*
X21152380Y-22487833D02*
X20676190Y-22154500D01*
X21152380Y-21916404D02*
X20152380Y-21916404D01*
X20152380Y-22297357D01*
X20200000Y-22392595D01*
X20247619Y-22440214D01*
X20342857Y-22487833D01*
X20485714Y-22487833D01*
X20580952Y-22440214D01*
X20628571Y-22392595D01*
X20676190Y-22297357D01*
X20676190Y-21916404D01*
X20152380Y-23392595D02*
X20152380Y-22916404D01*
X20628571Y-22868785D01*
X20580952Y-22916404D01*
X20533333Y-23011642D01*
X20533333Y-23249738D01*
X20580952Y-23344976D01*
X20628571Y-23392595D01*
X20723809Y-23440214D01*
X20961904Y-23440214D01*
X21057142Y-23392595D01*
X21104761Y-23344976D01*
X21152380Y-23249738D01*
X21152380Y-23011642D01*
X21104761Y-22916404D01*
X21057142Y-22868785D01*
X30042380Y-32552583D02*
X29566190Y-32219250D01*
X30042380Y-31981154D02*
X29042380Y-31981154D01*
X29042380Y-32362107D01*
X29090000Y-32457345D01*
X29137619Y-32504964D01*
X29232857Y-32552583D01*
X29375714Y-32552583D01*
X29470952Y-32504964D01*
X29518571Y-32457345D01*
X29566190Y-32362107D01*
X29566190Y-31981154D01*
X29375714Y-33409726D02*
X30042380Y-33409726D01*
X28994761Y-33171630D02*
X29709047Y-32933535D01*
X29709047Y-33552583D01*
X26930880Y-32567583D02*
X26454690Y-32234250D01*
X26930880Y-31996154D02*
X25930880Y-31996154D01*
X25930880Y-32377107D01*
X25978500Y-32472345D01*
X26026119Y-32519964D01*
X26121357Y-32567583D01*
X26264214Y-32567583D01*
X26359452Y-32519964D01*
X26407071Y-32472345D01*
X26454690Y-32377107D01*
X26454690Y-31996154D01*
X25930880Y-32900916D02*
X25930880Y-33519964D01*
X26311833Y-33186630D01*
X26311833Y-33329488D01*
X26359452Y-33424726D01*
X26407071Y-33472345D01*
X26502309Y-33519964D01*
X26740404Y-33519964D01*
X26835642Y-33472345D01*
X26883261Y-33424726D01*
X26930880Y-33329488D01*
X26930880Y-33043773D01*
X26883261Y-32948535D01*
X26835642Y-32900916D01*
X43529780Y-91867933D02*
X43053590Y-91534600D01*
X43529780Y-91296504D02*
X42529780Y-91296504D01*
X42529780Y-91677457D01*
X42577400Y-91772695D01*
X42625019Y-91820314D01*
X42720257Y-91867933D01*
X42863114Y-91867933D01*
X42958352Y-91820314D01*
X43005971Y-91772695D01*
X43053590Y-91677457D01*
X43053590Y-91296504D01*
X42625019Y-92248885D02*
X42577400Y-92296504D01*
X42529780Y-92391742D01*
X42529780Y-92629838D01*
X42577400Y-92725076D01*
X42625019Y-92772695D01*
X42720257Y-92820314D01*
X42815495Y-92820314D01*
X42958352Y-92772695D01*
X43529780Y-92201266D01*
X43529780Y-92820314D01*
X53229566Y-79877180D02*
X53562900Y-79400990D01*
X53800995Y-79877180D02*
X53800995Y-78877180D01*
X53420042Y-78877180D01*
X53324804Y-78924800D01*
X53277185Y-78972419D01*
X53229566Y-79067657D01*
X53229566Y-79210514D01*
X53277185Y-79305752D01*
X53324804Y-79353371D01*
X53420042Y-79400990D01*
X53800995Y-79400990D01*
X52277185Y-79877180D02*
X52848614Y-79877180D01*
X52562900Y-79877180D02*
X52562900Y-78877180D01*
X52658138Y-79020038D01*
X52753376Y-79115276D01*
X52848614Y-79162895D01*
X38033630Y-82581845D02*
X38843154Y-82581845D01*
X38938392Y-82629464D01*
X38986011Y-82677083D01*
X39033630Y-82772321D01*
X39033630Y-82962797D01*
X38986011Y-83058035D01*
X38938392Y-83105654D01*
X38843154Y-83153273D01*
X38033630Y-83153273D01*
X39033630Y-84153273D02*
X39033630Y-83581845D01*
X39033630Y-83867559D02*
X38033630Y-83867559D01*
X38176488Y-83772321D01*
X38271726Y-83677083D01*
X38319345Y-83581845D01*
X28288195Y-25371130D02*
X28288195Y-26180654D01*
X28240576Y-26275892D01*
X28192957Y-26323511D01*
X28097719Y-26371130D01*
X27907242Y-26371130D01*
X27812004Y-26323511D01*
X27764385Y-26275892D01*
X27716766Y-26180654D01*
X27716766Y-25371130D01*
X27288195Y-26323511D02*
X27145338Y-26371130D01*
X26907242Y-26371130D01*
X26812004Y-26323511D01*
X26764385Y-26275892D01*
X26716766Y-26180654D01*
X26716766Y-26085416D01*
X26764385Y-25990178D01*
X26812004Y-25942559D01*
X26907242Y-25894940D01*
X27097719Y-25847321D01*
X27192957Y-25799702D01*
X27240576Y-25752083D01*
X27288195Y-25656845D01*
X27288195Y-25561607D01*
X27240576Y-25466369D01*
X27192957Y-25418750D01*
X27097719Y-25371130D01*
X26859623Y-25371130D01*
X26716766Y-25418750D01*
X25954861Y-25847321D02*
X25812004Y-25894940D01*
X25764385Y-25942559D01*
X25716766Y-26037797D01*
X25716766Y-26180654D01*
X25764385Y-26275892D01*
X25812004Y-26323511D01*
X25907242Y-26371130D01*
X26288195Y-26371130D01*
X26288195Y-25371130D01*
X25954861Y-25371130D01*
X25859623Y-25418750D01*
X25812004Y-25466369D01*
X25764385Y-25561607D01*
X25764385Y-25656845D01*
X25812004Y-25752083D01*
X25859623Y-25799702D01*
X25954861Y-25847321D01*
X26288195Y-25847321D01*
X24764385Y-26371130D02*
X25335814Y-26371130D01*
X25050099Y-26371130D02*
X25050099Y-25371130D01*
X25145338Y-25513988D01*
X25240576Y-25609226D01*
X25335814Y-25656845D01*
X28302380Y-27969345D02*
X29111904Y-27969345D01*
X29207142Y-28016964D01*
X29254761Y-28064583D01*
X29302380Y-28159821D01*
X29302380Y-28350297D01*
X29254761Y-28445535D01*
X29207142Y-28493154D01*
X29111904Y-28540773D01*
X28302380Y-28540773D01*
X28397619Y-28969345D02*
X28350000Y-29016964D01*
X28302380Y-29112202D01*
X28302380Y-29350297D01*
X28350000Y-29445535D01*
X28397619Y-29493154D01*
X28492857Y-29540773D01*
X28588095Y-29540773D01*
X28730952Y-29493154D01*
X29302380Y-28921726D01*
X29302380Y-29540773D01*
X285789880Y-101116964D02*
X284789880Y-101116964D01*
X284789880Y-101355059D01*
X284837500Y-101497916D01*
X284932738Y-101593154D01*
X285027976Y-101640773D01*
X285218452Y-101688392D01*
X285361309Y-101688392D01*
X285551785Y-101640773D01*
X285647023Y-101593154D01*
X285742261Y-101497916D01*
X285789880Y-101355059D01*
X285789880Y-101116964D01*
X284789880Y-102545535D02*
X284789880Y-102355059D01*
X284837500Y-102259821D01*
X284885119Y-102212202D01*
X285027976Y-102116964D01*
X285218452Y-102069345D01*
X285599404Y-102069345D01*
X285694642Y-102116964D01*
X285742261Y-102164583D01*
X285789880Y-102259821D01*
X285789880Y-102450297D01*
X285742261Y-102545535D01*
X285694642Y-102593154D01*
X285599404Y-102640773D01*
X285361309Y-102640773D01*
X285266071Y-102593154D01*
X285218452Y-102545535D01*
X285170833Y-102450297D01*
X285170833Y-102259821D01*
X285218452Y-102164583D01*
X285266071Y-102116964D01*
X285361309Y-102069345D01*
X285789880Y-103593154D02*
X285789880Y-103021726D01*
X285789880Y-103307440D02*
X284789880Y-103307440D01*
X284932738Y-103212202D01*
X285027976Y-103116964D01*
X285075595Y-103021726D01*
X261977380Y-101116964D02*
X260977380Y-101116964D01*
X260977380Y-101355059D01*
X261025000Y-101497916D01*
X261120238Y-101593154D01*
X261215476Y-101640773D01*
X261405952Y-101688392D01*
X261548809Y-101688392D01*
X261739285Y-101640773D01*
X261834523Y-101593154D01*
X261929761Y-101497916D01*
X261977380Y-101355059D01*
X261977380Y-101116964D01*
X260977380Y-102545535D02*
X260977380Y-102355059D01*
X261025000Y-102259821D01*
X261072619Y-102212202D01*
X261215476Y-102116964D01*
X261405952Y-102069345D01*
X261786904Y-102069345D01*
X261882142Y-102116964D01*
X261929761Y-102164583D01*
X261977380Y-102259821D01*
X261977380Y-102450297D01*
X261929761Y-102545535D01*
X261882142Y-102593154D01*
X261786904Y-102640773D01*
X261548809Y-102640773D01*
X261453571Y-102593154D01*
X261405952Y-102545535D01*
X261358333Y-102450297D01*
X261358333Y-102259821D01*
X261405952Y-102164583D01*
X261453571Y-102116964D01*
X261548809Y-102069345D01*
X260977380Y-103259821D02*
X260977380Y-103355059D01*
X261025000Y-103450297D01*
X261072619Y-103497916D01*
X261167857Y-103545535D01*
X261358333Y-103593154D01*
X261596428Y-103593154D01*
X261786904Y-103545535D01*
X261882142Y-103497916D01*
X261929761Y-103450297D01*
X261977380Y-103355059D01*
X261977380Y-103259821D01*
X261929761Y-103164583D01*
X261882142Y-103116964D01*
X261786904Y-103069345D01*
X261596428Y-103021726D01*
X261358333Y-103021726D01*
X261167857Y-103069345D01*
X261072619Y-103116964D01*
X261025000Y-103164583D01*
X260977380Y-103259821D01*
X239752380Y-101179464D02*
X238752380Y-101179464D01*
X238752380Y-101417559D01*
X238800000Y-101560416D01*
X238895238Y-101655654D01*
X238990476Y-101703273D01*
X239180952Y-101750892D01*
X239323809Y-101750892D01*
X239514285Y-101703273D01*
X239609523Y-101655654D01*
X239704761Y-101560416D01*
X239752380Y-101417559D01*
X239752380Y-101179464D01*
X238752380Y-102655654D02*
X238752380Y-102179464D01*
X239228571Y-102131845D01*
X239180952Y-102179464D01*
X239133333Y-102274702D01*
X239133333Y-102512797D01*
X239180952Y-102608035D01*
X239228571Y-102655654D01*
X239323809Y-102703273D01*
X239561904Y-102703273D01*
X239657142Y-102655654D01*
X239704761Y-102608035D01*
X239752380Y-102512797D01*
X239752380Y-102274702D01*
X239704761Y-102179464D01*
X239657142Y-102131845D01*
X239752380Y-103179464D02*
X239752380Y-103369940D01*
X239704761Y-103465178D01*
X239657142Y-103512797D01*
X239514285Y-103608035D01*
X239323809Y-103655654D01*
X238942857Y-103655654D01*
X238847619Y-103608035D01*
X238800000Y-103560416D01*
X238752380Y-103465178D01*
X238752380Y-103274702D01*
X238800000Y-103179464D01*
X238847619Y-103131845D01*
X238942857Y-103084226D01*
X239180952Y-103084226D01*
X239276190Y-103131845D01*
X239323809Y-103179464D01*
X239371428Y-103274702D01*
X239371428Y-103465178D01*
X239323809Y-103560416D01*
X239276190Y-103608035D01*
X239180952Y-103655654D01*
X157996130Y-101179464D02*
X156996130Y-101179464D01*
X156996130Y-101417559D01*
X157043750Y-101560416D01*
X157138988Y-101655654D01*
X157234226Y-101703273D01*
X157424702Y-101750892D01*
X157567559Y-101750892D01*
X157758035Y-101703273D01*
X157853273Y-101655654D01*
X157948511Y-101560416D01*
X157996130Y-101417559D01*
X157996130Y-101179464D01*
X156996130Y-102655654D02*
X156996130Y-102179464D01*
X157472321Y-102131845D01*
X157424702Y-102179464D01*
X157377083Y-102274702D01*
X157377083Y-102512797D01*
X157424702Y-102608035D01*
X157472321Y-102655654D01*
X157567559Y-102703273D01*
X157805654Y-102703273D01*
X157900892Y-102655654D01*
X157948511Y-102608035D01*
X157996130Y-102512797D01*
X157996130Y-102274702D01*
X157948511Y-102179464D01*
X157900892Y-102131845D01*
X157424702Y-103274702D02*
X157377083Y-103179464D01*
X157329464Y-103131845D01*
X157234226Y-103084226D01*
X157186607Y-103084226D01*
X157091369Y-103131845D01*
X157043750Y-103179464D01*
X156996130Y-103274702D01*
X156996130Y-103465178D01*
X157043750Y-103560416D01*
X157091369Y-103608035D01*
X157186607Y-103655654D01*
X157234226Y-103655654D01*
X157329464Y-103608035D01*
X157377083Y-103560416D01*
X157424702Y-103465178D01*
X157424702Y-103274702D01*
X157472321Y-103179464D01*
X157519940Y-103131845D01*
X157615178Y-103084226D01*
X157805654Y-103084226D01*
X157900892Y-103131845D01*
X157948511Y-103179464D01*
X157996130Y-103274702D01*
X157996130Y-103465178D01*
X157948511Y-103560416D01*
X157900892Y-103608035D01*
X157805654Y-103655654D01*
X157615178Y-103655654D01*
X157519940Y-103608035D01*
X157472321Y-103560416D01*
X157424702Y-103465178D01*
X76239880Y-101179464D02*
X75239880Y-101179464D01*
X75239880Y-101417559D01*
X75287500Y-101560416D01*
X75382738Y-101655654D01*
X75477976Y-101703273D01*
X75668452Y-101750892D01*
X75811309Y-101750892D01*
X76001785Y-101703273D01*
X76097023Y-101655654D01*
X76192261Y-101560416D01*
X76239880Y-101417559D01*
X76239880Y-101179464D01*
X75239880Y-102655654D02*
X75239880Y-102179464D01*
X75716071Y-102131845D01*
X75668452Y-102179464D01*
X75620833Y-102274702D01*
X75620833Y-102512797D01*
X75668452Y-102608035D01*
X75716071Y-102655654D01*
X75811309Y-102703273D01*
X76049404Y-102703273D01*
X76144642Y-102655654D01*
X76192261Y-102608035D01*
X76239880Y-102512797D01*
X76239880Y-102274702D01*
X76192261Y-102179464D01*
X76144642Y-102131845D01*
X75239880Y-103036607D02*
X75239880Y-103703273D01*
X76239880Y-103274702D01*
X52427380Y-101179464D02*
X51427380Y-101179464D01*
X51427380Y-101417559D01*
X51475000Y-101560416D01*
X51570238Y-101655654D01*
X51665476Y-101703273D01*
X51855952Y-101750892D01*
X51998809Y-101750892D01*
X52189285Y-101703273D01*
X52284523Y-101655654D01*
X52379761Y-101560416D01*
X52427380Y-101417559D01*
X52427380Y-101179464D01*
X51427380Y-102655654D02*
X51427380Y-102179464D01*
X51903571Y-102131845D01*
X51855952Y-102179464D01*
X51808333Y-102274702D01*
X51808333Y-102512797D01*
X51855952Y-102608035D01*
X51903571Y-102655654D01*
X51998809Y-102703273D01*
X52236904Y-102703273D01*
X52332142Y-102655654D01*
X52379761Y-102608035D01*
X52427380Y-102512797D01*
X52427380Y-102274702D01*
X52379761Y-102179464D01*
X52332142Y-102131845D01*
X51427380Y-103560416D02*
X51427380Y-103369940D01*
X51475000Y-103274702D01*
X51522619Y-103227083D01*
X51665476Y-103131845D01*
X51855952Y-103084226D01*
X52236904Y-103084226D01*
X52332142Y-103131845D01*
X52379761Y-103179464D01*
X52427380Y-103274702D01*
X52427380Y-103465178D01*
X52379761Y-103560416D01*
X52332142Y-103608035D01*
X52236904Y-103655654D01*
X51998809Y-103655654D01*
X51903571Y-103608035D01*
X51855952Y-103560416D01*
X51808333Y-103465178D01*
X51808333Y-103274702D01*
X51855952Y-103179464D01*
X51903571Y-103131845D01*
X51998809Y-103084226D01*
X29408630Y-101179464D02*
X28408630Y-101179464D01*
X28408630Y-101417559D01*
X28456250Y-101560416D01*
X28551488Y-101655654D01*
X28646726Y-101703273D01*
X28837202Y-101750892D01*
X28980059Y-101750892D01*
X29170535Y-101703273D01*
X29265773Y-101655654D01*
X29361011Y-101560416D01*
X29408630Y-101417559D01*
X29408630Y-101179464D01*
X28408630Y-102655654D02*
X28408630Y-102179464D01*
X28884821Y-102131845D01*
X28837202Y-102179464D01*
X28789583Y-102274702D01*
X28789583Y-102512797D01*
X28837202Y-102608035D01*
X28884821Y-102655654D01*
X28980059Y-102703273D01*
X29218154Y-102703273D01*
X29313392Y-102655654D01*
X29361011Y-102608035D01*
X29408630Y-102512797D01*
X29408630Y-102274702D01*
X29361011Y-102179464D01*
X29313392Y-102131845D01*
X28408630Y-103608035D02*
X28408630Y-103131845D01*
X28884821Y-103084226D01*
X28837202Y-103131845D01*
X28789583Y-103227083D01*
X28789583Y-103465178D01*
X28837202Y-103560416D01*
X28884821Y-103608035D01*
X28980059Y-103655654D01*
X29218154Y-103655654D01*
X29313392Y-103608035D01*
X29361011Y-103560416D01*
X29408630Y-103465178D01*
X29408630Y-103227083D01*
X29361011Y-103131845D01*
X29313392Y-103084226D01*
X245339880Y-90860714D02*
X244339880Y-90860714D01*
X244339880Y-91098809D01*
X244387500Y-91241666D01*
X244482738Y-91336904D01*
X244577976Y-91384523D01*
X244768452Y-91432142D01*
X244911309Y-91432142D01*
X245101785Y-91384523D01*
X245197023Y-91336904D01*
X245292261Y-91241666D01*
X245339880Y-91098809D01*
X245339880Y-90860714D01*
X244339880Y-92336904D02*
X244339880Y-91860714D01*
X244816071Y-91813095D01*
X244768452Y-91860714D01*
X244720833Y-91955952D01*
X244720833Y-92194047D01*
X244768452Y-92289285D01*
X244816071Y-92336904D01*
X244911309Y-92384523D01*
X245149404Y-92384523D01*
X245244642Y-92336904D01*
X245292261Y-92289285D01*
X245339880Y-92194047D01*
X245339880Y-91955952D01*
X245292261Y-91860714D01*
X245244642Y-91813095D01*
X244673214Y-93241666D02*
X245339880Y-93241666D01*
X244292261Y-93003571D02*
X245006547Y-92765476D01*
X245006547Y-93384523D01*
X242164880Y-90860714D02*
X241164880Y-90860714D01*
X241164880Y-91098809D01*
X241212500Y-91241666D01*
X241307738Y-91336904D01*
X241402976Y-91384523D01*
X241593452Y-91432142D01*
X241736309Y-91432142D01*
X241926785Y-91384523D01*
X242022023Y-91336904D01*
X242117261Y-91241666D01*
X242164880Y-91098809D01*
X242164880Y-90860714D01*
X241164880Y-92336904D02*
X241164880Y-91860714D01*
X241641071Y-91813095D01*
X241593452Y-91860714D01*
X241545833Y-91955952D01*
X241545833Y-92194047D01*
X241593452Y-92289285D01*
X241641071Y-92336904D01*
X241736309Y-92384523D01*
X241974404Y-92384523D01*
X242069642Y-92336904D01*
X242117261Y-92289285D01*
X242164880Y-92194047D01*
X242164880Y-91955952D01*
X242117261Y-91860714D01*
X242069642Y-91813095D01*
X241164880Y-92717857D02*
X241164880Y-93336904D01*
X241545833Y-93003571D01*
X241545833Y-93146428D01*
X241593452Y-93241666D01*
X241641071Y-93289285D01*
X241736309Y-93336904D01*
X241974404Y-93336904D01*
X242069642Y-93289285D01*
X242117261Y-93241666D01*
X242164880Y-93146428D01*
X242164880Y-92860714D01*
X242117261Y-92765476D01*
X242069642Y-92717857D01*
X223114880Y-90860714D02*
X222114880Y-90860714D01*
X222114880Y-91098809D01*
X222162500Y-91241666D01*
X222257738Y-91336904D01*
X222352976Y-91384523D01*
X222543452Y-91432142D01*
X222686309Y-91432142D01*
X222876785Y-91384523D01*
X222972023Y-91336904D01*
X223067261Y-91241666D01*
X223114880Y-91098809D01*
X223114880Y-90860714D01*
X222114880Y-92336904D02*
X222114880Y-91860714D01*
X222591071Y-91813095D01*
X222543452Y-91860714D01*
X222495833Y-91955952D01*
X222495833Y-92194047D01*
X222543452Y-92289285D01*
X222591071Y-92336904D01*
X222686309Y-92384523D01*
X222924404Y-92384523D01*
X223019642Y-92336904D01*
X223067261Y-92289285D01*
X223114880Y-92194047D01*
X223114880Y-91955952D01*
X223067261Y-91860714D01*
X223019642Y-91813095D01*
X222210119Y-92765476D02*
X222162500Y-92813095D01*
X222114880Y-92908333D01*
X222114880Y-93146428D01*
X222162500Y-93241666D01*
X222210119Y-93289285D01*
X222305357Y-93336904D01*
X222400595Y-93336904D01*
X222543452Y-93289285D01*
X223114880Y-92717857D01*
X223114880Y-93336904D01*
X204064880Y-90860714D02*
X203064880Y-90860714D01*
X203064880Y-91098809D01*
X203112500Y-91241666D01*
X203207738Y-91336904D01*
X203302976Y-91384523D01*
X203493452Y-91432142D01*
X203636309Y-91432142D01*
X203826785Y-91384523D01*
X203922023Y-91336904D01*
X204017261Y-91241666D01*
X204064880Y-91098809D01*
X204064880Y-90860714D01*
X203064880Y-92336904D02*
X203064880Y-91860714D01*
X203541071Y-91813095D01*
X203493452Y-91860714D01*
X203445833Y-91955952D01*
X203445833Y-92194047D01*
X203493452Y-92289285D01*
X203541071Y-92336904D01*
X203636309Y-92384523D01*
X203874404Y-92384523D01*
X203969642Y-92336904D01*
X204017261Y-92289285D01*
X204064880Y-92194047D01*
X204064880Y-91955952D01*
X204017261Y-91860714D01*
X203969642Y-91813095D01*
X204064880Y-93336904D02*
X204064880Y-92765476D01*
X204064880Y-93051190D02*
X203064880Y-93051190D01*
X203207738Y-92955952D01*
X203302976Y-92860714D01*
X203350595Y-92765476D01*
X185014880Y-90860714D02*
X184014880Y-90860714D01*
X184014880Y-91098809D01*
X184062500Y-91241666D01*
X184157738Y-91336904D01*
X184252976Y-91384523D01*
X184443452Y-91432142D01*
X184586309Y-91432142D01*
X184776785Y-91384523D01*
X184872023Y-91336904D01*
X184967261Y-91241666D01*
X185014880Y-91098809D01*
X185014880Y-90860714D01*
X184014880Y-92336904D02*
X184014880Y-91860714D01*
X184491071Y-91813095D01*
X184443452Y-91860714D01*
X184395833Y-91955952D01*
X184395833Y-92194047D01*
X184443452Y-92289285D01*
X184491071Y-92336904D01*
X184586309Y-92384523D01*
X184824404Y-92384523D01*
X184919642Y-92336904D01*
X184967261Y-92289285D01*
X185014880Y-92194047D01*
X185014880Y-91955952D01*
X184967261Y-91860714D01*
X184919642Y-91813095D01*
X184014880Y-93003571D02*
X184014880Y-93098809D01*
X184062500Y-93194047D01*
X184110119Y-93241666D01*
X184205357Y-93289285D01*
X184395833Y-93336904D01*
X184633928Y-93336904D01*
X184824404Y-93289285D01*
X184919642Y-93241666D01*
X184967261Y-93194047D01*
X185014880Y-93098809D01*
X185014880Y-93003571D01*
X184967261Y-92908333D01*
X184919642Y-92860714D01*
X184824404Y-92813095D01*
X184633928Y-92765476D01*
X184395833Y-92765476D01*
X184205357Y-92813095D01*
X184110119Y-92860714D01*
X184062500Y-92908333D01*
X184014880Y-93003571D01*
X165964880Y-90860714D02*
X164964880Y-90860714D01*
X164964880Y-91098809D01*
X165012500Y-91241666D01*
X165107738Y-91336904D01*
X165202976Y-91384523D01*
X165393452Y-91432142D01*
X165536309Y-91432142D01*
X165726785Y-91384523D01*
X165822023Y-91336904D01*
X165917261Y-91241666D01*
X165964880Y-91098809D01*
X165964880Y-90860714D01*
X165298214Y-92289285D02*
X165964880Y-92289285D01*
X164917261Y-92051190D02*
X165631547Y-91813095D01*
X165631547Y-92432142D01*
X165964880Y-92860714D02*
X165964880Y-93051190D01*
X165917261Y-93146428D01*
X165869642Y-93194047D01*
X165726785Y-93289285D01*
X165536309Y-93336904D01*
X165155357Y-93336904D01*
X165060119Y-93289285D01*
X165012500Y-93241666D01*
X164964880Y-93146428D01*
X164964880Y-92955952D01*
X165012500Y-92860714D01*
X165060119Y-92813095D01*
X165155357Y-92765476D01*
X165393452Y-92765476D01*
X165488690Y-92813095D01*
X165536309Y-92860714D01*
X165583928Y-92955952D01*
X165583928Y-93146428D01*
X165536309Y-93241666D01*
X165488690Y-93289285D01*
X165393452Y-93336904D01*
X146914880Y-90860714D02*
X145914880Y-90860714D01*
X145914880Y-91098809D01*
X145962500Y-91241666D01*
X146057738Y-91336904D01*
X146152976Y-91384523D01*
X146343452Y-91432142D01*
X146486309Y-91432142D01*
X146676785Y-91384523D01*
X146772023Y-91336904D01*
X146867261Y-91241666D01*
X146914880Y-91098809D01*
X146914880Y-90860714D01*
X146248214Y-92289285D02*
X146914880Y-92289285D01*
X145867261Y-92051190D02*
X146581547Y-91813095D01*
X146581547Y-92432142D01*
X146343452Y-92955952D02*
X146295833Y-92860714D01*
X146248214Y-92813095D01*
X146152976Y-92765476D01*
X146105357Y-92765476D01*
X146010119Y-92813095D01*
X145962500Y-92860714D01*
X145914880Y-92955952D01*
X145914880Y-93146428D01*
X145962500Y-93241666D01*
X146010119Y-93289285D01*
X146105357Y-93336904D01*
X146152976Y-93336904D01*
X146248214Y-93289285D01*
X146295833Y-93241666D01*
X146343452Y-93146428D01*
X146343452Y-92955952D01*
X146391071Y-92860714D01*
X146438690Y-92813095D01*
X146533928Y-92765476D01*
X146724404Y-92765476D01*
X146819642Y-92813095D01*
X146867261Y-92860714D01*
X146914880Y-92955952D01*
X146914880Y-93146428D01*
X146867261Y-93241666D01*
X146819642Y-93289285D01*
X146724404Y-93336904D01*
X146533928Y-93336904D01*
X146438690Y-93289285D01*
X146391071Y-93241666D01*
X146343452Y-93146428D01*
X127864880Y-90860714D02*
X126864880Y-90860714D01*
X126864880Y-91098809D01*
X126912500Y-91241666D01*
X127007738Y-91336904D01*
X127102976Y-91384523D01*
X127293452Y-91432142D01*
X127436309Y-91432142D01*
X127626785Y-91384523D01*
X127722023Y-91336904D01*
X127817261Y-91241666D01*
X127864880Y-91098809D01*
X127864880Y-90860714D01*
X127198214Y-92289285D02*
X127864880Y-92289285D01*
X126817261Y-92051190D02*
X127531547Y-91813095D01*
X127531547Y-92432142D01*
X126864880Y-92717857D02*
X126864880Y-93384523D01*
X127864880Y-92955952D01*
X108814880Y-90860714D02*
X107814880Y-90860714D01*
X107814880Y-91098809D01*
X107862500Y-91241666D01*
X107957738Y-91336904D01*
X108052976Y-91384523D01*
X108243452Y-91432142D01*
X108386309Y-91432142D01*
X108576785Y-91384523D01*
X108672023Y-91336904D01*
X108767261Y-91241666D01*
X108814880Y-91098809D01*
X108814880Y-90860714D01*
X108148214Y-92289285D02*
X108814880Y-92289285D01*
X107767261Y-92051190D02*
X108481547Y-91813095D01*
X108481547Y-92432142D01*
X107814880Y-93241666D02*
X107814880Y-93051190D01*
X107862500Y-92955952D01*
X107910119Y-92908333D01*
X108052976Y-92813095D01*
X108243452Y-92765476D01*
X108624404Y-92765476D01*
X108719642Y-92813095D01*
X108767261Y-92860714D01*
X108814880Y-92955952D01*
X108814880Y-93146428D01*
X108767261Y-93241666D01*
X108719642Y-93289285D01*
X108624404Y-93336904D01*
X108386309Y-93336904D01*
X108291071Y-93289285D01*
X108243452Y-93241666D01*
X108195833Y-93146428D01*
X108195833Y-92955952D01*
X108243452Y-92860714D01*
X108291071Y-92813095D01*
X108386309Y-92765476D01*
X89764880Y-90860714D02*
X88764880Y-90860714D01*
X88764880Y-91098809D01*
X88812500Y-91241666D01*
X88907738Y-91336904D01*
X89002976Y-91384523D01*
X89193452Y-91432142D01*
X89336309Y-91432142D01*
X89526785Y-91384523D01*
X89622023Y-91336904D01*
X89717261Y-91241666D01*
X89764880Y-91098809D01*
X89764880Y-90860714D01*
X89098214Y-92289285D02*
X89764880Y-92289285D01*
X88717261Y-92051190D02*
X89431547Y-91813095D01*
X89431547Y-92432142D01*
X88764880Y-93289285D02*
X88764880Y-92813095D01*
X89241071Y-92765476D01*
X89193452Y-92813095D01*
X89145833Y-92908333D01*
X89145833Y-93146428D01*
X89193452Y-93241666D01*
X89241071Y-93289285D01*
X89336309Y-93336904D01*
X89574404Y-93336904D01*
X89669642Y-93289285D01*
X89717261Y-93241666D01*
X89764880Y-93146428D01*
X89764880Y-92908333D01*
X89717261Y-92813095D01*
X89669642Y-92765476D01*
X70714880Y-90860714D02*
X69714880Y-90860714D01*
X69714880Y-91098809D01*
X69762500Y-91241666D01*
X69857738Y-91336904D01*
X69952976Y-91384523D01*
X70143452Y-91432142D01*
X70286309Y-91432142D01*
X70476785Y-91384523D01*
X70572023Y-91336904D01*
X70667261Y-91241666D01*
X70714880Y-91098809D01*
X70714880Y-90860714D01*
X70048214Y-92289285D02*
X70714880Y-92289285D01*
X69667261Y-92051190D02*
X70381547Y-91813095D01*
X70381547Y-92432142D01*
X70048214Y-93241666D02*
X70714880Y-93241666D01*
X69667261Y-93003571D02*
X70381547Y-92765476D01*
X70381547Y-93384523D01*
X38964880Y-90860714D02*
X37964880Y-90860714D01*
X37964880Y-91098809D01*
X38012500Y-91241666D01*
X38107738Y-91336904D01*
X38202976Y-91384523D01*
X38393452Y-91432142D01*
X38536309Y-91432142D01*
X38726785Y-91384523D01*
X38822023Y-91336904D01*
X38917261Y-91241666D01*
X38964880Y-91098809D01*
X38964880Y-90860714D01*
X38298214Y-92289285D02*
X38964880Y-92289285D01*
X37917261Y-92051190D02*
X38631547Y-91813095D01*
X38631547Y-92432142D01*
X37964880Y-92717857D02*
X37964880Y-93336904D01*
X38345833Y-93003571D01*
X38345833Y-93146428D01*
X38393452Y-93241666D01*
X38441071Y-93289285D01*
X38536309Y-93336904D01*
X38774404Y-93336904D01*
X38869642Y-93289285D01*
X38917261Y-93241666D01*
X38964880Y-93146428D01*
X38964880Y-92860714D01*
X38917261Y-92765476D01*
X38869642Y-92717857D01*
X254864880Y-71810714D02*
X253864880Y-71810714D01*
X253864880Y-72048809D01*
X253912500Y-72191666D01*
X254007738Y-72286904D01*
X254102976Y-72334523D01*
X254293452Y-72382142D01*
X254436309Y-72382142D01*
X254626785Y-72334523D01*
X254722023Y-72286904D01*
X254817261Y-72191666D01*
X254864880Y-72048809D01*
X254864880Y-71810714D01*
X254198214Y-73239285D02*
X254864880Y-73239285D01*
X253817261Y-73001190D02*
X254531547Y-72763095D01*
X254531547Y-73382142D01*
X253960119Y-73715476D02*
X253912500Y-73763095D01*
X253864880Y-73858333D01*
X253864880Y-74096428D01*
X253912500Y-74191666D01*
X253960119Y-74239285D01*
X254055357Y-74286904D01*
X254150595Y-74286904D01*
X254293452Y-74239285D01*
X254864880Y-73667857D01*
X254864880Y-74286904D01*
X251689880Y-71810714D02*
X250689880Y-71810714D01*
X250689880Y-72048809D01*
X250737500Y-72191666D01*
X250832738Y-72286904D01*
X250927976Y-72334523D01*
X251118452Y-72382142D01*
X251261309Y-72382142D01*
X251451785Y-72334523D01*
X251547023Y-72286904D01*
X251642261Y-72191666D01*
X251689880Y-72048809D01*
X251689880Y-71810714D01*
X251023214Y-73239285D02*
X251689880Y-73239285D01*
X250642261Y-73001190D02*
X251356547Y-72763095D01*
X251356547Y-73382142D01*
X251689880Y-74286904D02*
X251689880Y-73715476D01*
X251689880Y-74001190D02*
X250689880Y-74001190D01*
X250832738Y-73905952D01*
X250927976Y-73810714D01*
X250975595Y-73715476D01*
X232639880Y-71810714D02*
X231639880Y-71810714D01*
X231639880Y-72048809D01*
X231687500Y-72191666D01*
X231782738Y-72286904D01*
X231877976Y-72334523D01*
X232068452Y-72382142D01*
X232211309Y-72382142D01*
X232401785Y-72334523D01*
X232497023Y-72286904D01*
X232592261Y-72191666D01*
X232639880Y-72048809D01*
X232639880Y-71810714D01*
X231973214Y-73239285D02*
X232639880Y-73239285D01*
X231592261Y-73001190D02*
X232306547Y-72763095D01*
X232306547Y-73382142D01*
X231639880Y-73953571D02*
X231639880Y-74048809D01*
X231687500Y-74144047D01*
X231735119Y-74191666D01*
X231830357Y-74239285D01*
X232020833Y-74286904D01*
X232258928Y-74286904D01*
X232449404Y-74239285D01*
X232544642Y-74191666D01*
X232592261Y-74144047D01*
X232639880Y-74048809D01*
X232639880Y-73953571D01*
X232592261Y-73858333D01*
X232544642Y-73810714D01*
X232449404Y-73763095D01*
X232258928Y-73715476D01*
X232020833Y-73715476D01*
X231830357Y-73763095D01*
X231735119Y-73810714D01*
X231687500Y-73858333D01*
X231639880Y-73953571D01*
X213589880Y-71810714D02*
X212589880Y-71810714D01*
X212589880Y-72048809D01*
X212637500Y-72191666D01*
X212732738Y-72286904D01*
X212827976Y-72334523D01*
X213018452Y-72382142D01*
X213161309Y-72382142D01*
X213351785Y-72334523D01*
X213447023Y-72286904D01*
X213542261Y-72191666D01*
X213589880Y-72048809D01*
X213589880Y-71810714D01*
X212589880Y-72715476D02*
X212589880Y-73334523D01*
X212970833Y-73001190D01*
X212970833Y-73144047D01*
X213018452Y-73239285D01*
X213066071Y-73286904D01*
X213161309Y-73334523D01*
X213399404Y-73334523D01*
X213494642Y-73286904D01*
X213542261Y-73239285D01*
X213589880Y-73144047D01*
X213589880Y-72858333D01*
X213542261Y-72763095D01*
X213494642Y-72715476D01*
X213589880Y-73810714D02*
X213589880Y-74001190D01*
X213542261Y-74096428D01*
X213494642Y-74144047D01*
X213351785Y-74239285D01*
X213161309Y-74286904D01*
X212780357Y-74286904D01*
X212685119Y-74239285D01*
X212637500Y-74191666D01*
X212589880Y-74096428D01*
X212589880Y-73905952D01*
X212637500Y-73810714D01*
X212685119Y-73763095D01*
X212780357Y-73715476D01*
X213018452Y-73715476D01*
X213113690Y-73763095D01*
X213161309Y-73810714D01*
X213208928Y-73905952D01*
X213208928Y-74096428D01*
X213161309Y-74191666D01*
X213113690Y-74239285D01*
X213018452Y-74286904D01*
X194539880Y-71810714D02*
X193539880Y-71810714D01*
X193539880Y-72048809D01*
X193587500Y-72191666D01*
X193682738Y-72286904D01*
X193777976Y-72334523D01*
X193968452Y-72382142D01*
X194111309Y-72382142D01*
X194301785Y-72334523D01*
X194397023Y-72286904D01*
X194492261Y-72191666D01*
X194539880Y-72048809D01*
X194539880Y-71810714D01*
X193539880Y-72715476D02*
X193539880Y-73334523D01*
X193920833Y-73001190D01*
X193920833Y-73144047D01*
X193968452Y-73239285D01*
X194016071Y-73286904D01*
X194111309Y-73334523D01*
X194349404Y-73334523D01*
X194444642Y-73286904D01*
X194492261Y-73239285D01*
X194539880Y-73144047D01*
X194539880Y-72858333D01*
X194492261Y-72763095D01*
X194444642Y-72715476D01*
X193968452Y-73905952D02*
X193920833Y-73810714D01*
X193873214Y-73763095D01*
X193777976Y-73715476D01*
X193730357Y-73715476D01*
X193635119Y-73763095D01*
X193587500Y-73810714D01*
X193539880Y-73905952D01*
X193539880Y-74096428D01*
X193587500Y-74191666D01*
X193635119Y-74239285D01*
X193730357Y-74286904D01*
X193777976Y-74286904D01*
X193873214Y-74239285D01*
X193920833Y-74191666D01*
X193968452Y-74096428D01*
X193968452Y-73905952D01*
X194016071Y-73810714D01*
X194063690Y-73763095D01*
X194158928Y-73715476D01*
X194349404Y-73715476D01*
X194444642Y-73763095D01*
X194492261Y-73810714D01*
X194539880Y-73905952D01*
X194539880Y-74096428D01*
X194492261Y-74191666D01*
X194444642Y-74239285D01*
X194349404Y-74286904D01*
X194158928Y-74286904D01*
X194063690Y-74239285D01*
X194016071Y-74191666D01*
X193968452Y-74096428D01*
X175489880Y-71810714D02*
X174489880Y-71810714D01*
X174489880Y-72048809D01*
X174537500Y-72191666D01*
X174632738Y-72286904D01*
X174727976Y-72334523D01*
X174918452Y-72382142D01*
X175061309Y-72382142D01*
X175251785Y-72334523D01*
X175347023Y-72286904D01*
X175442261Y-72191666D01*
X175489880Y-72048809D01*
X175489880Y-71810714D01*
X174489880Y-72715476D02*
X174489880Y-73334523D01*
X174870833Y-73001190D01*
X174870833Y-73144047D01*
X174918452Y-73239285D01*
X174966071Y-73286904D01*
X175061309Y-73334523D01*
X175299404Y-73334523D01*
X175394642Y-73286904D01*
X175442261Y-73239285D01*
X175489880Y-73144047D01*
X175489880Y-72858333D01*
X175442261Y-72763095D01*
X175394642Y-72715476D01*
X174489880Y-73667857D02*
X174489880Y-74334523D01*
X175489880Y-73905952D01*
X156439880Y-71810714D02*
X155439880Y-71810714D01*
X155439880Y-72048809D01*
X155487500Y-72191666D01*
X155582738Y-72286904D01*
X155677976Y-72334523D01*
X155868452Y-72382142D01*
X156011309Y-72382142D01*
X156201785Y-72334523D01*
X156297023Y-72286904D01*
X156392261Y-72191666D01*
X156439880Y-72048809D01*
X156439880Y-71810714D01*
X155439880Y-72715476D02*
X155439880Y-73334523D01*
X155820833Y-73001190D01*
X155820833Y-73144047D01*
X155868452Y-73239285D01*
X155916071Y-73286904D01*
X156011309Y-73334523D01*
X156249404Y-73334523D01*
X156344642Y-73286904D01*
X156392261Y-73239285D01*
X156439880Y-73144047D01*
X156439880Y-72858333D01*
X156392261Y-72763095D01*
X156344642Y-72715476D01*
X155439880Y-74191666D02*
X155439880Y-74001190D01*
X155487500Y-73905952D01*
X155535119Y-73858333D01*
X155677976Y-73763095D01*
X155868452Y-73715476D01*
X156249404Y-73715476D01*
X156344642Y-73763095D01*
X156392261Y-73810714D01*
X156439880Y-73905952D01*
X156439880Y-74096428D01*
X156392261Y-74191666D01*
X156344642Y-74239285D01*
X156249404Y-74286904D01*
X156011309Y-74286904D01*
X155916071Y-74239285D01*
X155868452Y-74191666D01*
X155820833Y-74096428D01*
X155820833Y-73905952D01*
X155868452Y-73810714D01*
X155916071Y-73763095D01*
X156011309Y-73715476D01*
X137389880Y-71810714D02*
X136389880Y-71810714D01*
X136389880Y-72048809D01*
X136437500Y-72191666D01*
X136532738Y-72286904D01*
X136627976Y-72334523D01*
X136818452Y-72382142D01*
X136961309Y-72382142D01*
X137151785Y-72334523D01*
X137247023Y-72286904D01*
X137342261Y-72191666D01*
X137389880Y-72048809D01*
X137389880Y-71810714D01*
X136389880Y-72715476D02*
X136389880Y-73334523D01*
X136770833Y-73001190D01*
X136770833Y-73144047D01*
X136818452Y-73239285D01*
X136866071Y-73286904D01*
X136961309Y-73334523D01*
X137199404Y-73334523D01*
X137294642Y-73286904D01*
X137342261Y-73239285D01*
X137389880Y-73144047D01*
X137389880Y-72858333D01*
X137342261Y-72763095D01*
X137294642Y-72715476D01*
X136389880Y-74239285D02*
X136389880Y-73763095D01*
X136866071Y-73715476D01*
X136818452Y-73763095D01*
X136770833Y-73858333D01*
X136770833Y-74096428D01*
X136818452Y-74191666D01*
X136866071Y-74239285D01*
X136961309Y-74286904D01*
X137199404Y-74286904D01*
X137294642Y-74239285D01*
X137342261Y-74191666D01*
X137389880Y-74096428D01*
X137389880Y-73858333D01*
X137342261Y-73763095D01*
X137294642Y-73715476D01*
X118339880Y-71810714D02*
X117339880Y-71810714D01*
X117339880Y-72048809D01*
X117387500Y-72191666D01*
X117482738Y-72286904D01*
X117577976Y-72334523D01*
X117768452Y-72382142D01*
X117911309Y-72382142D01*
X118101785Y-72334523D01*
X118197023Y-72286904D01*
X118292261Y-72191666D01*
X118339880Y-72048809D01*
X118339880Y-71810714D01*
X117339880Y-72715476D02*
X117339880Y-73334523D01*
X117720833Y-73001190D01*
X117720833Y-73144047D01*
X117768452Y-73239285D01*
X117816071Y-73286904D01*
X117911309Y-73334523D01*
X118149404Y-73334523D01*
X118244642Y-73286904D01*
X118292261Y-73239285D01*
X118339880Y-73144047D01*
X118339880Y-72858333D01*
X118292261Y-72763095D01*
X118244642Y-72715476D01*
X117673214Y-74191666D02*
X118339880Y-74191666D01*
X117292261Y-73953571D02*
X118006547Y-73715476D01*
X118006547Y-74334523D01*
X99289880Y-71810714D02*
X98289880Y-71810714D01*
X98289880Y-72048809D01*
X98337500Y-72191666D01*
X98432738Y-72286904D01*
X98527976Y-72334523D01*
X98718452Y-72382142D01*
X98861309Y-72382142D01*
X99051785Y-72334523D01*
X99147023Y-72286904D01*
X99242261Y-72191666D01*
X99289880Y-72048809D01*
X99289880Y-71810714D01*
X98289880Y-72715476D02*
X98289880Y-73334523D01*
X98670833Y-73001190D01*
X98670833Y-73144047D01*
X98718452Y-73239285D01*
X98766071Y-73286904D01*
X98861309Y-73334523D01*
X99099404Y-73334523D01*
X99194642Y-73286904D01*
X99242261Y-73239285D01*
X99289880Y-73144047D01*
X99289880Y-72858333D01*
X99242261Y-72763095D01*
X99194642Y-72715476D01*
X98289880Y-73667857D02*
X98289880Y-74286904D01*
X98670833Y-73953571D01*
X98670833Y-74096428D01*
X98718452Y-74191666D01*
X98766071Y-74239285D01*
X98861309Y-74286904D01*
X99099404Y-74286904D01*
X99194642Y-74239285D01*
X99242261Y-74191666D01*
X99289880Y-74096428D01*
X99289880Y-73810714D01*
X99242261Y-73715476D01*
X99194642Y-73667857D01*
X80239880Y-71810714D02*
X79239880Y-71810714D01*
X79239880Y-72048809D01*
X79287500Y-72191666D01*
X79382738Y-72286904D01*
X79477976Y-72334523D01*
X79668452Y-72382142D01*
X79811309Y-72382142D01*
X80001785Y-72334523D01*
X80097023Y-72286904D01*
X80192261Y-72191666D01*
X80239880Y-72048809D01*
X80239880Y-71810714D01*
X79239880Y-72715476D02*
X79239880Y-73334523D01*
X79620833Y-73001190D01*
X79620833Y-73144047D01*
X79668452Y-73239285D01*
X79716071Y-73286904D01*
X79811309Y-73334523D01*
X80049404Y-73334523D01*
X80144642Y-73286904D01*
X80192261Y-73239285D01*
X80239880Y-73144047D01*
X80239880Y-72858333D01*
X80192261Y-72763095D01*
X80144642Y-72715476D01*
X79335119Y-73715476D02*
X79287500Y-73763095D01*
X79239880Y-73858333D01*
X79239880Y-74096428D01*
X79287500Y-74191666D01*
X79335119Y-74239285D01*
X79430357Y-74286904D01*
X79525595Y-74286904D01*
X79668452Y-74239285D01*
X80239880Y-73667857D01*
X80239880Y-74286904D01*
X61189880Y-71810714D02*
X60189880Y-71810714D01*
X60189880Y-72048809D01*
X60237500Y-72191666D01*
X60332738Y-72286904D01*
X60427976Y-72334523D01*
X60618452Y-72382142D01*
X60761309Y-72382142D01*
X60951785Y-72334523D01*
X61047023Y-72286904D01*
X61142261Y-72191666D01*
X61189880Y-72048809D01*
X61189880Y-71810714D01*
X60189880Y-72715476D02*
X60189880Y-73334523D01*
X60570833Y-73001190D01*
X60570833Y-73144047D01*
X60618452Y-73239285D01*
X60666071Y-73286904D01*
X60761309Y-73334523D01*
X60999404Y-73334523D01*
X61094642Y-73286904D01*
X61142261Y-73239285D01*
X61189880Y-73144047D01*
X61189880Y-72858333D01*
X61142261Y-72763095D01*
X61094642Y-72715476D01*
X61189880Y-74286904D02*
X61189880Y-73715476D01*
X61189880Y-74001190D02*
X60189880Y-74001190D01*
X60332738Y-73905952D01*
X60427976Y-73810714D01*
X60475595Y-73715476D01*
X37377380Y-71810714D02*
X36377380Y-71810714D01*
X36377380Y-72048809D01*
X36425000Y-72191666D01*
X36520238Y-72286904D01*
X36615476Y-72334523D01*
X36805952Y-72382142D01*
X36948809Y-72382142D01*
X37139285Y-72334523D01*
X37234523Y-72286904D01*
X37329761Y-72191666D01*
X37377380Y-72048809D01*
X37377380Y-71810714D01*
X36377380Y-72715476D02*
X36377380Y-73334523D01*
X36758333Y-73001190D01*
X36758333Y-73144047D01*
X36805952Y-73239285D01*
X36853571Y-73286904D01*
X36948809Y-73334523D01*
X37186904Y-73334523D01*
X37282142Y-73286904D01*
X37329761Y-73239285D01*
X37377380Y-73144047D01*
X37377380Y-72858333D01*
X37329761Y-72763095D01*
X37282142Y-72715476D01*
X36377380Y-73953571D02*
X36377380Y-74048809D01*
X36425000Y-74144047D01*
X36472619Y-74191666D01*
X36567857Y-74239285D01*
X36758333Y-74286904D01*
X36996428Y-74286904D01*
X37186904Y-74239285D01*
X37282142Y-74191666D01*
X37329761Y-74144047D01*
X37377380Y-74048809D01*
X37377380Y-73953571D01*
X37329761Y-73858333D01*
X37282142Y-73810714D01*
X37186904Y-73763095D01*
X36996428Y-73715476D01*
X36758333Y-73715476D01*
X36567857Y-73763095D01*
X36472619Y-73810714D01*
X36425000Y-73858333D01*
X36377380Y-73953571D01*
X269152380Y-52760714D02*
X268152380Y-52760714D01*
X268152380Y-52998809D01*
X268200000Y-53141666D01*
X268295238Y-53236904D01*
X268390476Y-53284523D01*
X268580952Y-53332142D01*
X268723809Y-53332142D01*
X268914285Y-53284523D01*
X269009523Y-53236904D01*
X269104761Y-53141666D01*
X269152380Y-52998809D01*
X269152380Y-52760714D01*
X268247619Y-53713095D02*
X268200000Y-53760714D01*
X268152380Y-53855952D01*
X268152380Y-54094047D01*
X268200000Y-54189285D01*
X268247619Y-54236904D01*
X268342857Y-54284523D01*
X268438095Y-54284523D01*
X268580952Y-54236904D01*
X269152380Y-53665476D01*
X269152380Y-54284523D01*
X269152380Y-54760714D02*
X269152380Y-54951190D01*
X269104761Y-55046428D01*
X269057142Y-55094047D01*
X268914285Y-55189285D01*
X268723809Y-55236904D01*
X268342857Y-55236904D01*
X268247619Y-55189285D01*
X268200000Y-55141666D01*
X268152380Y-55046428D01*
X268152380Y-54855952D01*
X268200000Y-54760714D01*
X268247619Y-54713095D01*
X268342857Y-54665476D01*
X268580952Y-54665476D01*
X268676190Y-54713095D01*
X268723809Y-54760714D01*
X268771428Y-54855952D01*
X268771428Y-55046428D01*
X268723809Y-55141666D01*
X268676190Y-55189285D01*
X268580952Y-55236904D01*
X265977380Y-52760714D02*
X264977380Y-52760714D01*
X264977380Y-52998809D01*
X265025000Y-53141666D01*
X265120238Y-53236904D01*
X265215476Y-53284523D01*
X265405952Y-53332142D01*
X265548809Y-53332142D01*
X265739285Y-53284523D01*
X265834523Y-53236904D01*
X265929761Y-53141666D01*
X265977380Y-52998809D01*
X265977380Y-52760714D01*
X265072619Y-53713095D02*
X265025000Y-53760714D01*
X264977380Y-53855952D01*
X264977380Y-54094047D01*
X265025000Y-54189285D01*
X265072619Y-54236904D01*
X265167857Y-54284523D01*
X265263095Y-54284523D01*
X265405952Y-54236904D01*
X265977380Y-53665476D01*
X265977380Y-54284523D01*
X265405952Y-54855952D02*
X265358333Y-54760714D01*
X265310714Y-54713095D01*
X265215476Y-54665476D01*
X265167857Y-54665476D01*
X265072619Y-54713095D01*
X265025000Y-54760714D01*
X264977380Y-54855952D01*
X264977380Y-55046428D01*
X265025000Y-55141666D01*
X265072619Y-55189285D01*
X265167857Y-55236904D01*
X265215476Y-55236904D01*
X265310714Y-55189285D01*
X265358333Y-55141666D01*
X265405952Y-55046428D01*
X265405952Y-54855952D01*
X265453571Y-54760714D01*
X265501190Y-54713095D01*
X265596428Y-54665476D01*
X265786904Y-54665476D01*
X265882142Y-54713095D01*
X265929761Y-54760714D01*
X265977380Y-54855952D01*
X265977380Y-55046428D01*
X265929761Y-55141666D01*
X265882142Y-55189285D01*
X265786904Y-55236904D01*
X265596428Y-55236904D01*
X265501190Y-55189285D01*
X265453571Y-55141666D01*
X265405952Y-55046428D01*
X246927380Y-52760714D02*
X245927380Y-52760714D01*
X245927380Y-52998809D01*
X245975000Y-53141666D01*
X246070238Y-53236904D01*
X246165476Y-53284523D01*
X246355952Y-53332142D01*
X246498809Y-53332142D01*
X246689285Y-53284523D01*
X246784523Y-53236904D01*
X246879761Y-53141666D01*
X246927380Y-52998809D01*
X246927380Y-52760714D01*
X246022619Y-53713095D02*
X245975000Y-53760714D01*
X245927380Y-53855952D01*
X245927380Y-54094047D01*
X245975000Y-54189285D01*
X246022619Y-54236904D01*
X246117857Y-54284523D01*
X246213095Y-54284523D01*
X246355952Y-54236904D01*
X246927380Y-53665476D01*
X246927380Y-54284523D01*
X245927380Y-54617857D02*
X245927380Y-55284523D01*
X246927380Y-54855952D01*
X227877380Y-52760714D02*
X226877380Y-52760714D01*
X226877380Y-52998809D01*
X226925000Y-53141666D01*
X227020238Y-53236904D01*
X227115476Y-53284523D01*
X227305952Y-53332142D01*
X227448809Y-53332142D01*
X227639285Y-53284523D01*
X227734523Y-53236904D01*
X227829761Y-53141666D01*
X227877380Y-52998809D01*
X227877380Y-52760714D01*
X226972619Y-53713095D02*
X226925000Y-53760714D01*
X226877380Y-53855952D01*
X226877380Y-54094047D01*
X226925000Y-54189285D01*
X226972619Y-54236904D01*
X227067857Y-54284523D01*
X227163095Y-54284523D01*
X227305952Y-54236904D01*
X227877380Y-53665476D01*
X227877380Y-54284523D01*
X226877380Y-55141666D02*
X226877380Y-54951190D01*
X226925000Y-54855952D01*
X226972619Y-54808333D01*
X227115476Y-54713095D01*
X227305952Y-54665476D01*
X227686904Y-54665476D01*
X227782142Y-54713095D01*
X227829761Y-54760714D01*
X227877380Y-54855952D01*
X227877380Y-55046428D01*
X227829761Y-55141666D01*
X227782142Y-55189285D01*
X227686904Y-55236904D01*
X227448809Y-55236904D01*
X227353571Y-55189285D01*
X227305952Y-55141666D01*
X227258333Y-55046428D01*
X227258333Y-54855952D01*
X227305952Y-54760714D01*
X227353571Y-54713095D01*
X227448809Y-54665476D01*
X208827380Y-52760714D02*
X207827380Y-52760714D01*
X207827380Y-52998809D01*
X207875000Y-53141666D01*
X207970238Y-53236904D01*
X208065476Y-53284523D01*
X208255952Y-53332142D01*
X208398809Y-53332142D01*
X208589285Y-53284523D01*
X208684523Y-53236904D01*
X208779761Y-53141666D01*
X208827380Y-52998809D01*
X208827380Y-52760714D01*
X207922619Y-53713095D02*
X207875000Y-53760714D01*
X207827380Y-53855952D01*
X207827380Y-54094047D01*
X207875000Y-54189285D01*
X207922619Y-54236904D01*
X208017857Y-54284523D01*
X208113095Y-54284523D01*
X208255952Y-54236904D01*
X208827380Y-53665476D01*
X208827380Y-54284523D01*
X207827380Y-55189285D02*
X207827380Y-54713095D01*
X208303571Y-54665476D01*
X208255952Y-54713095D01*
X208208333Y-54808333D01*
X208208333Y-55046428D01*
X208255952Y-55141666D01*
X208303571Y-55189285D01*
X208398809Y-55236904D01*
X208636904Y-55236904D01*
X208732142Y-55189285D01*
X208779761Y-55141666D01*
X208827380Y-55046428D01*
X208827380Y-54808333D01*
X208779761Y-54713095D01*
X208732142Y-54665476D01*
X189777380Y-52760714D02*
X188777380Y-52760714D01*
X188777380Y-52998809D01*
X188825000Y-53141666D01*
X188920238Y-53236904D01*
X189015476Y-53284523D01*
X189205952Y-53332142D01*
X189348809Y-53332142D01*
X189539285Y-53284523D01*
X189634523Y-53236904D01*
X189729761Y-53141666D01*
X189777380Y-52998809D01*
X189777380Y-52760714D01*
X188872619Y-53713095D02*
X188825000Y-53760714D01*
X188777380Y-53855952D01*
X188777380Y-54094047D01*
X188825000Y-54189285D01*
X188872619Y-54236904D01*
X188967857Y-54284523D01*
X189063095Y-54284523D01*
X189205952Y-54236904D01*
X189777380Y-53665476D01*
X189777380Y-54284523D01*
X189110714Y-55141666D02*
X189777380Y-55141666D01*
X188729761Y-54903571D02*
X189444047Y-54665476D01*
X189444047Y-55284523D01*
X170727380Y-52760714D02*
X169727380Y-52760714D01*
X169727380Y-52998809D01*
X169775000Y-53141666D01*
X169870238Y-53236904D01*
X169965476Y-53284523D01*
X170155952Y-53332142D01*
X170298809Y-53332142D01*
X170489285Y-53284523D01*
X170584523Y-53236904D01*
X170679761Y-53141666D01*
X170727380Y-52998809D01*
X170727380Y-52760714D01*
X169822619Y-53713095D02*
X169775000Y-53760714D01*
X169727380Y-53855952D01*
X169727380Y-54094047D01*
X169775000Y-54189285D01*
X169822619Y-54236904D01*
X169917857Y-54284523D01*
X170013095Y-54284523D01*
X170155952Y-54236904D01*
X170727380Y-53665476D01*
X170727380Y-54284523D01*
X169727380Y-54617857D02*
X169727380Y-55236904D01*
X170108333Y-54903571D01*
X170108333Y-55046428D01*
X170155952Y-55141666D01*
X170203571Y-55189285D01*
X170298809Y-55236904D01*
X170536904Y-55236904D01*
X170632142Y-55189285D01*
X170679761Y-55141666D01*
X170727380Y-55046428D01*
X170727380Y-54760714D01*
X170679761Y-54665476D01*
X170632142Y-54617857D01*
X151677380Y-52760714D02*
X150677380Y-52760714D01*
X150677380Y-52998809D01*
X150725000Y-53141666D01*
X150820238Y-53236904D01*
X150915476Y-53284523D01*
X151105952Y-53332142D01*
X151248809Y-53332142D01*
X151439285Y-53284523D01*
X151534523Y-53236904D01*
X151629761Y-53141666D01*
X151677380Y-52998809D01*
X151677380Y-52760714D01*
X150772619Y-53713095D02*
X150725000Y-53760714D01*
X150677380Y-53855952D01*
X150677380Y-54094047D01*
X150725000Y-54189285D01*
X150772619Y-54236904D01*
X150867857Y-54284523D01*
X150963095Y-54284523D01*
X151105952Y-54236904D01*
X151677380Y-53665476D01*
X151677380Y-54284523D01*
X150772619Y-54665476D02*
X150725000Y-54713095D01*
X150677380Y-54808333D01*
X150677380Y-55046428D01*
X150725000Y-55141666D01*
X150772619Y-55189285D01*
X150867857Y-55236904D01*
X150963095Y-55236904D01*
X151105952Y-55189285D01*
X151677380Y-54617857D01*
X151677380Y-55236904D01*
X132627380Y-52760714D02*
X131627380Y-52760714D01*
X131627380Y-52998809D01*
X131675000Y-53141666D01*
X131770238Y-53236904D01*
X131865476Y-53284523D01*
X132055952Y-53332142D01*
X132198809Y-53332142D01*
X132389285Y-53284523D01*
X132484523Y-53236904D01*
X132579761Y-53141666D01*
X132627380Y-52998809D01*
X132627380Y-52760714D01*
X131722619Y-53713095D02*
X131675000Y-53760714D01*
X131627380Y-53855952D01*
X131627380Y-54094047D01*
X131675000Y-54189285D01*
X131722619Y-54236904D01*
X131817857Y-54284523D01*
X131913095Y-54284523D01*
X132055952Y-54236904D01*
X132627380Y-53665476D01*
X132627380Y-54284523D01*
X132627380Y-55236904D02*
X132627380Y-54665476D01*
X132627380Y-54951190D02*
X131627380Y-54951190D01*
X131770238Y-54855952D01*
X131865476Y-54760714D01*
X131913095Y-54665476D01*
X113577380Y-52760714D02*
X112577380Y-52760714D01*
X112577380Y-52998809D01*
X112625000Y-53141666D01*
X112720238Y-53236904D01*
X112815476Y-53284523D01*
X113005952Y-53332142D01*
X113148809Y-53332142D01*
X113339285Y-53284523D01*
X113434523Y-53236904D01*
X113529761Y-53141666D01*
X113577380Y-52998809D01*
X113577380Y-52760714D01*
X112672619Y-53713095D02*
X112625000Y-53760714D01*
X112577380Y-53855952D01*
X112577380Y-54094047D01*
X112625000Y-54189285D01*
X112672619Y-54236904D01*
X112767857Y-54284523D01*
X112863095Y-54284523D01*
X113005952Y-54236904D01*
X113577380Y-53665476D01*
X113577380Y-54284523D01*
X112577380Y-54903571D02*
X112577380Y-54998809D01*
X112625000Y-55094047D01*
X112672619Y-55141666D01*
X112767857Y-55189285D01*
X112958333Y-55236904D01*
X113196428Y-55236904D01*
X113386904Y-55189285D01*
X113482142Y-55141666D01*
X113529761Y-55094047D01*
X113577380Y-54998809D01*
X113577380Y-54903571D01*
X113529761Y-54808333D01*
X113482142Y-54760714D01*
X113386904Y-54713095D01*
X113196428Y-54665476D01*
X112958333Y-54665476D01*
X112767857Y-54713095D01*
X112672619Y-54760714D01*
X112625000Y-54808333D01*
X112577380Y-54903571D01*
X94527380Y-52760714D02*
X93527380Y-52760714D01*
X93527380Y-52998809D01*
X93575000Y-53141666D01*
X93670238Y-53236904D01*
X93765476Y-53284523D01*
X93955952Y-53332142D01*
X94098809Y-53332142D01*
X94289285Y-53284523D01*
X94384523Y-53236904D01*
X94479761Y-53141666D01*
X94527380Y-52998809D01*
X94527380Y-52760714D01*
X94527380Y-54284523D02*
X94527380Y-53713095D01*
X94527380Y-53998809D02*
X93527380Y-53998809D01*
X93670238Y-53903571D01*
X93765476Y-53808333D01*
X93813095Y-53713095D01*
X94527380Y-54760714D02*
X94527380Y-54951190D01*
X94479761Y-55046428D01*
X94432142Y-55094047D01*
X94289285Y-55189285D01*
X94098809Y-55236904D01*
X93717857Y-55236904D01*
X93622619Y-55189285D01*
X93575000Y-55141666D01*
X93527380Y-55046428D01*
X93527380Y-54855952D01*
X93575000Y-54760714D01*
X93622619Y-54713095D01*
X93717857Y-54665476D01*
X93955952Y-54665476D01*
X94051190Y-54713095D01*
X94098809Y-54760714D01*
X94146428Y-54855952D01*
X94146428Y-55046428D01*
X94098809Y-55141666D01*
X94051190Y-55189285D01*
X93955952Y-55236904D01*
X75477380Y-52760714D02*
X74477380Y-52760714D01*
X74477380Y-52998809D01*
X74525000Y-53141666D01*
X74620238Y-53236904D01*
X74715476Y-53284523D01*
X74905952Y-53332142D01*
X75048809Y-53332142D01*
X75239285Y-53284523D01*
X75334523Y-53236904D01*
X75429761Y-53141666D01*
X75477380Y-52998809D01*
X75477380Y-52760714D01*
X75477380Y-54284523D02*
X75477380Y-53713095D01*
X75477380Y-53998809D02*
X74477380Y-53998809D01*
X74620238Y-53903571D01*
X74715476Y-53808333D01*
X74763095Y-53713095D01*
X74905952Y-54855952D02*
X74858333Y-54760714D01*
X74810714Y-54713095D01*
X74715476Y-54665476D01*
X74667857Y-54665476D01*
X74572619Y-54713095D01*
X74525000Y-54760714D01*
X74477380Y-54855952D01*
X74477380Y-55046428D01*
X74525000Y-55141666D01*
X74572619Y-55189285D01*
X74667857Y-55236904D01*
X74715476Y-55236904D01*
X74810714Y-55189285D01*
X74858333Y-55141666D01*
X74905952Y-55046428D01*
X74905952Y-54855952D01*
X74953571Y-54760714D01*
X75001190Y-54713095D01*
X75096428Y-54665476D01*
X75286904Y-54665476D01*
X75382142Y-54713095D01*
X75429761Y-54760714D01*
X75477380Y-54855952D01*
X75477380Y-55046428D01*
X75429761Y-55141666D01*
X75382142Y-55189285D01*
X75286904Y-55236904D01*
X75096428Y-55236904D01*
X75001190Y-55189285D01*
X74953571Y-55141666D01*
X74905952Y-55046428D01*
X56427380Y-52760714D02*
X55427380Y-52760714D01*
X55427380Y-52998809D01*
X55475000Y-53141666D01*
X55570238Y-53236904D01*
X55665476Y-53284523D01*
X55855952Y-53332142D01*
X55998809Y-53332142D01*
X56189285Y-53284523D01*
X56284523Y-53236904D01*
X56379761Y-53141666D01*
X56427380Y-52998809D01*
X56427380Y-52760714D01*
X56427380Y-54284523D02*
X56427380Y-53713095D01*
X56427380Y-53998809D02*
X55427380Y-53998809D01*
X55570238Y-53903571D01*
X55665476Y-53808333D01*
X55713095Y-53713095D01*
X55427380Y-54617857D02*
X55427380Y-55284523D01*
X56427380Y-54855952D01*
X29948380Y-56189714D02*
X28948380Y-56189714D01*
X28948380Y-56427809D01*
X28996000Y-56570666D01*
X29091238Y-56665904D01*
X29186476Y-56713523D01*
X29376952Y-56761142D01*
X29519809Y-56761142D01*
X29710285Y-56713523D01*
X29805523Y-56665904D01*
X29900761Y-56570666D01*
X29948380Y-56427809D01*
X29948380Y-56189714D01*
X29948380Y-57713523D02*
X29948380Y-57142095D01*
X29948380Y-57427809D02*
X28948380Y-57427809D01*
X29091238Y-57332571D01*
X29186476Y-57237333D01*
X29234095Y-57142095D01*
X28948380Y-58570666D02*
X28948380Y-58380190D01*
X28996000Y-58284952D01*
X29043619Y-58237333D01*
X29186476Y-58142095D01*
X29376952Y-58094476D01*
X29757904Y-58094476D01*
X29853142Y-58142095D01*
X29900761Y-58189714D01*
X29948380Y-58284952D01*
X29948380Y-58475428D01*
X29900761Y-58570666D01*
X29853142Y-58618285D01*
X29757904Y-58665904D01*
X29519809Y-58665904D01*
X29424571Y-58618285D01*
X29376952Y-58570666D01*
X29329333Y-58475428D01*
X29329333Y-58284952D01*
X29376952Y-58189714D01*
X29424571Y-58142095D01*
X29519809Y-58094476D01*
X260421130Y-33710714D02*
X259421130Y-33710714D01*
X259421130Y-33948809D01*
X259468750Y-34091666D01*
X259563988Y-34186904D01*
X259659226Y-34234523D01*
X259849702Y-34282142D01*
X259992559Y-34282142D01*
X260183035Y-34234523D01*
X260278273Y-34186904D01*
X260373511Y-34091666D01*
X260421130Y-33948809D01*
X260421130Y-33710714D01*
X260421130Y-35234523D02*
X260421130Y-34663095D01*
X260421130Y-34948809D02*
X259421130Y-34948809D01*
X259563988Y-34853571D01*
X259659226Y-34758333D01*
X259706845Y-34663095D01*
X259421130Y-36139285D02*
X259421130Y-35663095D01*
X259897321Y-35615476D01*
X259849702Y-35663095D01*
X259802083Y-35758333D01*
X259802083Y-35996428D01*
X259849702Y-36091666D01*
X259897321Y-36139285D01*
X259992559Y-36186904D01*
X260230654Y-36186904D01*
X260325892Y-36139285D01*
X260373511Y-36091666D01*
X260421130Y-35996428D01*
X260421130Y-35758333D01*
X260373511Y-35663095D01*
X260325892Y-35615476D01*
X256452380Y-33710714D02*
X255452380Y-33710714D01*
X255452380Y-33948809D01*
X255500000Y-34091666D01*
X255595238Y-34186904D01*
X255690476Y-34234523D01*
X255880952Y-34282142D01*
X256023809Y-34282142D01*
X256214285Y-34234523D01*
X256309523Y-34186904D01*
X256404761Y-34091666D01*
X256452380Y-33948809D01*
X256452380Y-33710714D01*
X256452380Y-35234523D02*
X256452380Y-34663095D01*
X256452380Y-34948809D02*
X255452380Y-34948809D01*
X255595238Y-34853571D01*
X255690476Y-34758333D01*
X255738095Y-34663095D01*
X255785714Y-36091666D02*
X256452380Y-36091666D01*
X255404761Y-35853571D02*
X256119047Y-35615476D01*
X256119047Y-36234523D01*
X240450380Y-33710714D02*
X239450380Y-33710714D01*
X239450380Y-33948809D01*
X239498000Y-34091666D01*
X239593238Y-34186904D01*
X239688476Y-34234523D01*
X239878952Y-34282142D01*
X240021809Y-34282142D01*
X240212285Y-34234523D01*
X240307523Y-34186904D01*
X240402761Y-34091666D01*
X240450380Y-33948809D01*
X240450380Y-33710714D01*
X240450380Y-35234523D02*
X240450380Y-34663095D01*
X240450380Y-34948809D02*
X239450380Y-34948809D01*
X239593238Y-34853571D01*
X239688476Y-34758333D01*
X239736095Y-34663095D01*
X239450380Y-35567857D02*
X239450380Y-36186904D01*
X239831333Y-35853571D01*
X239831333Y-35996428D01*
X239878952Y-36091666D01*
X239926571Y-36139285D01*
X240021809Y-36186904D01*
X240259904Y-36186904D01*
X240355142Y-36139285D01*
X240402761Y-36091666D01*
X240450380Y-35996428D01*
X240450380Y-35710714D01*
X240402761Y-35615476D01*
X240355142Y-35567857D01*
X237402380Y-33710714D02*
X236402380Y-33710714D01*
X236402380Y-33948809D01*
X236450000Y-34091666D01*
X236545238Y-34186904D01*
X236640476Y-34234523D01*
X236830952Y-34282142D01*
X236973809Y-34282142D01*
X237164285Y-34234523D01*
X237259523Y-34186904D01*
X237354761Y-34091666D01*
X237402380Y-33948809D01*
X237402380Y-33710714D01*
X237402380Y-35234523D02*
X237402380Y-34663095D01*
X237402380Y-34948809D02*
X236402380Y-34948809D01*
X236545238Y-34853571D01*
X236640476Y-34758333D01*
X236688095Y-34663095D01*
X236497619Y-35615476D02*
X236450000Y-35663095D01*
X236402380Y-35758333D01*
X236402380Y-35996428D01*
X236450000Y-36091666D01*
X236497619Y-36139285D01*
X236592857Y-36186904D01*
X236688095Y-36186904D01*
X236830952Y-36139285D01*
X237402380Y-35567857D01*
X237402380Y-36186904D01*
X218352380Y-33710714D02*
X217352380Y-33710714D01*
X217352380Y-33948809D01*
X217400000Y-34091666D01*
X217495238Y-34186904D01*
X217590476Y-34234523D01*
X217780952Y-34282142D01*
X217923809Y-34282142D01*
X218114285Y-34234523D01*
X218209523Y-34186904D01*
X218304761Y-34091666D01*
X218352380Y-33948809D01*
X218352380Y-33710714D01*
X218352380Y-35234523D02*
X218352380Y-34663095D01*
X218352380Y-34948809D02*
X217352380Y-34948809D01*
X217495238Y-34853571D01*
X217590476Y-34758333D01*
X217638095Y-34663095D01*
X218352380Y-36186904D02*
X218352380Y-35615476D01*
X218352380Y-35901190D02*
X217352380Y-35901190D01*
X217495238Y-35805952D01*
X217590476Y-35710714D01*
X217638095Y-35615476D01*
X199302380Y-33710714D02*
X198302380Y-33710714D01*
X198302380Y-33948809D01*
X198350000Y-34091666D01*
X198445238Y-34186904D01*
X198540476Y-34234523D01*
X198730952Y-34282142D01*
X198873809Y-34282142D01*
X199064285Y-34234523D01*
X199159523Y-34186904D01*
X199254761Y-34091666D01*
X199302380Y-33948809D01*
X199302380Y-33710714D01*
X199302380Y-35234523D02*
X199302380Y-34663095D01*
X199302380Y-34948809D02*
X198302380Y-34948809D01*
X198445238Y-34853571D01*
X198540476Y-34758333D01*
X198588095Y-34663095D01*
X198302380Y-35853571D02*
X198302380Y-35948809D01*
X198350000Y-36044047D01*
X198397619Y-36091666D01*
X198492857Y-36139285D01*
X198683333Y-36186904D01*
X198921428Y-36186904D01*
X199111904Y-36139285D01*
X199207142Y-36091666D01*
X199254761Y-36044047D01*
X199302380Y-35948809D01*
X199302380Y-35853571D01*
X199254761Y-35758333D01*
X199207142Y-35710714D01*
X199111904Y-35663095D01*
X198921428Y-35615476D01*
X198683333Y-35615476D01*
X198492857Y-35663095D01*
X198397619Y-35710714D01*
X198350000Y-35758333D01*
X198302380Y-35853571D01*
X180252380Y-34186904D02*
X179252380Y-34186904D01*
X179252380Y-34425000D01*
X179300000Y-34567857D01*
X179395238Y-34663095D01*
X179490476Y-34710714D01*
X179680952Y-34758333D01*
X179823809Y-34758333D01*
X180014285Y-34710714D01*
X180109523Y-34663095D01*
X180204761Y-34567857D01*
X180252380Y-34425000D01*
X180252380Y-34186904D01*
X180252380Y-35234523D02*
X180252380Y-35425000D01*
X180204761Y-35520238D01*
X180157142Y-35567857D01*
X180014285Y-35663095D01*
X179823809Y-35710714D01*
X179442857Y-35710714D01*
X179347619Y-35663095D01*
X179300000Y-35615476D01*
X179252380Y-35520238D01*
X179252380Y-35329761D01*
X179300000Y-35234523D01*
X179347619Y-35186904D01*
X179442857Y-35139285D01*
X179680952Y-35139285D01*
X179776190Y-35186904D01*
X179823809Y-35234523D01*
X179871428Y-35329761D01*
X179871428Y-35520238D01*
X179823809Y-35615476D01*
X179776190Y-35663095D01*
X179680952Y-35710714D01*
X161202380Y-34186904D02*
X160202380Y-34186904D01*
X160202380Y-34425000D01*
X160250000Y-34567857D01*
X160345238Y-34663095D01*
X160440476Y-34710714D01*
X160630952Y-34758333D01*
X160773809Y-34758333D01*
X160964285Y-34710714D01*
X161059523Y-34663095D01*
X161154761Y-34567857D01*
X161202380Y-34425000D01*
X161202380Y-34186904D01*
X160630952Y-35329761D02*
X160583333Y-35234523D01*
X160535714Y-35186904D01*
X160440476Y-35139285D01*
X160392857Y-35139285D01*
X160297619Y-35186904D01*
X160250000Y-35234523D01*
X160202380Y-35329761D01*
X160202380Y-35520238D01*
X160250000Y-35615476D01*
X160297619Y-35663095D01*
X160392857Y-35710714D01*
X160440476Y-35710714D01*
X160535714Y-35663095D01*
X160583333Y-35615476D01*
X160630952Y-35520238D01*
X160630952Y-35329761D01*
X160678571Y-35234523D01*
X160726190Y-35186904D01*
X160821428Y-35139285D01*
X161011904Y-35139285D01*
X161107142Y-35186904D01*
X161154761Y-35234523D01*
X161202380Y-35329761D01*
X161202380Y-35520238D01*
X161154761Y-35615476D01*
X161107142Y-35663095D01*
X161011904Y-35710714D01*
X160821428Y-35710714D01*
X160726190Y-35663095D01*
X160678571Y-35615476D01*
X160630952Y-35520238D01*
X142152380Y-34186904D02*
X141152380Y-34186904D01*
X141152380Y-34425000D01*
X141200000Y-34567857D01*
X141295238Y-34663095D01*
X141390476Y-34710714D01*
X141580952Y-34758333D01*
X141723809Y-34758333D01*
X141914285Y-34710714D01*
X142009523Y-34663095D01*
X142104761Y-34567857D01*
X142152380Y-34425000D01*
X142152380Y-34186904D01*
X141152380Y-35091666D02*
X141152380Y-35758333D01*
X142152380Y-35329761D01*
X123102380Y-34186904D02*
X122102380Y-34186904D01*
X122102380Y-34425000D01*
X122150000Y-34567857D01*
X122245238Y-34663095D01*
X122340476Y-34710714D01*
X122530952Y-34758333D01*
X122673809Y-34758333D01*
X122864285Y-34710714D01*
X122959523Y-34663095D01*
X123054761Y-34567857D01*
X123102380Y-34425000D01*
X123102380Y-34186904D01*
X122102380Y-35615476D02*
X122102380Y-35425000D01*
X122150000Y-35329761D01*
X122197619Y-35282142D01*
X122340476Y-35186904D01*
X122530952Y-35139285D01*
X122911904Y-35139285D01*
X123007142Y-35186904D01*
X123054761Y-35234523D01*
X123102380Y-35329761D01*
X123102380Y-35520238D01*
X123054761Y-35615476D01*
X123007142Y-35663095D01*
X122911904Y-35710714D01*
X122673809Y-35710714D01*
X122578571Y-35663095D01*
X122530952Y-35615476D01*
X122483333Y-35520238D01*
X122483333Y-35329761D01*
X122530952Y-35234523D01*
X122578571Y-35186904D01*
X122673809Y-35139285D01*
X104052380Y-34124404D02*
X103052380Y-34124404D01*
X103052380Y-34362500D01*
X103100000Y-34505357D01*
X103195238Y-34600595D01*
X103290476Y-34648214D01*
X103480952Y-34695833D01*
X103623809Y-34695833D01*
X103814285Y-34648214D01*
X103909523Y-34600595D01*
X104004761Y-34505357D01*
X104052380Y-34362500D01*
X104052380Y-34124404D01*
X103052380Y-35600595D02*
X103052380Y-35124404D01*
X103528571Y-35076785D01*
X103480952Y-35124404D01*
X103433333Y-35219642D01*
X103433333Y-35457738D01*
X103480952Y-35552976D01*
X103528571Y-35600595D01*
X103623809Y-35648214D01*
X103861904Y-35648214D01*
X103957142Y-35600595D01*
X104004761Y-35552976D01*
X104052380Y-35457738D01*
X104052380Y-35219642D01*
X104004761Y-35124404D01*
X103957142Y-35076785D01*
X85002380Y-34124404D02*
X84002380Y-34124404D01*
X84002380Y-34362500D01*
X84050000Y-34505357D01*
X84145238Y-34600595D01*
X84240476Y-34648214D01*
X84430952Y-34695833D01*
X84573809Y-34695833D01*
X84764285Y-34648214D01*
X84859523Y-34600595D01*
X84954761Y-34505357D01*
X85002380Y-34362500D01*
X85002380Y-34124404D01*
X84335714Y-35552976D02*
X85002380Y-35552976D01*
X83954761Y-35314880D02*
X84669047Y-35076785D01*
X84669047Y-35695833D01*
X65952380Y-34124404D02*
X64952380Y-34124404D01*
X64952380Y-34362500D01*
X65000000Y-34505357D01*
X65095238Y-34600595D01*
X65190476Y-34648214D01*
X65380952Y-34695833D01*
X65523809Y-34695833D01*
X65714285Y-34648214D01*
X65809523Y-34600595D01*
X65904761Y-34505357D01*
X65952380Y-34362500D01*
X65952380Y-34124404D01*
X64952380Y-35029166D02*
X64952380Y-35648214D01*
X65333333Y-35314880D01*
X65333333Y-35457738D01*
X65380952Y-35552976D01*
X65428571Y-35600595D01*
X65523809Y-35648214D01*
X65761904Y-35648214D01*
X65857142Y-35600595D01*
X65904761Y-35552976D01*
X65952380Y-35457738D01*
X65952380Y-35172023D01*
X65904761Y-35076785D01*
X65857142Y-35029166D01*
X46902380Y-34124404D02*
X45902380Y-34124404D01*
X45902380Y-34362500D01*
X45950000Y-34505357D01*
X46045238Y-34600595D01*
X46140476Y-34648214D01*
X46330952Y-34695833D01*
X46473809Y-34695833D01*
X46664285Y-34648214D01*
X46759523Y-34600595D01*
X46854761Y-34505357D01*
X46902380Y-34362500D01*
X46902380Y-34124404D01*
X45997619Y-35076785D02*
X45950000Y-35124404D01*
X45902380Y-35219642D01*
X45902380Y-35457738D01*
X45950000Y-35552976D01*
X45997619Y-35600595D01*
X46092857Y-35648214D01*
X46188095Y-35648214D01*
X46330952Y-35600595D01*
X46902380Y-35029166D01*
X46902380Y-35648214D01*
X22264880Y-37361904D02*
X21264880Y-37361904D01*
X21264880Y-37600000D01*
X21312500Y-37742857D01*
X21407738Y-37838095D01*
X21502976Y-37885714D01*
X21693452Y-37933333D01*
X21836309Y-37933333D01*
X22026785Y-37885714D01*
X22122023Y-37838095D01*
X22217261Y-37742857D01*
X22264880Y-37600000D01*
X22264880Y-37361904D01*
X22264880Y-38885714D02*
X22264880Y-38314285D01*
X22264880Y-38600000D02*
X21264880Y-38600000D01*
X21407738Y-38504761D01*
X21502976Y-38409523D01*
X21550595Y-38314285D01*
M02*
