M48
; DRILL file {KiCad (5.1.5)-3} date 4/19/2020 8:41:12 PM
; FORMAT={-:-/ absolute / inch / decimal}
; #@! TF.CreationDate,2020-04-19T20:41:12-04:00
; #@! TF.GenerationSoftware,Kicad,Pcbnew,(5.1.5)-3
; #@! TF.FileFunction,Plated,1,2,PTH
FMAT,2
INCH
T1C0.0157
T2C0.0197
T3C0.0236
T4C0.0315
T5C0.0551
T6C0.0984
T7C0.0984
%
G90
G05
T1
X0.875Y-1.4375
X0.95Y-1.02
X1.134Y-2.19
X1.14Y-1.02
X1.274Y-1.437
X1.318Y-2.94
X1.33Y-2.16
X1.495Y-3.1175
X1.4975Y-2.8575
X1.515Y-3.4325
X1.5375Y-2.9075
X1.5375Y-2.99
X1.6175Y-3.0825
X1.645Y-2.191
X1.6725Y-2.8525
X1.736Y-3.69
X1.7725Y-2.695
X1.78Y-2.99
X1.8025Y-2.85
X1.839Y-2.94
X2.0525Y-2.9975
X2.0725Y-3.535
X2.1Y-3.18
X2.142Y-3.69
X2.16Y-3.495
X7.4175Y-3.72
X8.16Y-3.725
X8.94Y-3.7375
X9.6675Y-3.7675
X10.1443Y-3.8568
X10.965Y-3.93
T2
X0.3965Y-2.8536
X0.3965Y-3.0583
X0.4769Y-2.8536
X0.4769Y-3.0583
X0.5493Y-2.8836
X0.5493Y-3.0283
X0.5792Y-2.956
X1.2288Y-1.83
X1.2554Y-1.7659
X1.2554Y-1.894
X1.3194Y-1.7394
X1.3194Y-1.9205
X1.3834Y-1.7659
X1.3834Y-1.894
X1.4099Y-1.83
X5.3273Y-2.4914
X5.3273Y-2.6725
X5.3745Y-2.4914
X5.3745Y-2.6725
X5.4218Y-2.4914
X5.4218Y-2.6725
X7.78Y-3.9953
X7.78Y-4.1764
X7.8273Y-3.9953
X7.8273Y-4.1764
X7.8745Y-3.9953
X7.8745Y-4.1764
X10.5182Y-1.7394
X10.5182Y-1.9205
X10.5655Y-1.7394
X10.5655Y-1.9205
X10.6127Y-1.7388
X10.6127Y-1.9205
X11.2958Y-2.956
X11.3257Y-2.8836
X11.3257Y-3.0283
X11.3981Y-2.8536
X11.3981Y-3.0583
X11.4785Y-2.8536
X11.4785Y-3.0583
T4
X2.1173Y-2.98
X2.196Y-2.98
T5
X10.5888Y-2.5686
X10.5888Y-2.7937
X10.8487Y-2.5686
X10.8487Y-2.7937
X1.6826Y-4.0686
X1.6826Y-4.2938
X1.9424Y-4.0686
X1.9424Y-4.2938
X2.9951Y-3.3186
X2.9951Y-3.5437
X3.2549Y-3.3186
X3.2549Y-3.5437
X8.2451Y-3.3186
X8.2451Y-3.5437
X8.5049Y-3.3186
X8.5049Y-3.5437
X3.3701Y-2.5686
X3.3701Y-2.7937
X3.6299Y-2.5686
X3.6299Y-2.7937
X5.4326Y-1.8186
X5.4326Y-2.0437
X5.6924Y-1.8186
X5.6924Y-2.0437
X1.6826Y-1.8186
X1.6826Y-2.0437
X1.9424Y-1.8186
X1.9424Y-2.0437
X9.9326Y-1.8186
X9.9326Y-2.0437
X10.1924Y-1.8186
X10.1924Y-2.0437
X6.7451Y-3.3186
X6.7451Y-3.5437
X7.0049Y-3.3186
X7.0049Y-3.5437
X7.4951Y-3.3186
X7.4951Y-3.5437
X7.7549Y-3.3186
X7.7549Y-3.5437
X7.8701Y-2.5686
X7.8701Y-2.7937
X8.1299Y-2.5686
X8.1299Y-2.7937
X8.4326Y-1.8186
X8.4326Y-2.0437
X8.6924Y-1.8186
X8.6924Y-2.0437
X7.3076Y-1.0686
X7.3076Y-1.2937
X7.5674Y-1.0686
X7.5674Y-1.2937
X4.875Y-2.5686
X4.875Y-2.7937
X5.1348Y-2.5686
X5.1348Y-2.7937
X3.5576Y-1.0686
X3.5576Y-1.2937
X3.8174Y-1.0686
X3.8174Y-1.2937
X1.3076Y-1.0686
X1.3076Y-1.2937
X1.5674Y-1.0686
X1.5674Y-1.2937
X5.8076Y-4.0686
X5.8076Y-4.2938
X6.0674Y-4.0686
X6.0674Y-4.2938
X10.4013Y-3.3186
X10.4013Y-3.5437
X10.6612Y-3.3186
X10.6612Y-3.5437
X8.9951Y-3.3186
X8.9951Y-3.5437
X9.2549Y-3.3186
X9.2549Y-3.5437
X2.2451Y-3.3186
X2.2451Y-3.5437
X2.5049Y-3.3186
X2.5049Y-3.5437
X2.6201Y-2.5686
X2.6201Y-2.7937
X2.8799Y-2.5686
X2.8799Y-2.7937
X11.0576Y-1.0686
X11.0576Y-1.2937
X11.3174Y-1.0686
X11.3174Y-1.2937
X3.1826Y-1.8186
X3.1826Y-2.0437
X3.4424Y-1.8186
X3.4424Y-2.0437
X6.5576Y-1.0686
X6.5576Y-1.2937
X6.8174Y-1.0686
X6.8174Y-1.2937
X9.5576Y-1.0686
X9.5576Y-1.2937
X9.8174Y-1.0686
X9.8174Y-1.2937
X10.7873Y-2.0888
X10.7873Y-2.3487
X11.0125Y-2.0888
X11.0125Y-2.3487
X5.2451Y-3.3186
X5.2451Y-3.5437
X5.5049Y-3.3186
X5.5049Y-3.5437
X1.0263Y-3.3186
X1.0263Y-3.5437
X1.2862Y-3.3186
X1.2862Y-3.5437
X4.4951Y-3.3186
X4.4951Y-3.5437
X4.7549Y-3.3186
X4.7549Y-3.5437
X0.8388Y-2.5686
X0.8388Y-2.7937
X1.0987Y-2.5686
X1.0987Y-2.7937
X0.5576Y-1.0686
X0.5576Y-1.2937
X0.8174Y-1.0686
X0.8174Y-1.2937
X3.9326Y-1.8186
X3.9326Y-2.0437
X4.1924Y-1.8186
X4.1924Y-2.0437
X4.3076Y-1.0686
X4.3076Y-1.2937
X4.5674Y-1.0686
X4.5674Y-1.2937
X5.0576Y-1.0686
X5.0576Y-1.2937
X5.3174Y-1.0686
X5.3174Y-1.2937
X10.6826Y-1.0686
X10.6826Y-1.2937
X10.9424Y-1.0686
X10.9424Y-1.2937
X10.8701Y-4.0686
X10.8701Y-4.2938
X11.1299Y-4.0686
X11.1299Y-4.2938
X5.6201Y-2.5686
X5.6201Y-2.7937
X5.8799Y-2.5686
X5.8799Y-2.7937
X6.3701Y-2.5686
X6.3701Y-2.7937
X6.6299Y-2.5686
X6.6299Y-2.7937
X5.9951Y-3.3186
X5.9951Y-3.5437
X6.2549Y-3.3186
X6.2549Y-3.5437
X10.8701Y-1.8186
X10.8701Y-2.0437
X11.1299Y-1.8186
X11.1299Y-2.0437
X9.1826Y-1.8186
X9.1826Y-2.0437
X9.4424Y-1.8186
X9.4424Y-2.0437
X2.0576Y-1.0686
X2.0576Y-1.2937
X2.3174Y-1.0686
X2.3174Y-1.2937
X4.6826Y-1.8186
X4.6826Y-2.0437
X4.9424Y-1.8186
X4.9424Y-2.0437
X8.0576Y-1.0686
X8.0576Y-1.2937
X8.3174Y-1.0686
X8.3174Y-1.2937
X5.8076Y-1.0686
X5.8076Y-1.2937
X6.0674Y-1.0686
X6.0674Y-1.2937
X2.6201Y-4.0686
X2.6201Y-4.2938
X2.8799Y-4.0686
X2.8799Y-4.2938
X9.9326Y-4.0686
X9.9326Y-4.2938
X10.1924Y-4.0686
X10.1924Y-4.2938
X3.7451Y-3.3186
X3.7451Y-3.5437
X4.0049Y-3.3186
X4.0049Y-3.5437
X7.1201Y-2.5686
X7.1201Y-2.7937
X7.3799Y-2.5686
X7.3799Y-2.7937
X1.8701Y-2.5686
X1.8701Y-2.7937
X2.1299Y-2.5686
X2.1299Y-2.7937
X6.1826Y-1.8186
X6.1826Y-2.0437
X6.4424Y-1.8186
X6.4424Y-2.0437
X8.8076Y-1.0686
X8.8076Y-1.2937
X9.0674Y-1.0686
X9.0674Y-1.2937
X6.9326Y-1.8186
X6.9326Y-2.0437
X7.1924Y-1.8186
X7.1924Y-2.0437
X10.3076Y-1.0686
X10.3076Y-1.2937
X10.5674Y-1.0686
X10.5674Y-1.2937
X8.9951Y-4.0686
X8.9951Y-4.2938
X9.2549Y-4.0686
X9.2549Y-4.2938
X0.7451Y-4.0686
X0.7451Y-4.2938
X1.0049Y-4.0686
X1.0049Y-4.2938
X8.6201Y-2.5686
X8.6201Y-2.7937
X8.8799Y-2.5686
X8.8799Y-2.7937
X9.3701Y-2.5686
X9.3701Y-2.7937
X9.6299Y-2.5686
X9.6299Y-2.7937
X4.1201Y-2.5686
X4.1201Y-2.7937
X4.3799Y-2.5686
X4.3799Y-2.7937
X2.4326Y-1.8186
X2.4326Y-2.0437
X2.6924Y-1.8186
X2.6924Y-2.0437
X0.7451Y-1.8186
X0.7451Y-2.0437
X1.0049Y-1.8186
X1.0049Y-2.0437
X7.6826Y-1.8186
X7.6826Y-2.0437
X7.9424Y-1.8186
X7.9424Y-2.0437
X2.8076Y-1.0686
X2.8076Y-1.2937
X3.0674Y-1.0686
X3.0674Y-1.2937
T7
X1.3194Y-1.83
T3
G00X0.8752Y-0.7468
M15
G01X0.8752Y-0.7704
M16
G05
G00X0.8752Y-0.9015
M15
G01X0.8752Y-0.9448
M16
G05
G00X1.2154Y-0.7468
M15
G01X1.2154Y-0.7704
M16
G05
G00X1.2154Y-0.9015
M15
G01X1.2154Y-0.9448
M16
G05
T6
G00X5.3253Y-2.5819
M15
G01X5.4238Y-2.5819
M16
G05
G00X7.778Y-4.0859
M15
G01X7.8765Y-4.0859
M16
G05
G00X10.5162Y-1.83
M15
G01X10.6147Y-1.83
M16
G05
T0
M30
