G04 #@! TF.GenerationSoftware,KiCad,Pcbnew,(5.1.5)-3*
G04 #@! TF.CreationDate,2020-04-19T20:41:11-04:00*
G04 #@! TF.ProjectId,Squid60,53717569-6436-4302-9e6b-696361645f70,rev?*
G04 #@! TF.SameCoordinates,Original*
G04 #@! TF.FileFunction,Soldermask,Top*
G04 #@! TF.FilePolarity,Negative*
%FSLAX46Y46*%
G04 Gerber Fmt 4.6, Leading zero omitted, Abs format (unit mm)*
G04 Created by KiCad (PCBNEW (5.1.5)-3) date 2020-04-19 20:41:11*
%MOMM*%
%LPD*%
G04 APERTURE LIST*
%ADD10C,2.501900*%
%ADD11C,0.100000*%
G04 APERTURE END LIST*
D10*
X289512500Y-72430300D02*
X293312500Y-72430300D01*
X286861550Y-75081250D02*
G75*
G02X289512500Y-72430300I2650950J0D01*
G01*
X289512500Y-77732200D02*
G75*
G02X286861550Y-75081250I0J2650950D01*
G01*
X289512500Y-77732200D02*
X293362500Y-77732200D01*
X8312500Y-72430300D02*
X12112500Y-72430300D01*
X14763450Y-75081250D02*
G75*
G03X12112500Y-72430300I-2650950J0D01*
G01*
X12112500Y-77732200D02*
G75*
G03X14763450Y-75081250I0J2650950D01*
G01*
X8312500Y-77732200D02*
X12112500Y-77732200D01*
D11*
G36*
X199848322Y-100366597D02*
G01*
X200494584Y-100634288D01*
X200494586Y-100634289D01*
X201076207Y-101022915D01*
X201570835Y-101517543D01*
X201959461Y-102099164D01*
X201959462Y-102099166D01*
X202227153Y-102745428D01*
X202363620Y-103431494D01*
X202363620Y-104131006D01*
X202227153Y-104817072D01*
X201959462Y-105463334D01*
X201959461Y-105463336D01*
X201570835Y-106044957D01*
X201076207Y-106539585D01*
X200494586Y-106928211D01*
X200494585Y-106928212D01*
X200494584Y-106928212D01*
X199848322Y-107195903D01*
X199162256Y-107332370D01*
X198462744Y-107332370D01*
X197776678Y-107195903D01*
X197130416Y-106928212D01*
X197130415Y-106928212D01*
X197130414Y-106928211D01*
X196548793Y-106539585D01*
X196054165Y-106044957D01*
X195665539Y-105463336D01*
X195665538Y-105463334D01*
X195397847Y-104817072D01*
X195261380Y-104131006D01*
X195261380Y-103431494D01*
X195397847Y-102745428D01*
X195665538Y-102099166D01*
X195665539Y-102099164D01*
X196054165Y-101517543D01*
X196548793Y-101022915D01*
X197130414Y-100634289D01*
X197130416Y-100634288D01*
X197776678Y-100366597D01*
X198462744Y-100230130D01*
X199162256Y-100230130D01*
X199848322Y-100366597D01*
G37*
G36*
X291715256Y-77151424D02*
G01*
X291815530Y-77192959D01*
X291815531Y-77192960D01*
X291905777Y-77253260D01*
X291982525Y-77330008D01*
X291982526Y-77330010D01*
X292042826Y-77420255D01*
X292084361Y-77520529D01*
X292105535Y-77626980D01*
X292105535Y-77735520D01*
X292084361Y-77841971D01*
X292042826Y-77942245D01*
X292042825Y-77942246D01*
X291982525Y-78032492D01*
X291905777Y-78109240D01*
X291860347Y-78139595D01*
X291815530Y-78169541D01*
X291715256Y-78211076D01*
X291608805Y-78232250D01*
X291500265Y-78232250D01*
X291393814Y-78211076D01*
X291293540Y-78169541D01*
X291248723Y-78139595D01*
X291203293Y-78109240D01*
X291126545Y-78032492D01*
X291066245Y-77942246D01*
X291066244Y-77942245D01*
X291024709Y-77841971D01*
X291003535Y-77735520D01*
X291003535Y-77626980D01*
X291024709Y-77520529D01*
X291066244Y-77420255D01*
X291126544Y-77330010D01*
X291126545Y-77330008D01*
X291203293Y-77253260D01*
X291293539Y-77192960D01*
X291293540Y-77192959D01*
X291393814Y-77151424D01*
X291500265Y-77130250D01*
X291608805Y-77130250D01*
X291715256Y-77151424D01*
G37*
G36*
X12273221Y-77151424D02*
G01*
X12373495Y-77192959D01*
X12373496Y-77192960D01*
X12463742Y-77253260D01*
X12540490Y-77330008D01*
X12540491Y-77330010D01*
X12600791Y-77420255D01*
X12642326Y-77520529D01*
X12663500Y-77626980D01*
X12663500Y-77735520D01*
X12642326Y-77841971D01*
X12600791Y-77942245D01*
X12600790Y-77942246D01*
X12540490Y-78032492D01*
X12463742Y-78109240D01*
X12418312Y-78139595D01*
X12373495Y-78169541D01*
X12273221Y-78211076D01*
X12166770Y-78232250D01*
X12058230Y-78232250D01*
X11951779Y-78211076D01*
X11851505Y-78169541D01*
X11806688Y-78139595D01*
X11761258Y-78109240D01*
X11684510Y-78032492D01*
X11624210Y-77942246D01*
X11624209Y-77942245D01*
X11582674Y-77841971D01*
X11561500Y-77735520D01*
X11561500Y-77626980D01*
X11582674Y-77520529D01*
X11624209Y-77420255D01*
X11684509Y-77330010D01*
X11684510Y-77330008D01*
X11761258Y-77253260D01*
X11851504Y-77192960D01*
X11851505Y-77192959D01*
X11951779Y-77151424D01*
X12058230Y-77130250D01*
X12166770Y-77130250D01*
X12273221Y-77151424D01*
G37*
G36*
X10231186Y-77151424D02*
G01*
X10331460Y-77192959D01*
X10331461Y-77192960D01*
X10421707Y-77253260D01*
X10498455Y-77330008D01*
X10498456Y-77330010D01*
X10558756Y-77420255D01*
X10600291Y-77520529D01*
X10621465Y-77626980D01*
X10621465Y-77735520D01*
X10600291Y-77841971D01*
X10558756Y-77942245D01*
X10558755Y-77942246D01*
X10498455Y-78032492D01*
X10421707Y-78109240D01*
X10376277Y-78139595D01*
X10331460Y-78169541D01*
X10231186Y-78211076D01*
X10124735Y-78232250D01*
X10016195Y-78232250D01*
X9909744Y-78211076D01*
X9809470Y-78169541D01*
X9764653Y-78139595D01*
X9719223Y-78109240D01*
X9642475Y-78032492D01*
X9582175Y-77942246D01*
X9582174Y-77942245D01*
X9540639Y-77841971D01*
X9519465Y-77735520D01*
X9519465Y-77626980D01*
X9540639Y-77520529D01*
X9582174Y-77420255D01*
X9642474Y-77330010D01*
X9642475Y-77330008D01*
X9719223Y-77253260D01*
X9809469Y-77192960D01*
X9809470Y-77192959D01*
X9909744Y-77151424D01*
X10016195Y-77130250D01*
X10124735Y-77130250D01*
X10231186Y-77151424D01*
G37*
G36*
X289673221Y-77151424D02*
G01*
X289773495Y-77192959D01*
X289773496Y-77192960D01*
X289863742Y-77253260D01*
X289940490Y-77330008D01*
X289940491Y-77330010D01*
X290000791Y-77420255D01*
X290042326Y-77520529D01*
X290063500Y-77626980D01*
X290063500Y-77735520D01*
X290042326Y-77841971D01*
X290000791Y-77942245D01*
X290000790Y-77942246D01*
X289940490Y-78032492D01*
X289863742Y-78109240D01*
X289818312Y-78139595D01*
X289773495Y-78169541D01*
X289673221Y-78211076D01*
X289566770Y-78232250D01*
X289458230Y-78232250D01*
X289351779Y-78211076D01*
X289251505Y-78169541D01*
X289206688Y-78139595D01*
X289161258Y-78109240D01*
X289084510Y-78032492D01*
X289024210Y-77942246D01*
X289024209Y-77942245D01*
X288982674Y-77841971D01*
X288961500Y-77735520D01*
X288961500Y-77626980D01*
X288982674Y-77520529D01*
X289024209Y-77420255D01*
X289084509Y-77330010D01*
X289084510Y-77330008D01*
X289161258Y-77253260D01*
X289251504Y-77192960D01*
X289251505Y-77192959D01*
X289351779Y-77151424D01*
X289458230Y-77130250D01*
X289566770Y-77130250D01*
X289673221Y-77151424D01*
G37*
G36*
X287834743Y-76389902D02*
G01*
X287935017Y-76431437D01*
X287935018Y-76431438D01*
X288025264Y-76491738D01*
X288102012Y-76568486D01*
X288102013Y-76568488D01*
X288162313Y-76658733D01*
X288203848Y-76759007D01*
X288225022Y-76865458D01*
X288225022Y-76973998D01*
X288203848Y-77080449D01*
X288162313Y-77180723D01*
X288162312Y-77180724D01*
X288102012Y-77270970D01*
X288025264Y-77347718D01*
X287979834Y-77378073D01*
X287935017Y-77408019D01*
X287834743Y-77449554D01*
X287728292Y-77470728D01*
X287619752Y-77470728D01*
X287513301Y-77449554D01*
X287413027Y-77408019D01*
X287368210Y-77378073D01*
X287322780Y-77347718D01*
X287246032Y-77270970D01*
X287185732Y-77180724D01*
X287185731Y-77180723D01*
X287144196Y-77080449D01*
X287123022Y-76973998D01*
X287123022Y-76865458D01*
X287144196Y-76759007D01*
X287185731Y-76658733D01*
X287246031Y-76568488D01*
X287246032Y-76568486D01*
X287322780Y-76491738D01*
X287413026Y-76431438D01*
X287413027Y-76431437D01*
X287513301Y-76389902D01*
X287619752Y-76368728D01*
X287728292Y-76368728D01*
X287834743Y-76389902D01*
G37*
G36*
X14111699Y-76389902D02*
G01*
X14211973Y-76431437D01*
X14211974Y-76431438D01*
X14302220Y-76491738D01*
X14378968Y-76568486D01*
X14378969Y-76568488D01*
X14439269Y-76658733D01*
X14480804Y-76759007D01*
X14501978Y-76865458D01*
X14501978Y-76973998D01*
X14480804Y-77080449D01*
X14439269Y-77180723D01*
X14439268Y-77180724D01*
X14378968Y-77270970D01*
X14302220Y-77347718D01*
X14256790Y-77378073D01*
X14211973Y-77408019D01*
X14111699Y-77449554D01*
X14005248Y-77470728D01*
X13896708Y-77470728D01*
X13790257Y-77449554D01*
X13689983Y-77408019D01*
X13645166Y-77378073D01*
X13599736Y-77347718D01*
X13522988Y-77270970D01*
X13462688Y-77180724D01*
X13462687Y-77180723D01*
X13421152Y-77080449D01*
X13399978Y-76973998D01*
X13399978Y-76865458D01*
X13421152Y-76759007D01*
X13462687Y-76658733D01*
X13522987Y-76568488D01*
X13522988Y-76568486D01*
X13599736Y-76491738D01*
X13689982Y-76431438D01*
X13689983Y-76431437D01*
X13790257Y-76389902D01*
X13896708Y-76368728D01*
X14005248Y-76368728D01*
X14111699Y-76389902D01*
G37*
G36*
X55990166Y-74993899D02*
G01*
X56122288Y-75048626D01*
X56122290Y-75048627D01*
X56241198Y-75128079D01*
X56342321Y-75229202D01*
X56421773Y-75348110D01*
X56421774Y-75348112D01*
X56476501Y-75480234D01*
X56504400Y-75620494D01*
X56504400Y-75763506D01*
X56476501Y-75903766D01*
X56421774Y-76035888D01*
X56421773Y-76035890D01*
X56342321Y-76154798D01*
X56241198Y-76255921D01*
X56122290Y-76335373D01*
X56122289Y-76335374D01*
X56122288Y-76335374D01*
X55990166Y-76390101D01*
X55849906Y-76418000D01*
X55706894Y-76418000D01*
X55566634Y-76390101D01*
X55434512Y-76335374D01*
X55434511Y-76335374D01*
X55434510Y-76335373D01*
X55315602Y-76255921D01*
X55214479Y-76154798D01*
X55135027Y-76035890D01*
X55135026Y-76035888D01*
X55080299Y-75903766D01*
X55052400Y-75763506D01*
X55052400Y-75620494D01*
X55080299Y-75480234D01*
X55135026Y-75348112D01*
X55135027Y-75348110D01*
X55214479Y-75229202D01*
X55315602Y-75128079D01*
X55434510Y-75048627D01*
X55434512Y-75048626D01*
X55566634Y-74993899D01*
X55706894Y-74966000D01*
X55849906Y-74966000D01*
X55990166Y-74993899D01*
G37*
G36*
X54504400Y-76418000D02*
G01*
X53052400Y-76418000D01*
X53052400Y-74966000D01*
X54504400Y-74966000D01*
X54504400Y-76418000D01*
G37*
G36*
X14873221Y-74551424D02*
G01*
X14973495Y-74592959D01*
X14973496Y-74592960D01*
X15063742Y-74653260D01*
X15140490Y-74730008D01*
X15140491Y-74730010D01*
X15200791Y-74820255D01*
X15242326Y-74920529D01*
X15263500Y-75026980D01*
X15263500Y-75135520D01*
X15242326Y-75241971D01*
X15200791Y-75342245D01*
X15170845Y-75387062D01*
X15140490Y-75432492D01*
X15063742Y-75509240D01*
X15018312Y-75539595D01*
X14973495Y-75569541D01*
X14873221Y-75611076D01*
X14766770Y-75632250D01*
X14658230Y-75632250D01*
X14551779Y-75611076D01*
X14451505Y-75569541D01*
X14406688Y-75539595D01*
X14361258Y-75509240D01*
X14284510Y-75432492D01*
X14254155Y-75387062D01*
X14224209Y-75342245D01*
X14182674Y-75241971D01*
X14161500Y-75135520D01*
X14161500Y-75026980D01*
X14182674Y-74920529D01*
X14224209Y-74820255D01*
X14284509Y-74730010D01*
X14284510Y-74730008D01*
X14361258Y-74653260D01*
X14451504Y-74592960D01*
X14451505Y-74592959D01*
X14551779Y-74551424D01*
X14658230Y-74530250D01*
X14766770Y-74530250D01*
X14873221Y-74551424D01*
G37*
G36*
X287073221Y-74551424D02*
G01*
X287173495Y-74592959D01*
X287173496Y-74592960D01*
X287263742Y-74653260D01*
X287340490Y-74730008D01*
X287340491Y-74730010D01*
X287400791Y-74820255D01*
X287442326Y-74920529D01*
X287463500Y-75026980D01*
X287463500Y-75135520D01*
X287442326Y-75241971D01*
X287400791Y-75342245D01*
X287370845Y-75387062D01*
X287340490Y-75432492D01*
X287263742Y-75509240D01*
X287218312Y-75539595D01*
X287173495Y-75569541D01*
X287073221Y-75611076D01*
X286966770Y-75632250D01*
X286858230Y-75632250D01*
X286751779Y-75611076D01*
X286651505Y-75569541D01*
X286606688Y-75539595D01*
X286561258Y-75509240D01*
X286484510Y-75432492D01*
X286454155Y-75387062D01*
X286424209Y-75342245D01*
X286382674Y-75241971D01*
X286361500Y-75135520D01*
X286361500Y-75026980D01*
X286382674Y-74920529D01*
X286424209Y-74820255D01*
X286484509Y-74730010D01*
X286484510Y-74730008D01*
X286561258Y-74653260D01*
X286651504Y-74592960D01*
X286651505Y-74592959D01*
X286751779Y-74551424D01*
X286858230Y-74530250D01*
X286966770Y-74530250D01*
X287073221Y-74551424D01*
G37*
G36*
X287834743Y-72712946D02*
G01*
X287935017Y-72754481D01*
X287935018Y-72754482D01*
X288025264Y-72814782D01*
X288102012Y-72891530D01*
X288102013Y-72891532D01*
X288162313Y-72981777D01*
X288203848Y-73082051D01*
X288225022Y-73188502D01*
X288225022Y-73297042D01*
X288203848Y-73403493D01*
X288162313Y-73503767D01*
X288162312Y-73503768D01*
X288102012Y-73594014D01*
X288025264Y-73670762D01*
X287979834Y-73701117D01*
X287935017Y-73731063D01*
X287834743Y-73772598D01*
X287728292Y-73793772D01*
X287619752Y-73793772D01*
X287513301Y-73772598D01*
X287413027Y-73731063D01*
X287368210Y-73701117D01*
X287322780Y-73670762D01*
X287246032Y-73594014D01*
X287185732Y-73503768D01*
X287185731Y-73503767D01*
X287144196Y-73403493D01*
X287123022Y-73297042D01*
X287123022Y-73188502D01*
X287144196Y-73082051D01*
X287185731Y-72981777D01*
X287246031Y-72891532D01*
X287246032Y-72891530D01*
X287322780Y-72814782D01*
X287413026Y-72754482D01*
X287413027Y-72754481D01*
X287513301Y-72712946D01*
X287619752Y-72691772D01*
X287728292Y-72691772D01*
X287834743Y-72712946D01*
G37*
G36*
X14111699Y-72712946D02*
G01*
X14211973Y-72754481D01*
X14211974Y-72754482D01*
X14302220Y-72814782D01*
X14378968Y-72891530D01*
X14378969Y-72891532D01*
X14439269Y-72981777D01*
X14480804Y-73082051D01*
X14501978Y-73188502D01*
X14501978Y-73297042D01*
X14480804Y-73403493D01*
X14439269Y-73503767D01*
X14439268Y-73503768D01*
X14378968Y-73594014D01*
X14302220Y-73670762D01*
X14256790Y-73701117D01*
X14211973Y-73731063D01*
X14111699Y-73772598D01*
X14005248Y-73793772D01*
X13896708Y-73793772D01*
X13790257Y-73772598D01*
X13689983Y-73731063D01*
X13645166Y-73701117D01*
X13599736Y-73670762D01*
X13522988Y-73594014D01*
X13462688Y-73503768D01*
X13462687Y-73503767D01*
X13421152Y-73403493D01*
X13399978Y-73297042D01*
X13399978Y-73188502D01*
X13421152Y-73082051D01*
X13462687Y-72981777D01*
X13522987Y-72891532D01*
X13522988Y-72891530D01*
X13599736Y-72814782D01*
X13689982Y-72754482D01*
X13689983Y-72754481D01*
X13790257Y-72712946D01*
X13896708Y-72691772D01*
X14005248Y-72691772D01*
X14111699Y-72712946D01*
G37*
G36*
X12273221Y-71951424D02*
G01*
X12373495Y-71992959D01*
X12373496Y-71992960D01*
X12463742Y-72053260D01*
X12540490Y-72130008D01*
X12540491Y-72130010D01*
X12600791Y-72220255D01*
X12642326Y-72320529D01*
X12663500Y-72426980D01*
X12663500Y-72535520D01*
X12642326Y-72641971D01*
X12600791Y-72742245D01*
X12600790Y-72742246D01*
X12540490Y-72832492D01*
X12463742Y-72909240D01*
X12418312Y-72939595D01*
X12373495Y-72969541D01*
X12273221Y-73011076D01*
X12166770Y-73032250D01*
X12058230Y-73032250D01*
X11951779Y-73011076D01*
X11851505Y-72969541D01*
X11806688Y-72939595D01*
X11761258Y-72909240D01*
X11684510Y-72832492D01*
X11624210Y-72742246D01*
X11624209Y-72742245D01*
X11582674Y-72641971D01*
X11561500Y-72535520D01*
X11561500Y-72426980D01*
X11582674Y-72320529D01*
X11624209Y-72220255D01*
X11684509Y-72130010D01*
X11684510Y-72130008D01*
X11761258Y-72053260D01*
X11851504Y-71992960D01*
X11851505Y-71992959D01*
X11951779Y-71951424D01*
X12058230Y-71930250D01*
X12166770Y-71930250D01*
X12273221Y-71951424D01*
G37*
G36*
X291715256Y-71951424D02*
G01*
X291815530Y-71992959D01*
X291815531Y-71992960D01*
X291905777Y-72053260D01*
X291982525Y-72130008D01*
X291982526Y-72130010D01*
X292042826Y-72220255D01*
X292084361Y-72320529D01*
X292105535Y-72426980D01*
X292105535Y-72535520D01*
X292084361Y-72641971D01*
X292042826Y-72742245D01*
X292042825Y-72742246D01*
X291982525Y-72832492D01*
X291905777Y-72909240D01*
X291860347Y-72939595D01*
X291815530Y-72969541D01*
X291715256Y-73011076D01*
X291608805Y-73032250D01*
X291500265Y-73032250D01*
X291393814Y-73011076D01*
X291293540Y-72969541D01*
X291248723Y-72939595D01*
X291203293Y-72909240D01*
X291126545Y-72832492D01*
X291066245Y-72742246D01*
X291066244Y-72742245D01*
X291024709Y-72641971D01*
X291003535Y-72535520D01*
X291003535Y-72426980D01*
X291024709Y-72320529D01*
X291066244Y-72220255D01*
X291126544Y-72130010D01*
X291126545Y-72130008D01*
X291203293Y-72053260D01*
X291293539Y-71992960D01*
X291293540Y-71992959D01*
X291393814Y-71951424D01*
X291500265Y-71930250D01*
X291608805Y-71930250D01*
X291715256Y-71951424D01*
G37*
G36*
X10231186Y-71951424D02*
G01*
X10331460Y-71992959D01*
X10331461Y-71992960D01*
X10421707Y-72053260D01*
X10498455Y-72130008D01*
X10498456Y-72130010D01*
X10558756Y-72220255D01*
X10600291Y-72320529D01*
X10621465Y-72426980D01*
X10621465Y-72535520D01*
X10600291Y-72641971D01*
X10558756Y-72742245D01*
X10558755Y-72742246D01*
X10498455Y-72832492D01*
X10421707Y-72909240D01*
X10376277Y-72939595D01*
X10331460Y-72969541D01*
X10231186Y-73011076D01*
X10124735Y-73032250D01*
X10016195Y-73032250D01*
X9909744Y-73011076D01*
X9809470Y-72969541D01*
X9764653Y-72939595D01*
X9719223Y-72909240D01*
X9642475Y-72832492D01*
X9582175Y-72742246D01*
X9582174Y-72742245D01*
X9540639Y-72641971D01*
X9519465Y-72535520D01*
X9519465Y-72426980D01*
X9540639Y-72320529D01*
X9582174Y-72220255D01*
X9642474Y-72130010D01*
X9642475Y-72130008D01*
X9719223Y-72053260D01*
X9809469Y-71992960D01*
X9809470Y-71992959D01*
X9909744Y-71951424D01*
X10016195Y-71930250D01*
X10124735Y-71930250D01*
X10231186Y-71951424D01*
G37*
G36*
X289673221Y-71951424D02*
G01*
X289773495Y-71992959D01*
X289773496Y-71992960D01*
X289863742Y-72053260D01*
X289940490Y-72130008D01*
X289940491Y-72130010D01*
X290000791Y-72220255D01*
X290042326Y-72320529D01*
X290063500Y-72426980D01*
X290063500Y-72535520D01*
X290042326Y-72641971D01*
X290000791Y-72742245D01*
X290000790Y-72742246D01*
X289940490Y-72832492D01*
X289863742Y-72909240D01*
X289818312Y-72939595D01*
X289773495Y-72969541D01*
X289673221Y-73011076D01*
X289566770Y-73032250D01*
X289458230Y-73032250D01*
X289351779Y-73011076D01*
X289251505Y-72969541D01*
X289206688Y-72939595D01*
X289161258Y-72909240D01*
X289084510Y-72832492D01*
X289024210Y-72742246D01*
X289024209Y-72742245D01*
X288982674Y-72641971D01*
X288961500Y-72535520D01*
X288961500Y-72426980D01*
X288982674Y-72320529D01*
X289024209Y-72220255D01*
X289084509Y-72130010D01*
X289084510Y-72130008D01*
X289161258Y-72053260D01*
X289251504Y-71992960D01*
X289251505Y-71992959D01*
X289351779Y-71951424D01*
X289458230Y-71930250D01*
X289566770Y-71930250D01*
X289673221Y-71951424D01*
G37*
G36*
X137548322Y-62166597D02*
G01*
X138194584Y-62434288D01*
X138194586Y-62434289D01*
X138776207Y-62822915D01*
X139270835Y-63317543D01*
X139659461Y-63899164D01*
X139659462Y-63899166D01*
X139927153Y-64545428D01*
X140063620Y-65231494D01*
X140063620Y-65931006D01*
X139927153Y-66617072D01*
X139659462Y-67263334D01*
X139659461Y-67263336D01*
X139270835Y-67844957D01*
X138776207Y-68339585D01*
X138194586Y-68728211D01*
X138194585Y-68728212D01*
X138194584Y-68728212D01*
X137548322Y-68995903D01*
X136862256Y-69132370D01*
X136162744Y-69132370D01*
X135476678Y-68995903D01*
X134830416Y-68728212D01*
X134830415Y-68728212D01*
X134830414Y-68728211D01*
X134248793Y-68339585D01*
X133754165Y-67844957D01*
X133365539Y-67263336D01*
X133365538Y-67263334D01*
X133097847Y-66617072D01*
X132961380Y-65931006D01*
X132961380Y-65231494D01*
X133097847Y-64545428D01*
X133365538Y-63899166D01*
X133365539Y-63899164D01*
X133754165Y-63317543D01*
X134248793Y-62822915D01*
X134830414Y-62434289D01*
X134830416Y-62434288D01*
X135476678Y-62166597D01*
X136162744Y-62030130D01*
X136862256Y-62030130D01*
X137548322Y-62166597D01*
G37*
G36*
X34548477Y-43066087D02*
G01*
X35194835Y-43333818D01*
X35194837Y-43333819D01*
X35776545Y-43722503D01*
X36271247Y-44217205D01*
X36604029Y-44715250D01*
X36659932Y-44798915D01*
X36927663Y-45445273D01*
X37064150Y-46131442D01*
X37064150Y-46831058D01*
X36927663Y-47517227D01*
X36749696Y-47946875D01*
X36659931Y-48163587D01*
X36271247Y-48745295D01*
X35776545Y-49239997D01*
X35194837Y-49628681D01*
X35194836Y-49628682D01*
X35194835Y-49628682D01*
X34548477Y-49896413D01*
X33862308Y-50032900D01*
X33162692Y-50032900D01*
X32476523Y-49896413D01*
X31830165Y-49628682D01*
X31830164Y-49628682D01*
X31830163Y-49628681D01*
X31248455Y-49239997D01*
X30753753Y-48745295D01*
X30365069Y-48163587D01*
X30275304Y-47946875D01*
X30097337Y-47517227D01*
X29960850Y-46831058D01*
X29960850Y-46131442D01*
X30097337Y-45445273D01*
X30365068Y-44798915D01*
X30420971Y-44715250D01*
X30753753Y-44217205D01*
X31248455Y-43722503D01*
X31830163Y-43333819D01*
X31830165Y-43333818D01*
X32476523Y-43066087D01*
X33162692Y-42929600D01*
X33862308Y-42929600D01*
X34548477Y-43066087D01*
G37*
G36*
X269398322Y-43066597D02*
G01*
X270044584Y-43334288D01*
X270044586Y-43334289D01*
X270626207Y-43722915D01*
X271120835Y-44217543D01*
X271509461Y-44799164D01*
X271509462Y-44799166D01*
X271777153Y-45445428D01*
X271913620Y-46131494D01*
X271913620Y-46831006D01*
X271777153Y-47517072D01*
X271599122Y-47946875D01*
X271509461Y-48163336D01*
X271120835Y-48744957D01*
X270626207Y-49239585D01*
X270044586Y-49628211D01*
X270044585Y-49628212D01*
X270044584Y-49628212D01*
X269398322Y-49895903D01*
X268712256Y-50032370D01*
X268012744Y-50032370D01*
X267326678Y-49895903D01*
X266680416Y-49628212D01*
X266680415Y-49628212D01*
X266680414Y-49628211D01*
X266098793Y-49239585D01*
X265604165Y-48744957D01*
X265215539Y-48163336D01*
X265125878Y-47946875D01*
X264947847Y-47517072D01*
X264811380Y-46831006D01*
X264811380Y-46131494D01*
X264947847Y-45445428D01*
X265215538Y-44799166D01*
X265215539Y-44799164D01*
X265604165Y-44217543D01*
X266098793Y-43722915D01*
X266680414Y-43334289D01*
X266680416Y-43334288D01*
X267326678Y-43066597D01*
X268012744Y-42930130D01*
X268712256Y-42930130D01*
X269398322Y-43066597D01*
G37*
G36*
X22338114Y-22355723D02*
G01*
X22441978Y-22387229D01*
X22486007Y-22410763D01*
X22537699Y-22438393D01*
X22537701Y-22438394D01*
X22537700Y-22438394D01*
X22621601Y-22507249D01*
X22690456Y-22591150D01*
X22741621Y-22686871D01*
X22773127Y-22790735D01*
X22781100Y-22871683D01*
X22781100Y-24025817D01*
X22773127Y-24106765D01*
X22741621Y-24210629D01*
X22741619Y-24210632D01*
X22690457Y-24306350D01*
X22621601Y-24390251D01*
X22537700Y-24459107D01*
X22469155Y-24495745D01*
X22441979Y-24510271D01*
X22338115Y-24541777D01*
X22230100Y-24552416D01*
X22122086Y-24541777D01*
X22018222Y-24510271D01*
X21991046Y-24495745D01*
X21922501Y-24459107D01*
X21838600Y-24390251D01*
X21769744Y-24306350D01*
X21718582Y-24210632D01*
X21718580Y-24210629D01*
X21687074Y-24106765D01*
X21679101Y-24025817D01*
X21679100Y-22871684D01*
X21687073Y-22790736D01*
X21718579Y-22686872D01*
X21769744Y-22591150D01*
X21838599Y-22507249D01*
X21922500Y-22438394D01*
X21922499Y-22438394D01*
X21922501Y-22438393D01*
X21974193Y-22410763D01*
X22018221Y-22387229D01*
X22122085Y-22355723D01*
X22230100Y-22345084D01*
X22338114Y-22355723D01*
G37*
G36*
X30978114Y-22355723D02*
G01*
X31081978Y-22387229D01*
X31126007Y-22410763D01*
X31177699Y-22438393D01*
X31177701Y-22438394D01*
X31177700Y-22438394D01*
X31261601Y-22507249D01*
X31330456Y-22591150D01*
X31381621Y-22686871D01*
X31413127Y-22790735D01*
X31421100Y-22871683D01*
X31421100Y-24025817D01*
X31413127Y-24106765D01*
X31381621Y-24210629D01*
X31381619Y-24210632D01*
X31330457Y-24306350D01*
X31261601Y-24390251D01*
X31177700Y-24459107D01*
X31109155Y-24495745D01*
X31081979Y-24510271D01*
X30978115Y-24541777D01*
X30870100Y-24552416D01*
X30762086Y-24541777D01*
X30658222Y-24510271D01*
X30631046Y-24495745D01*
X30562501Y-24459107D01*
X30478600Y-24390251D01*
X30409744Y-24306350D01*
X30358582Y-24210632D01*
X30358580Y-24210629D01*
X30327074Y-24106765D01*
X30319101Y-24025817D01*
X30319100Y-22871684D01*
X30327073Y-22790736D01*
X30358579Y-22686872D01*
X30409744Y-22591150D01*
X30478599Y-22507249D01*
X30562500Y-22438394D01*
X30562499Y-22438394D01*
X30562501Y-22438393D01*
X30614193Y-22410763D01*
X30658221Y-22387229D01*
X30762085Y-22355723D01*
X30870100Y-22345084D01*
X30978114Y-22355723D01*
G37*
G36*
X23769772Y-22557199D02*
G01*
X23769774Y-22557200D01*
X23769775Y-22557200D01*
X23838203Y-22585543D01*
X23899786Y-22626692D01*
X23952158Y-22679064D01*
X23993307Y-22740647D01*
X24021650Y-22809075D01*
X24021651Y-22809078D01*
X24036100Y-22881716D01*
X24036100Y-22955783D01*
X24021650Y-23028425D01*
X23993307Y-23096853D01*
X23952158Y-23158436D01*
X23899786Y-23210808D01*
X23838203Y-23251957D01*
X23769775Y-23280300D01*
X23769774Y-23280300D01*
X23769772Y-23280301D01*
X23697134Y-23294750D01*
X23623066Y-23294750D01*
X23550428Y-23280301D01*
X23550426Y-23280300D01*
X23550425Y-23280300D01*
X23481997Y-23251957D01*
X23420414Y-23210808D01*
X23368042Y-23158436D01*
X23326893Y-23096853D01*
X23298550Y-23028425D01*
X23284100Y-22955783D01*
X23284100Y-22881716D01*
X23298549Y-22809078D01*
X23298550Y-22809075D01*
X23326893Y-22740647D01*
X23368042Y-22679064D01*
X23420414Y-22626692D01*
X23481997Y-22585543D01*
X23550425Y-22557200D01*
X23550426Y-22557200D01*
X23550428Y-22557199D01*
X23623066Y-22542750D01*
X23697134Y-22542750D01*
X23769772Y-22557199D01*
G37*
G36*
X29549772Y-22557199D02*
G01*
X29549774Y-22557200D01*
X29549775Y-22557200D01*
X29618203Y-22585543D01*
X29679786Y-22626692D01*
X29732158Y-22679064D01*
X29773307Y-22740647D01*
X29801650Y-22809075D01*
X29801651Y-22809078D01*
X29816100Y-22881716D01*
X29816100Y-22955783D01*
X29801650Y-23028425D01*
X29773307Y-23096853D01*
X29732158Y-23158436D01*
X29679786Y-23210808D01*
X29618203Y-23251957D01*
X29549775Y-23280300D01*
X29549774Y-23280300D01*
X29549772Y-23280301D01*
X29477134Y-23294750D01*
X29403066Y-23294750D01*
X29330428Y-23280301D01*
X29330426Y-23280300D01*
X29330425Y-23280300D01*
X29261997Y-23251957D01*
X29200414Y-23210808D01*
X29148042Y-23158436D01*
X29106893Y-23096853D01*
X29078550Y-23028425D01*
X29064100Y-22955783D01*
X29064100Y-22881716D01*
X29078549Y-22809078D01*
X29078550Y-22809075D01*
X29106893Y-22740647D01*
X29148042Y-22679064D01*
X29200414Y-22626692D01*
X29261997Y-22585543D01*
X29330425Y-22557200D01*
X29330426Y-22557200D01*
X29330428Y-22557199D01*
X29403066Y-22542750D01*
X29477134Y-22542750D01*
X29549772Y-22557199D01*
G37*
G36*
X22338114Y-18425723D02*
G01*
X22441978Y-18457229D01*
X22486007Y-18480763D01*
X22537699Y-18508393D01*
X22537701Y-18508394D01*
X22537700Y-18508394D01*
X22621601Y-18577249D01*
X22690456Y-18661150D01*
X22741621Y-18756871D01*
X22773127Y-18860735D01*
X22781100Y-18941683D01*
X22781100Y-19595817D01*
X22773127Y-19676765D01*
X22741621Y-19780629D01*
X22741619Y-19780632D01*
X22690457Y-19876350D01*
X22621601Y-19960251D01*
X22537700Y-20029107D01*
X22469155Y-20065745D01*
X22441979Y-20080271D01*
X22338115Y-20111777D01*
X22230100Y-20122416D01*
X22122086Y-20111777D01*
X22018222Y-20080271D01*
X21991046Y-20065745D01*
X21922501Y-20029107D01*
X21838600Y-19960251D01*
X21769745Y-19876351D01*
X21718580Y-19780629D01*
X21687073Y-19676765D01*
X21679100Y-19595817D01*
X21679100Y-18941684D01*
X21687073Y-18860736D01*
X21718579Y-18756872D01*
X21769744Y-18661150D01*
X21838599Y-18577249D01*
X21922500Y-18508394D01*
X21922499Y-18508394D01*
X21922501Y-18508393D01*
X21974193Y-18480763D01*
X22018221Y-18457229D01*
X22122085Y-18425723D01*
X22230100Y-18415084D01*
X22338114Y-18425723D01*
G37*
G36*
X30978114Y-18425723D02*
G01*
X31081978Y-18457229D01*
X31126007Y-18480763D01*
X31177699Y-18508393D01*
X31177701Y-18508394D01*
X31177700Y-18508394D01*
X31261601Y-18577249D01*
X31330456Y-18661150D01*
X31381621Y-18756871D01*
X31413127Y-18860735D01*
X31421100Y-18941683D01*
X31421100Y-19595817D01*
X31413127Y-19676765D01*
X31381621Y-19780629D01*
X31381619Y-19780632D01*
X31330457Y-19876350D01*
X31261601Y-19960251D01*
X31177700Y-20029107D01*
X31109155Y-20065745D01*
X31081979Y-20080271D01*
X30978115Y-20111777D01*
X30870100Y-20122416D01*
X30762086Y-20111777D01*
X30658222Y-20080271D01*
X30631046Y-20065745D01*
X30562501Y-20029107D01*
X30478600Y-19960251D01*
X30409745Y-19876351D01*
X30358580Y-19780629D01*
X30327073Y-19676765D01*
X30319100Y-19595817D01*
X30319100Y-18941684D01*
X30327073Y-18860736D01*
X30358579Y-18756872D01*
X30409744Y-18661150D01*
X30478599Y-18577249D01*
X30562500Y-18508394D01*
X30562499Y-18508394D01*
X30562501Y-18508393D01*
X30614193Y-18480763D01*
X30658221Y-18457229D01*
X30762085Y-18425723D01*
X30870100Y-18415084D01*
X30978114Y-18425723D01*
G37*
M02*
