G04 #@! TF.GenerationSoftware,KiCad,Pcbnew,(5.1.5)-3*
G04 #@! TF.CreationDate,2020-04-19T14:46:37-04:00*
G04 #@! TF.ProjectId,Squid60,53717569-6436-4302-9e6b-696361645f70,rev?*
G04 #@! TF.SameCoordinates,Original*
G04 #@! TF.FileFunction,Legend,Top*
G04 #@! TF.FilePolarity,Positive*
%FSLAX46Y46*%
G04 Gerber Fmt 4.6, Leading zero omitted, Abs format (unit mm)*
G04 Created by KiCad (PCBNEW (5.1.5)-3) date 2020-04-19 14:46:37*
%MOMM*%
%LPD*%
G04 APERTURE LIST*
%ADD10C,0.120000*%
%ADD11C,0.150000*%
G04 APERTURE END LIST*
D10*
X52718400Y-75692000D02*
X52718400Y-74632000D01*
X52718400Y-74632000D02*
X53778400Y-74632000D01*
X54778400Y-74632000D02*
X56838400Y-74632000D01*
X56838400Y-76752000D02*
X56838400Y-74632000D01*
X54778400Y-76752000D02*
X56838400Y-76752000D01*
X54778400Y-76752000D02*
X54778400Y-74632000D01*
D11*
X51683161Y-77025333D02*
X51730780Y-76882476D01*
X51730780Y-76644380D01*
X51683161Y-76549142D01*
X51635542Y-76501523D01*
X51540304Y-76453904D01*
X51445066Y-76453904D01*
X51349828Y-76501523D01*
X51302209Y-76549142D01*
X51254590Y-76644380D01*
X51206971Y-76834857D01*
X51159352Y-76930095D01*
X51111733Y-76977714D01*
X51016495Y-77025333D01*
X50921257Y-77025333D01*
X50826019Y-76977714D01*
X50778400Y-76930095D01*
X50730780Y-76834857D01*
X50730780Y-76596761D01*
X50778400Y-76453904D01*
X50730780Y-76120571D02*
X51730780Y-75882476D01*
X51016495Y-75692000D01*
X51730780Y-75501523D01*
X50730780Y-75263428D01*
X51730780Y-74358666D02*
X51730780Y-74930095D01*
X51730780Y-74644380D02*
X50730780Y-74644380D01*
X50873638Y-74739619D01*
X50968876Y-74834857D01*
X51016495Y-74930095D01*
M02*
