G04 #@! TF.GenerationSoftware,KiCad,Pcbnew,(5.1.5)-3*
G04 #@! TF.CreationDate,2020-04-19T14:46:37-04:00*
G04 #@! TF.ProjectId,Squid60,53717569-6436-4302-9e6b-696361645f70,rev?*
G04 #@! TF.SameCoordinates,Original*
G04 #@! TF.FileFunction,Paste,Bot*
G04 #@! TF.FilePolarity,Positive*
%FSLAX46Y46*%
G04 Gerber Fmt 4.6, Leading zero omitted, Abs format (unit mm)*
G04 Created by KiCad (PCBNEW (5.1.5)-3) date 2020-04-19 14:46:37*
%MOMM*%
%LPD*%
G04 APERTURE LIST*
%ADD10R,1.400000X1.200000*%
%ADD11C,0.100000*%
%ADD12R,1.500000X0.550000*%
%ADD13R,0.550000X1.500000*%
%ADD14R,0.600000X1.450000*%
%ADD15R,0.300000X1.450000*%
%ADD16R,0.700000X1.000000*%
%ADD17R,0.700000X0.600000*%
%ADD18R,1.200000X0.900000*%
G04 APERTURE END LIST*
D10*
X59858000Y-79121000D03*
X57658000Y-79121000D03*
X57658000Y-80821000D03*
X59858000Y-80821000D03*
D11*
G36*
X30748504Y-26678204D02*
G01*
X30772773Y-26681804D01*
X30796571Y-26687765D01*
X30819671Y-26696030D01*
X30841849Y-26706520D01*
X30862893Y-26719133D01*
X30882598Y-26733747D01*
X30900777Y-26750223D01*
X30917253Y-26768402D01*
X30931867Y-26788107D01*
X30944480Y-26809151D01*
X30954970Y-26831329D01*
X30963235Y-26854429D01*
X30969196Y-26878227D01*
X30972796Y-26902496D01*
X30974000Y-26927000D01*
X30974000Y-27677000D01*
X30972796Y-27701504D01*
X30969196Y-27725773D01*
X30963235Y-27749571D01*
X30954970Y-27772671D01*
X30944480Y-27794849D01*
X30931867Y-27815893D01*
X30917253Y-27835598D01*
X30900777Y-27853777D01*
X30882598Y-27870253D01*
X30862893Y-27884867D01*
X30841849Y-27897480D01*
X30819671Y-27907970D01*
X30796571Y-27916235D01*
X30772773Y-27922196D01*
X30748504Y-27925796D01*
X30724000Y-27927000D01*
X29474000Y-27927000D01*
X29449496Y-27925796D01*
X29425227Y-27922196D01*
X29401429Y-27916235D01*
X29378329Y-27907970D01*
X29356151Y-27897480D01*
X29335107Y-27884867D01*
X29315402Y-27870253D01*
X29297223Y-27853777D01*
X29280747Y-27835598D01*
X29266133Y-27815893D01*
X29253520Y-27794849D01*
X29243030Y-27772671D01*
X29234765Y-27749571D01*
X29228804Y-27725773D01*
X29225204Y-27701504D01*
X29224000Y-27677000D01*
X29224000Y-26927000D01*
X29225204Y-26902496D01*
X29228804Y-26878227D01*
X29234765Y-26854429D01*
X29243030Y-26831329D01*
X29253520Y-26809151D01*
X29266133Y-26788107D01*
X29280747Y-26768402D01*
X29297223Y-26750223D01*
X29315402Y-26733747D01*
X29335107Y-26719133D01*
X29356151Y-26706520D01*
X29378329Y-26696030D01*
X29401429Y-26687765D01*
X29425227Y-26681804D01*
X29449496Y-26678204D01*
X29474000Y-26677000D01*
X30724000Y-26677000D01*
X30748504Y-26678204D01*
G37*
G36*
X30748504Y-29478204D02*
G01*
X30772773Y-29481804D01*
X30796571Y-29487765D01*
X30819671Y-29496030D01*
X30841849Y-29506520D01*
X30862893Y-29519133D01*
X30882598Y-29533747D01*
X30900777Y-29550223D01*
X30917253Y-29568402D01*
X30931867Y-29588107D01*
X30944480Y-29609151D01*
X30954970Y-29631329D01*
X30963235Y-29654429D01*
X30969196Y-29678227D01*
X30972796Y-29702496D01*
X30974000Y-29727000D01*
X30974000Y-30477000D01*
X30972796Y-30501504D01*
X30969196Y-30525773D01*
X30963235Y-30549571D01*
X30954970Y-30572671D01*
X30944480Y-30594849D01*
X30931867Y-30615893D01*
X30917253Y-30635598D01*
X30900777Y-30653777D01*
X30882598Y-30670253D01*
X30862893Y-30684867D01*
X30841849Y-30697480D01*
X30819671Y-30707970D01*
X30796571Y-30716235D01*
X30772773Y-30722196D01*
X30748504Y-30725796D01*
X30724000Y-30727000D01*
X29474000Y-30727000D01*
X29449496Y-30725796D01*
X29425227Y-30722196D01*
X29401429Y-30716235D01*
X29378329Y-30707970D01*
X29356151Y-30697480D01*
X29335107Y-30684867D01*
X29315402Y-30670253D01*
X29297223Y-30653777D01*
X29280747Y-30635598D01*
X29266133Y-30615893D01*
X29253520Y-30594849D01*
X29243030Y-30572671D01*
X29234765Y-30549571D01*
X29228804Y-30525773D01*
X29225204Y-30501504D01*
X29224000Y-30477000D01*
X29224000Y-29727000D01*
X29225204Y-29702496D01*
X29228804Y-29678227D01*
X29234765Y-29654429D01*
X29243030Y-29631329D01*
X29253520Y-29609151D01*
X29266133Y-29588107D01*
X29280747Y-29568402D01*
X29297223Y-29550223D01*
X29315402Y-29533747D01*
X29335107Y-29519133D01*
X29356151Y-29506520D01*
X29378329Y-29496030D01*
X29401429Y-29487765D01*
X29425227Y-29481804D01*
X29449496Y-29478204D01*
X29474000Y-29477000D01*
X30724000Y-29477000D01*
X30748504Y-29478204D01*
G37*
G36*
X52169142Y-90191674D02*
G01*
X52192803Y-90195184D01*
X52216007Y-90200996D01*
X52238529Y-90209054D01*
X52260153Y-90219282D01*
X52280670Y-90231579D01*
X52299883Y-90245829D01*
X52317607Y-90261893D01*
X52333671Y-90279617D01*
X52347921Y-90298830D01*
X52360218Y-90319347D01*
X52370446Y-90340971D01*
X52378504Y-90363493D01*
X52384316Y-90386697D01*
X52387826Y-90410358D01*
X52389000Y-90434250D01*
X52389000Y-90921750D01*
X52387826Y-90945642D01*
X52384316Y-90969303D01*
X52378504Y-90992507D01*
X52370446Y-91015029D01*
X52360218Y-91036653D01*
X52347921Y-91057170D01*
X52333671Y-91076383D01*
X52317607Y-91094107D01*
X52299883Y-91110171D01*
X52280670Y-91124421D01*
X52260153Y-91136718D01*
X52238529Y-91146946D01*
X52216007Y-91155004D01*
X52192803Y-91160816D01*
X52169142Y-91164326D01*
X52145250Y-91165500D01*
X51232750Y-91165500D01*
X51208858Y-91164326D01*
X51185197Y-91160816D01*
X51161993Y-91155004D01*
X51139471Y-91146946D01*
X51117847Y-91136718D01*
X51097330Y-91124421D01*
X51078117Y-91110171D01*
X51060393Y-91094107D01*
X51044329Y-91076383D01*
X51030079Y-91057170D01*
X51017782Y-91036653D01*
X51007554Y-91015029D01*
X50999496Y-90992507D01*
X50993684Y-90969303D01*
X50990174Y-90945642D01*
X50989000Y-90921750D01*
X50989000Y-90434250D01*
X50990174Y-90410358D01*
X50993684Y-90386697D01*
X50999496Y-90363493D01*
X51007554Y-90340971D01*
X51017782Y-90319347D01*
X51030079Y-90298830D01*
X51044329Y-90279617D01*
X51060393Y-90261893D01*
X51078117Y-90245829D01*
X51097330Y-90231579D01*
X51117847Y-90219282D01*
X51139471Y-90209054D01*
X51161993Y-90200996D01*
X51185197Y-90195184D01*
X51208858Y-90191674D01*
X51232750Y-90190500D01*
X52145250Y-90190500D01*
X52169142Y-90191674D01*
G37*
G36*
X52169142Y-88316674D02*
G01*
X52192803Y-88320184D01*
X52216007Y-88325996D01*
X52238529Y-88334054D01*
X52260153Y-88344282D01*
X52280670Y-88356579D01*
X52299883Y-88370829D01*
X52317607Y-88386893D01*
X52333671Y-88404617D01*
X52347921Y-88423830D01*
X52360218Y-88444347D01*
X52370446Y-88465971D01*
X52378504Y-88488493D01*
X52384316Y-88511697D01*
X52387826Y-88535358D01*
X52389000Y-88559250D01*
X52389000Y-89046750D01*
X52387826Y-89070642D01*
X52384316Y-89094303D01*
X52378504Y-89117507D01*
X52370446Y-89140029D01*
X52360218Y-89161653D01*
X52347921Y-89182170D01*
X52333671Y-89201383D01*
X52317607Y-89219107D01*
X52299883Y-89235171D01*
X52280670Y-89249421D01*
X52260153Y-89261718D01*
X52238529Y-89271946D01*
X52216007Y-89280004D01*
X52192803Y-89285816D01*
X52169142Y-89289326D01*
X52145250Y-89290500D01*
X51232750Y-89290500D01*
X51208858Y-89289326D01*
X51185197Y-89285816D01*
X51161993Y-89280004D01*
X51139471Y-89271946D01*
X51117847Y-89261718D01*
X51097330Y-89249421D01*
X51078117Y-89235171D01*
X51060393Y-89219107D01*
X51044329Y-89201383D01*
X51030079Y-89182170D01*
X51017782Y-89161653D01*
X51007554Y-89140029D01*
X50999496Y-89117507D01*
X50993684Y-89094303D01*
X50990174Y-89070642D01*
X50989000Y-89046750D01*
X50989000Y-88559250D01*
X50990174Y-88535358D01*
X50993684Y-88511697D01*
X50999496Y-88488493D01*
X51007554Y-88465971D01*
X51017782Y-88444347D01*
X51030079Y-88423830D01*
X51044329Y-88404617D01*
X51060393Y-88386893D01*
X51078117Y-88370829D01*
X51097330Y-88356579D01*
X51117847Y-88344282D01*
X51139471Y-88334054D01*
X51161993Y-88325996D01*
X51185197Y-88320184D01*
X51208858Y-88316674D01*
X51232750Y-88315500D01*
X52145250Y-88315500D01*
X52169142Y-88316674D01*
G37*
G36*
X38748642Y-88074174D02*
G01*
X38772303Y-88077684D01*
X38795507Y-88083496D01*
X38818029Y-88091554D01*
X38839653Y-88101782D01*
X38860170Y-88114079D01*
X38879383Y-88128329D01*
X38897107Y-88144393D01*
X38913171Y-88162117D01*
X38927421Y-88181330D01*
X38939718Y-88201847D01*
X38949946Y-88223471D01*
X38958004Y-88245993D01*
X38963816Y-88269197D01*
X38967326Y-88292858D01*
X38968500Y-88316750D01*
X38968500Y-89229250D01*
X38967326Y-89253142D01*
X38963816Y-89276803D01*
X38958004Y-89300007D01*
X38949946Y-89322529D01*
X38939718Y-89344153D01*
X38927421Y-89364670D01*
X38913171Y-89383883D01*
X38897107Y-89401607D01*
X38879383Y-89417671D01*
X38860170Y-89431921D01*
X38839653Y-89444218D01*
X38818029Y-89454446D01*
X38795507Y-89462504D01*
X38772303Y-89468316D01*
X38748642Y-89471826D01*
X38724750Y-89473000D01*
X38237250Y-89473000D01*
X38213358Y-89471826D01*
X38189697Y-89468316D01*
X38166493Y-89462504D01*
X38143971Y-89454446D01*
X38122347Y-89444218D01*
X38101830Y-89431921D01*
X38082617Y-89417671D01*
X38064893Y-89401607D01*
X38048829Y-89383883D01*
X38034579Y-89364670D01*
X38022282Y-89344153D01*
X38012054Y-89322529D01*
X38003996Y-89300007D01*
X37998184Y-89276803D01*
X37994674Y-89253142D01*
X37993500Y-89229250D01*
X37993500Y-88316750D01*
X37994674Y-88292858D01*
X37998184Y-88269197D01*
X38003996Y-88245993D01*
X38012054Y-88223471D01*
X38022282Y-88201847D01*
X38034579Y-88181330D01*
X38048829Y-88162117D01*
X38064893Y-88144393D01*
X38082617Y-88128329D01*
X38101830Y-88114079D01*
X38122347Y-88101782D01*
X38143971Y-88091554D01*
X38166493Y-88083496D01*
X38189697Y-88077684D01*
X38213358Y-88074174D01*
X38237250Y-88073000D01*
X38724750Y-88073000D01*
X38748642Y-88074174D01*
G37*
G36*
X40623642Y-88074174D02*
G01*
X40647303Y-88077684D01*
X40670507Y-88083496D01*
X40693029Y-88091554D01*
X40714653Y-88101782D01*
X40735170Y-88114079D01*
X40754383Y-88128329D01*
X40772107Y-88144393D01*
X40788171Y-88162117D01*
X40802421Y-88181330D01*
X40814718Y-88201847D01*
X40824946Y-88223471D01*
X40833004Y-88245993D01*
X40838816Y-88269197D01*
X40842326Y-88292858D01*
X40843500Y-88316750D01*
X40843500Y-89229250D01*
X40842326Y-89253142D01*
X40838816Y-89276803D01*
X40833004Y-89300007D01*
X40824946Y-89322529D01*
X40814718Y-89344153D01*
X40802421Y-89364670D01*
X40788171Y-89383883D01*
X40772107Y-89401607D01*
X40754383Y-89417671D01*
X40735170Y-89431921D01*
X40714653Y-89444218D01*
X40693029Y-89454446D01*
X40670507Y-89462504D01*
X40647303Y-89468316D01*
X40623642Y-89471826D01*
X40599750Y-89473000D01*
X40112250Y-89473000D01*
X40088358Y-89471826D01*
X40064697Y-89468316D01*
X40041493Y-89462504D01*
X40018971Y-89454446D01*
X39997347Y-89444218D01*
X39976830Y-89431921D01*
X39957617Y-89417671D01*
X39939893Y-89401607D01*
X39923829Y-89383883D01*
X39909579Y-89364670D01*
X39897282Y-89344153D01*
X39887054Y-89322529D01*
X39878996Y-89300007D01*
X39873184Y-89276803D01*
X39869674Y-89253142D01*
X39868500Y-89229250D01*
X39868500Y-88316750D01*
X39869674Y-88292858D01*
X39873184Y-88269197D01*
X39878996Y-88245993D01*
X39887054Y-88223471D01*
X39897282Y-88201847D01*
X39909579Y-88181330D01*
X39923829Y-88162117D01*
X39939893Y-88144393D01*
X39957617Y-88128329D01*
X39976830Y-88114079D01*
X39997347Y-88101782D01*
X40018971Y-88091554D01*
X40041493Y-88083496D01*
X40064697Y-88077684D01*
X40088358Y-88074174D01*
X40112250Y-88073000D01*
X40599750Y-88073000D01*
X40623642Y-88074174D01*
G37*
G36*
X49883142Y-75142174D02*
G01*
X49906803Y-75145684D01*
X49930007Y-75151496D01*
X49952529Y-75159554D01*
X49974153Y-75169782D01*
X49994670Y-75182079D01*
X50013883Y-75196329D01*
X50031607Y-75212393D01*
X50047671Y-75230117D01*
X50061921Y-75249330D01*
X50074218Y-75269847D01*
X50084446Y-75291471D01*
X50092504Y-75313993D01*
X50098316Y-75337197D01*
X50101826Y-75360858D01*
X50103000Y-75384750D01*
X50103000Y-75872250D01*
X50101826Y-75896142D01*
X50098316Y-75919803D01*
X50092504Y-75943007D01*
X50084446Y-75965529D01*
X50074218Y-75987153D01*
X50061921Y-76007670D01*
X50047671Y-76026883D01*
X50031607Y-76044607D01*
X50013883Y-76060671D01*
X49994670Y-76074921D01*
X49974153Y-76087218D01*
X49952529Y-76097446D01*
X49930007Y-76105504D01*
X49906803Y-76111316D01*
X49883142Y-76114826D01*
X49859250Y-76116000D01*
X48946750Y-76116000D01*
X48922858Y-76114826D01*
X48899197Y-76111316D01*
X48875993Y-76105504D01*
X48853471Y-76097446D01*
X48831847Y-76087218D01*
X48811330Y-76074921D01*
X48792117Y-76060671D01*
X48774393Y-76044607D01*
X48758329Y-76026883D01*
X48744079Y-76007670D01*
X48731782Y-75987153D01*
X48721554Y-75965529D01*
X48713496Y-75943007D01*
X48707684Y-75919803D01*
X48704174Y-75896142D01*
X48703000Y-75872250D01*
X48703000Y-75384750D01*
X48704174Y-75360858D01*
X48707684Y-75337197D01*
X48713496Y-75313993D01*
X48721554Y-75291471D01*
X48731782Y-75269847D01*
X48744079Y-75249330D01*
X48758329Y-75230117D01*
X48774393Y-75212393D01*
X48792117Y-75196329D01*
X48811330Y-75182079D01*
X48831847Y-75169782D01*
X48853471Y-75159554D01*
X48875993Y-75151496D01*
X48899197Y-75145684D01*
X48922858Y-75142174D01*
X48946750Y-75141000D01*
X49859250Y-75141000D01*
X49883142Y-75142174D01*
G37*
G36*
X49883142Y-73267174D02*
G01*
X49906803Y-73270684D01*
X49930007Y-73276496D01*
X49952529Y-73284554D01*
X49974153Y-73294782D01*
X49994670Y-73307079D01*
X50013883Y-73321329D01*
X50031607Y-73337393D01*
X50047671Y-73355117D01*
X50061921Y-73374330D01*
X50074218Y-73394847D01*
X50084446Y-73416471D01*
X50092504Y-73438993D01*
X50098316Y-73462197D01*
X50101826Y-73485858D01*
X50103000Y-73509750D01*
X50103000Y-73997250D01*
X50101826Y-74021142D01*
X50098316Y-74044803D01*
X50092504Y-74068007D01*
X50084446Y-74090529D01*
X50074218Y-74112153D01*
X50061921Y-74132670D01*
X50047671Y-74151883D01*
X50031607Y-74169607D01*
X50013883Y-74185671D01*
X49994670Y-74199921D01*
X49974153Y-74212218D01*
X49952529Y-74222446D01*
X49930007Y-74230504D01*
X49906803Y-74236316D01*
X49883142Y-74239826D01*
X49859250Y-74241000D01*
X48946750Y-74241000D01*
X48922858Y-74239826D01*
X48899197Y-74236316D01*
X48875993Y-74230504D01*
X48853471Y-74222446D01*
X48831847Y-74212218D01*
X48811330Y-74199921D01*
X48792117Y-74185671D01*
X48774393Y-74169607D01*
X48758329Y-74151883D01*
X48744079Y-74132670D01*
X48731782Y-74112153D01*
X48721554Y-74090529D01*
X48713496Y-74068007D01*
X48707684Y-74044803D01*
X48704174Y-74021142D01*
X48703000Y-73997250D01*
X48703000Y-73509750D01*
X48704174Y-73485858D01*
X48707684Y-73462197D01*
X48713496Y-73438993D01*
X48721554Y-73416471D01*
X48731782Y-73394847D01*
X48744079Y-73374330D01*
X48758329Y-73355117D01*
X48774393Y-73337393D01*
X48792117Y-73321329D01*
X48811330Y-73307079D01*
X48831847Y-73294782D01*
X48853471Y-73284554D01*
X48875993Y-73276496D01*
X48899197Y-73270684D01*
X48922858Y-73267174D01*
X48946750Y-73266000D01*
X49859250Y-73266000D01*
X49883142Y-73267174D01*
G37*
G36*
X42734142Y-73342174D02*
G01*
X42757803Y-73345684D01*
X42781007Y-73351496D01*
X42803529Y-73359554D01*
X42825153Y-73369782D01*
X42845670Y-73382079D01*
X42864883Y-73396329D01*
X42882607Y-73412393D01*
X42898671Y-73430117D01*
X42912921Y-73449330D01*
X42925218Y-73469847D01*
X42935446Y-73491471D01*
X42943504Y-73513993D01*
X42949316Y-73537197D01*
X42952826Y-73560858D01*
X42954000Y-73584750D01*
X42954000Y-74497250D01*
X42952826Y-74521142D01*
X42949316Y-74544803D01*
X42943504Y-74568007D01*
X42935446Y-74590529D01*
X42925218Y-74612153D01*
X42912921Y-74632670D01*
X42898671Y-74651883D01*
X42882607Y-74669607D01*
X42864883Y-74685671D01*
X42845670Y-74699921D01*
X42825153Y-74712218D01*
X42803529Y-74722446D01*
X42781007Y-74730504D01*
X42757803Y-74736316D01*
X42734142Y-74739826D01*
X42710250Y-74741000D01*
X42222750Y-74741000D01*
X42198858Y-74739826D01*
X42175197Y-74736316D01*
X42151993Y-74730504D01*
X42129471Y-74722446D01*
X42107847Y-74712218D01*
X42087330Y-74699921D01*
X42068117Y-74685671D01*
X42050393Y-74669607D01*
X42034329Y-74651883D01*
X42020079Y-74632670D01*
X42007782Y-74612153D01*
X41997554Y-74590529D01*
X41989496Y-74568007D01*
X41983684Y-74544803D01*
X41980174Y-74521142D01*
X41979000Y-74497250D01*
X41979000Y-73584750D01*
X41980174Y-73560858D01*
X41983684Y-73537197D01*
X41989496Y-73513993D01*
X41997554Y-73491471D01*
X42007782Y-73469847D01*
X42020079Y-73449330D01*
X42034329Y-73430117D01*
X42050393Y-73412393D01*
X42068117Y-73396329D01*
X42087330Y-73382079D01*
X42107847Y-73369782D01*
X42129471Y-73359554D01*
X42151993Y-73351496D01*
X42175197Y-73345684D01*
X42198858Y-73342174D01*
X42222750Y-73341000D01*
X42710250Y-73341000D01*
X42734142Y-73342174D01*
G37*
G36*
X40859142Y-73342174D02*
G01*
X40882803Y-73345684D01*
X40906007Y-73351496D01*
X40928529Y-73359554D01*
X40950153Y-73369782D01*
X40970670Y-73382079D01*
X40989883Y-73396329D01*
X41007607Y-73412393D01*
X41023671Y-73430117D01*
X41037921Y-73449330D01*
X41050218Y-73469847D01*
X41060446Y-73491471D01*
X41068504Y-73513993D01*
X41074316Y-73537197D01*
X41077826Y-73560858D01*
X41079000Y-73584750D01*
X41079000Y-74497250D01*
X41077826Y-74521142D01*
X41074316Y-74544803D01*
X41068504Y-74568007D01*
X41060446Y-74590529D01*
X41050218Y-74612153D01*
X41037921Y-74632670D01*
X41023671Y-74651883D01*
X41007607Y-74669607D01*
X40989883Y-74685671D01*
X40970670Y-74699921D01*
X40950153Y-74712218D01*
X40928529Y-74722446D01*
X40906007Y-74730504D01*
X40882803Y-74736316D01*
X40859142Y-74739826D01*
X40835250Y-74741000D01*
X40347750Y-74741000D01*
X40323858Y-74739826D01*
X40300197Y-74736316D01*
X40276993Y-74730504D01*
X40254471Y-74722446D01*
X40232847Y-74712218D01*
X40212330Y-74699921D01*
X40193117Y-74685671D01*
X40175393Y-74669607D01*
X40159329Y-74651883D01*
X40145079Y-74632670D01*
X40132782Y-74612153D01*
X40122554Y-74590529D01*
X40114496Y-74568007D01*
X40108684Y-74544803D01*
X40105174Y-74521142D01*
X40104000Y-74497250D01*
X40104000Y-73584750D01*
X40105174Y-73560858D01*
X40108684Y-73537197D01*
X40114496Y-73513993D01*
X40122554Y-73491471D01*
X40132782Y-73469847D01*
X40145079Y-73449330D01*
X40159329Y-73430117D01*
X40175393Y-73412393D01*
X40193117Y-73396329D01*
X40212330Y-73382079D01*
X40232847Y-73369782D01*
X40254471Y-73359554D01*
X40276993Y-73351496D01*
X40300197Y-73345684D01*
X40323858Y-73342174D01*
X40347750Y-73341000D01*
X40835250Y-73341000D01*
X40859142Y-73342174D01*
G37*
G36*
X48053142Y-72834174D02*
G01*
X48076803Y-72837684D01*
X48100007Y-72843496D01*
X48122529Y-72851554D01*
X48144153Y-72861782D01*
X48164670Y-72874079D01*
X48183883Y-72888329D01*
X48201607Y-72904393D01*
X48217671Y-72922117D01*
X48231921Y-72941330D01*
X48244218Y-72961847D01*
X48254446Y-72983471D01*
X48262504Y-73005993D01*
X48268316Y-73029197D01*
X48271826Y-73052858D01*
X48273000Y-73076750D01*
X48273000Y-73989250D01*
X48271826Y-74013142D01*
X48268316Y-74036803D01*
X48262504Y-74060007D01*
X48254446Y-74082529D01*
X48244218Y-74104153D01*
X48231921Y-74124670D01*
X48217671Y-74143883D01*
X48201607Y-74161607D01*
X48183883Y-74177671D01*
X48164670Y-74191921D01*
X48144153Y-74204218D01*
X48122529Y-74214446D01*
X48100007Y-74222504D01*
X48076803Y-74228316D01*
X48053142Y-74231826D01*
X48029250Y-74233000D01*
X47541750Y-74233000D01*
X47517858Y-74231826D01*
X47494197Y-74228316D01*
X47470993Y-74222504D01*
X47448471Y-74214446D01*
X47426847Y-74204218D01*
X47406330Y-74191921D01*
X47387117Y-74177671D01*
X47369393Y-74161607D01*
X47353329Y-74143883D01*
X47339079Y-74124670D01*
X47326782Y-74104153D01*
X47316554Y-74082529D01*
X47308496Y-74060007D01*
X47302684Y-74036803D01*
X47299174Y-74013142D01*
X47298000Y-73989250D01*
X47298000Y-73076750D01*
X47299174Y-73052858D01*
X47302684Y-73029197D01*
X47308496Y-73005993D01*
X47316554Y-72983471D01*
X47326782Y-72961847D01*
X47339079Y-72941330D01*
X47353329Y-72922117D01*
X47369393Y-72904393D01*
X47387117Y-72888329D01*
X47406330Y-72874079D01*
X47426847Y-72861782D01*
X47448471Y-72851554D01*
X47470993Y-72843496D01*
X47494197Y-72837684D01*
X47517858Y-72834174D01*
X47541750Y-72833000D01*
X48029250Y-72833000D01*
X48053142Y-72834174D01*
G37*
G36*
X46178142Y-72834174D02*
G01*
X46201803Y-72837684D01*
X46225007Y-72843496D01*
X46247529Y-72851554D01*
X46269153Y-72861782D01*
X46289670Y-72874079D01*
X46308883Y-72888329D01*
X46326607Y-72904393D01*
X46342671Y-72922117D01*
X46356921Y-72941330D01*
X46369218Y-72961847D01*
X46379446Y-72983471D01*
X46387504Y-73005993D01*
X46393316Y-73029197D01*
X46396826Y-73052858D01*
X46398000Y-73076750D01*
X46398000Y-73989250D01*
X46396826Y-74013142D01*
X46393316Y-74036803D01*
X46387504Y-74060007D01*
X46379446Y-74082529D01*
X46369218Y-74104153D01*
X46356921Y-74124670D01*
X46342671Y-74143883D01*
X46326607Y-74161607D01*
X46308883Y-74177671D01*
X46289670Y-74191921D01*
X46269153Y-74204218D01*
X46247529Y-74214446D01*
X46225007Y-74222504D01*
X46201803Y-74228316D01*
X46178142Y-74231826D01*
X46154250Y-74233000D01*
X45666750Y-74233000D01*
X45642858Y-74231826D01*
X45619197Y-74228316D01*
X45595993Y-74222504D01*
X45573471Y-74214446D01*
X45551847Y-74204218D01*
X45531330Y-74191921D01*
X45512117Y-74177671D01*
X45494393Y-74161607D01*
X45478329Y-74143883D01*
X45464079Y-74124670D01*
X45451782Y-74104153D01*
X45441554Y-74082529D01*
X45433496Y-74060007D01*
X45427684Y-74036803D01*
X45424174Y-74013142D01*
X45423000Y-73989250D01*
X45423000Y-73076750D01*
X45424174Y-73052858D01*
X45427684Y-73029197D01*
X45433496Y-73005993D01*
X45441554Y-72983471D01*
X45451782Y-72961847D01*
X45464079Y-72941330D01*
X45478329Y-72922117D01*
X45494393Y-72904393D01*
X45512117Y-72888329D01*
X45531330Y-72874079D01*
X45551847Y-72861782D01*
X45573471Y-72851554D01*
X45595993Y-72843496D01*
X45619197Y-72837684D01*
X45642858Y-72834174D01*
X45666750Y-72833000D01*
X46154250Y-72833000D01*
X46178142Y-72834174D01*
G37*
G36*
X55979142Y-80412674D02*
G01*
X56002803Y-80416184D01*
X56026007Y-80421996D01*
X56048529Y-80430054D01*
X56070153Y-80440282D01*
X56090670Y-80452579D01*
X56109883Y-80466829D01*
X56127607Y-80482893D01*
X56143671Y-80500617D01*
X56157921Y-80519830D01*
X56170218Y-80540347D01*
X56180446Y-80561971D01*
X56188504Y-80584493D01*
X56194316Y-80607697D01*
X56197826Y-80631358D01*
X56199000Y-80655250D01*
X56199000Y-81142750D01*
X56197826Y-81166642D01*
X56194316Y-81190303D01*
X56188504Y-81213507D01*
X56180446Y-81236029D01*
X56170218Y-81257653D01*
X56157921Y-81278170D01*
X56143671Y-81297383D01*
X56127607Y-81315107D01*
X56109883Y-81331171D01*
X56090670Y-81345421D01*
X56070153Y-81357718D01*
X56048529Y-81367946D01*
X56026007Y-81376004D01*
X56002803Y-81381816D01*
X55979142Y-81385326D01*
X55955250Y-81386500D01*
X55042750Y-81386500D01*
X55018858Y-81385326D01*
X54995197Y-81381816D01*
X54971993Y-81376004D01*
X54949471Y-81367946D01*
X54927847Y-81357718D01*
X54907330Y-81345421D01*
X54888117Y-81331171D01*
X54870393Y-81315107D01*
X54854329Y-81297383D01*
X54840079Y-81278170D01*
X54827782Y-81257653D01*
X54817554Y-81236029D01*
X54809496Y-81213507D01*
X54803684Y-81190303D01*
X54800174Y-81166642D01*
X54799000Y-81142750D01*
X54799000Y-80655250D01*
X54800174Y-80631358D01*
X54803684Y-80607697D01*
X54809496Y-80584493D01*
X54817554Y-80561971D01*
X54827782Y-80540347D01*
X54840079Y-80519830D01*
X54854329Y-80500617D01*
X54870393Y-80482893D01*
X54888117Y-80466829D01*
X54907330Y-80452579D01*
X54927847Y-80440282D01*
X54949471Y-80430054D01*
X54971993Y-80421996D01*
X54995197Y-80416184D01*
X55018858Y-80412674D01*
X55042750Y-80411500D01*
X55955250Y-80411500D01*
X55979142Y-80412674D01*
G37*
G36*
X55979142Y-78537674D02*
G01*
X56002803Y-78541184D01*
X56026007Y-78546996D01*
X56048529Y-78555054D01*
X56070153Y-78565282D01*
X56090670Y-78577579D01*
X56109883Y-78591829D01*
X56127607Y-78607893D01*
X56143671Y-78625617D01*
X56157921Y-78644830D01*
X56170218Y-78665347D01*
X56180446Y-78686971D01*
X56188504Y-78709493D01*
X56194316Y-78732697D01*
X56197826Y-78756358D01*
X56199000Y-78780250D01*
X56199000Y-79267750D01*
X56197826Y-79291642D01*
X56194316Y-79315303D01*
X56188504Y-79338507D01*
X56180446Y-79361029D01*
X56170218Y-79382653D01*
X56157921Y-79403170D01*
X56143671Y-79422383D01*
X56127607Y-79440107D01*
X56109883Y-79456171D01*
X56090670Y-79470421D01*
X56070153Y-79482718D01*
X56048529Y-79492946D01*
X56026007Y-79501004D01*
X56002803Y-79506816D01*
X55979142Y-79510326D01*
X55955250Y-79511500D01*
X55042750Y-79511500D01*
X55018858Y-79510326D01*
X54995197Y-79506816D01*
X54971993Y-79501004D01*
X54949471Y-79492946D01*
X54927847Y-79482718D01*
X54907330Y-79470421D01*
X54888117Y-79456171D01*
X54870393Y-79440107D01*
X54854329Y-79422383D01*
X54840079Y-79403170D01*
X54827782Y-79382653D01*
X54817554Y-79361029D01*
X54809496Y-79338507D01*
X54803684Y-79315303D01*
X54800174Y-79291642D01*
X54799000Y-79267750D01*
X54799000Y-78780250D01*
X54800174Y-78756358D01*
X54803684Y-78732697D01*
X54809496Y-78709493D01*
X54817554Y-78686971D01*
X54827782Y-78665347D01*
X54840079Y-78644830D01*
X54854329Y-78625617D01*
X54870393Y-78607893D01*
X54888117Y-78591829D01*
X54907330Y-78577579D01*
X54927847Y-78565282D01*
X54949471Y-78555054D01*
X54971993Y-78546996D01*
X54995197Y-78541184D01*
X55018858Y-78537674D01*
X55042750Y-78536500D01*
X55955250Y-78536500D01*
X55979142Y-78537674D01*
G37*
G36*
X62456142Y-78507674D02*
G01*
X62479803Y-78511184D01*
X62503007Y-78516996D01*
X62525529Y-78525054D01*
X62547153Y-78535282D01*
X62567670Y-78547579D01*
X62586883Y-78561829D01*
X62604607Y-78577893D01*
X62620671Y-78595617D01*
X62634921Y-78614830D01*
X62647218Y-78635347D01*
X62657446Y-78656971D01*
X62665504Y-78679493D01*
X62671316Y-78702697D01*
X62674826Y-78726358D01*
X62676000Y-78750250D01*
X62676000Y-79237750D01*
X62674826Y-79261642D01*
X62671316Y-79285303D01*
X62665504Y-79308507D01*
X62657446Y-79331029D01*
X62647218Y-79352653D01*
X62634921Y-79373170D01*
X62620671Y-79392383D01*
X62604607Y-79410107D01*
X62586883Y-79426171D01*
X62567670Y-79440421D01*
X62547153Y-79452718D01*
X62525529Y-79462946D01*
X62503007Y-79471004D01*
X62479803Y-79476816D01*
X62456142Y-79480326D01*
X62432250Y-79481500D01*
X61519750Y-79481500D01*
X61495858Y-79480326D01*
X61472197Y-79476816D01*
X61448993Y-79471004D01*
X61426471Y-79462946D01*
X61404847Y-79452718D01*
X61384330Y-79440421D01*
X61365117Y-79426171D01*
X61347393Y-79410107D01*
X61331329Y-79392383D01*
X61317079Y-79373170D01*
X61304782Y-79352653D01*
X61294554Y-79331029D01*
X61286496Y-79308507D01*
X61280684Y-79285303D01*
X61277174Y-79261642D01*
X61276000Y-79237750D01*
X61276000Y-78750250D01*
X61277174Y-78726358D01*
X61280684Y-78702697D01*
X61286496Y-78679493D01*
X61294554Y-78656971D01*
X61304782Y-78635347D01*
X61317079Y-78614830D01*
X61331329Y-78595617D01*
X61347393Y-78577893D01*
X61365117Y-78561829D01*
X61384330Y-78547579D01*
X61404847Y-78535282D01*
X61426471Y-78525054D01*
X61448993Y-78516996D01*
X61472197Y-78511184D01*
X61495858Y-78507674D01*
X61519750Y-78506500D01*
X62432250Y-78506500D01*
X62456142Y-78507674D01*
G37*
G36*
X62456142Y-80382674D02*
G01*
X62479803Y-80386184D01*
X62503007Y-80391996D01*
X62525529Y-80400054D01*
X62547153Y-80410282D01*
X62567670Y-80422579D01*
X62586883Y-80436829D01*
X62604607Y-80452893D01*
X62620671Y-80470617D01*
X62634921Y-80489830D01*
X62647218Y-80510347D01*
X62657446Y-80531971D01*
X62665504Y-80554493D01*
X62671316Y-80577697D01*
X62674826Y-80601358D01*
X62676000Y-80625250D01*
X62676000Y-81112750D01*
X62674826Y-81136642D01*
X62671316Y-81160303D01*
X62665504Y-81183507D01*
X62657446Y-81206029D01*
X62647218Y-81227653D01*
X62634921Y-81248170D01*
X62620671Y-81267383D01*
X62604607Y-81285107D01*
X62586883Y-81301171D01*
X62567670Y-81315421D01*
X62547153Y-81327718D01*
X62525529Y-81337946D01*
X62503007Y-81346004D01*
X62479803Y-81351816D01*
X62456142Y-81355326D01*
X62432250Y-81356500D01*
X61519750Y-81356500D01*
X61495858Y-81355326D01*
X61472197Y-81351816D01*
X61448993Y-81346004D01*
X61426471Y-81337946D01*
X61404847Y-81327718D01*
X61384330Y-81315421D01*
X61365117Y-81301171D01*
X61347393Y-81285107D01*
X61331329Y-81267383D01*
X61317079Y-81248170D01*
X61304782Y-81227653D01*
X61294554Y-81206029D01*
X61286496Y-81183507D01*
X61280684Y-81160303D01*
X61277174Y-81136642D01*
X61276000Y-81112750D01*
X61276000Y-80625250D01*
X61277174Y-80601358D01*
X61280684Y-80577697D01*
X61286496Y-80554493D01*
X61294554Y-80531971D01*
X61304782Y-80510347D01*
X61317079Y-80489830D01*
X61331329Y-80470617D01*
X61347393Y-80452893D01*
X61365117Y-80436829D01*
X61384330Y-80422579D01*
X61404847Y-80410282D01*
X61426471Y-80400054D01*
X61448993Y-80391996D01*
X61472197Y-80386184D01*
X61495858Y-80382674D01*
X61519750Y-80381500D01*
X62432250Y-80381500D01*
X62456142Y-80382674D01*
G37*
G36*
X34516142Y-21103674D02*
G01*
X34539803Y-21107184D01*
X34563007Y-21112996D01*
X34585529Y-21121054D01*
X34607153Y-21131282D01*
X34627670Y-21143579D01*
X34646883Y-21157829D01*
X34664607Y-21173893D01*
X34680671Y-21191617D01*
X34694921Y-21210830D01*
X34707218Y-21231347D01*
X34717446Y-21252971D01*
X34725504Y-21275493D01*
X34731316Y-21298697D01*
X34734826Y-21322358D01*
X34736000Y-21346250D01*
X34736000Y-21833750D01*
X34734826Y-21857642D01*
X34731316Y-21881303D01*
X34725504Y-21904507D01*
X34717446Y-21927029D01*
X34707218Y-21948653D01*
X34694921Y-21969170D01*
X34680671Y-21988383D01*
X34664607Y-22006107D01*
X34646883Y-22022171D01*
X34627670Y-22036421D01*
X34607153Y-22048718D01*
X34585529Y-22058946D01*
X34563007Y-22067004D01*
X34539803Y-22072816D01*
X34516142Y-22076326D01*
X34492250Y-22077500D01*
X33579750Y-22077500D01*
X33555858Y-22076326D01*
X33532197Y-22072816D01*
X33508993Y-22067004D01*
X33486471Y-22058946D01*
X33464847Y-22048718D01*
X33444330Y-22036421D01*
X33425117Y-22022171D01*
X33407393Y-22006107D01*
X33391329Y-21988383D01*
X33377079Y-21969170D01*
X33364782Y-21948653D01*
X33354554Y-21927029D01*
X33346496Y-21904507D01*
X33340684Y-21881303D01*
X33337174Y-21857642D01*
X33336000Y-21833750D01*
X33336000Y-21346250D01*
X33337174Y-21322358D01*
X33340684Y-21298697D01*
X33346496Y-21275493D01*
X33354554Y-21252971D01*
X33364782Y-21231347D01*
X33377079Y-21210830D01*
X33391329Y-21191617D01*
X33407393Y-21173893D01*
X33425117Y-21157829D01*
X33444330Y-21143579D01*
X33464847Y-21131282D01*
X33486471Y-21121054D01*
X33508993Y-21112996D01*
X33532197Y-21107184D01*
X33555858Y-21103674D01*
X33579750Y-21102500D01*
X34492250Y-21102500D01*
X34516142Y-21103674D01*
G37*
G36*
X34516142Y-22978674D02*
G01*
X34539803Y-22982184D01*
X34563007Y-22987996D01*
X34585529Y-22996054D01*
X34607153Y-23006282D01*
X34627670Y-23018579D01*
X34646883Y-23032829D01*
X34664607Y-23048893D01*
X34680671Y-23066617D01*
X34694921Y-23085830D01*
X34707218Y-23106347D01*
X34717446Y-23127971D01*
X34725504Y-23150493D01*
X34731316Y-23173697D01*
X34734826Y-23197358D01*
X34736000Y-23221250D01*
X34736000Y-23708750D01*
X34734826Y-23732642D01*
X34731316Y-23756303D01*
X34725504Y-23779507D01*
X34717446Y-23802029D01*
X34707218Y-23823653D01*
X34694921Y-23844170D01*
X34680671Y-23863383D01*
X34664607Y-23881107D01*
X34646883Y-23897171D01*
X34627670Y-23911421D01*
X34607153Y-23923718D01*
X34585529Y-23933946D01*
X34563007Y-23942004D01*
X34539803Y-23947816D01*
X34516142Y-23951326D01*
X34492250Y-23952500D01*
X33579750Y-23952500D01*
X33555858Y-23951326D01*
X33532197Y-23947816D01*
X33508993Y-23942004D01*
X33486471Y-23933946D01*
X33464847Y-23923718D01*
X33444330Y-23911421D01*
X33425117Y-23897171D01*
X33407393Y-23881107D01*
X33391329Y-23863383D01*
X33377079Y-23844170D01*
X33364782Y-23823653D01*
X33354554Y-23802029D01*
X33346496Y-23779507D01*
X33340684Y-23756303D01*
X33337174Y-23732642D01*
X33336000Y-23708750D01*
X33336000Y-23221250D01*
X33337174Y-23197358D01*
X33340684Y-23173697D01*
X33346496Y-23150493D01*
X33354554Y-23127971D01*
X33364782Y-23106347D01*
X33377079Y-23085830D01*
X33391329Y-23066617D01*
X33407393Y-23048893D01*
X33425117Y-23032829D01*
X33444330Y-23018579D01*
X33464847Y-23006282D01*
X33486471Y-22996054D01*
X33508993Y-22987996D01*
X33532197Y-22982184D01*
X33555858Y-22978674D01*
X33579750Y-22977500D01*
X34492250Y-22977500D01*
X34516142Y-22978674D01*
G37*
G36*
X19530142Y-21230674D02*
G01*
X19553803Y-21234184D01*
X19577007Y-21239996D01*
X19599529Y-21248054D01*
X19621153Y-21258282D01*
X19641670Y-21270579D01*
X19660883Y-21284829D01*
X19678607Y-21300893D01*
X19694671Y-21318617D01*
X19708921Y-21337830D01*
X19721218Y-21358347D01*
X19731446Y-21379971D01*
X19739504Y-21402493D01*
X19745316Y-21425697D01*
X19748826Y-21449358D01*
X19750000Y-21473250D01*
X19750000Y-21960750D01*
X19748826Y-21984642D01*
X19745316Y-22008303D01*
X19739504Y-22031507D01*
X19731446Y-22054029D01*
X19721218Y-22075653D01*
X19708921Y-22096170D01*
X19694671Y-22115383D01*
X19678607Y-22133107D01*
X19660883Y-22149171D01*
X19641670Y-22163421D01*
X19621153Y-22175718D01*
X19599529Y-22185946D01*
X19577007Y-22194004D01*
X19553803Y-22199816D01*
X19530142Y-22203326D01*
X19506250Y-22204500D01*
X18593750Y-22204500D01*
X18569858Y-22203326D01*
X18546197Y-22199816D01*
X18522993Y-22194004D01*
X18500471Y-22185946D01*
X18478847Y-22175718D01*
X18458330Y-22163421D01*
X18439117Y-22149171D01*
X18421393Y-22133107D01*
X18405329Y-22115383D01*
X18391079Y-22096170D01*
X18378782Y-22075653D01*
X18368554Y-22054029D01*
X18360496Y-22031507D01*
X18354684Y-22008303D01*
X18351174Y-21984642D01*
X18350000Y-21960750D01*
X18350000Y-21473250D01*
X18351174Y-21449358D01*
X18354684Y-21425697D01*
X18360496Y-21402493D01*
X18368554Y-21379971D01*
X18378782Y-21358347D01*
X18391079Y-21337830D01*
X18405329Y-21318617D01*
X18421393Y-21300893D01*
X18439117Y-21284829D01*
X18458330Y-21270579D01*
X18478847Y-21258282D01*
X18500471Y-21248054D01*
X18522993Y-21239996D01*
X18546197Y-21234184D01*
X18569858Y-21230674D01*
X18593750Y-21229500D01*
X19506250Y-21229500D01*
X19530142Y-21230674D01*
G37*
G36*
X19530142Y-23105674D02*
G01*
X19553803Y-23109184D01*
X19577007Y-23114996D01*
X19599529Y-23123054D01*
X19621153Y-23133282D01*
X19641670Y-23145579D01*
X19660883Y-23159829D01*
X19678607Y-23175893D01*
X19694671Y-23193617D01*
X19708921Y-23212830D01*
X19721218Y-23233347D01*
X19731446Y-23254971D01*
X19739504Y-23277493D01*
X19745316Y-23300697D01*
X19748826Y-23324358D01*
X19750000Y-23348250D01*
X19750000Y-23835750D01*
X19748826Y-23859642D01*
X19745316Y-23883303D01*
X19739504Y-23906507D01*
X19731446Y-23929029D01*
X19721218Y-23950653D01*
X19708921Y-23971170D01*
X19694671Y-23990383D01*
X19678607Y-24008107D01*
X19660883Y-24024171D01*
X19641670Y-24038421D01*
X19621153Y-24050718D01*
X19599529Y-24060946D01*
X19577007Y-24069004D01*
X19553803Y-24074816D01*
X19530142Y-24078326D01*
X19506250Y-24079500D01*
X18593750Y-24079500D01*
X18569858Y-24078326D01*
X18546197Y-24074816D01*
X18522993Y-24069004D01*
X18500471Y-24060946D01*
X18478847Y-24050718D01*
X18458330Y-24038421D01*
X18439117Y-24024171D01*
X18421393Y-24008107D01*
X18405329Y-23990383D01*
X18391079Y-23971170D01*
X18378782Y-23950653D01*
X18368554Y-23929029D01*
X18360496Y-23906507D01*
X18354684Y-23883303D01*
X18351174Y-23859642D01*
X18350000Y-23835750D01*
X18350000Y-23348250D01*
X18351174Y-23324358D01*
X18354684Y-23300697D01*
X18360496Y-23277493D01*
X18368554Y-23254971D01*
X18378782Y-23233347D01*
X18391079Y-23212830D01*
X18405329Y-23193617D01*
X18421393Y-23175893D01*
X18439117Y-23159829D01*
X18458330Y-23145579D01*
X18478847Y-23133282D01*
X18500471Y-23123054D01*
X18522993Y-23114996D01*
X18546197Y-23109184D01*
X18569858Y-23105674D01*
X18593750Y-23104500D01*
X19506250Y-23104500D01*
X19530142Y-23105674D01*
G37*
G36*
X28420142Y-33170424D02*
G01*
X28443803Y-33173934D01*
X28467007Y-33179746D01*
X28489529Y-33187804D01*
X28511153Y-33198032D01*
X28531670Y-33210329D01*
X28550883Y-33224579D01*
X28568607Y-33240643D01*
X28584671Y-33258367D01*
X28598921Y-33277580D01*
X28611218Y-33298097D01*
X28621446Y-33319721D01*
X28629504Y-33342243D01*
X28635316Y-33365447D01*
X28638826Y-33389108D01*
X28640000Y-33413000D01*
X28640000Y-33900500D01*
X28638826Y-33924392D01*
X28635316Y-33948053D01*
X28629504Y-33971257D01*
X28621446Y-33993779D01*
X28611218Y-34015403D01*
X28598921Y-34035920D01*
X28584671Y-34055133D01*
X28568607Y-34072857D01*
X28550883Y-34088921D01*
X28531670Y-34103171D01*
X28511153Y-34115468D01*
X28489529Y-34125696D01*
X28467007Y-34133754D01*
X28443803Y-34139566D01*
X28420142Y-34143076D01*
X28396250Y-34144250D01*
X27483750Y-34144250D01*
X27459858Y-34143076D01*
X27436197Y-34139566D01*
X27412993Y-34133754D01*
X27390471Y-34125696D01*
X27368847Y-34115468D01*
X27348330Y-34103171D01*
X27329117Y-34088921D01*
X27311393Y-34072857D01*
X27295329Y-34055133D01*
X27281079Y-34035920D01*
X27268782Y-34015403D01*
X27258554Y-33993779D01*
X27250496Y-33971257D01*
X27244684Y-33948053D01*
X27241174Y-33924392D01*
X27240000Y-33900500D01*
X27240000Y-33413000D01*
X27241174Y-33389108D01*
X27244684Y-33365447D01*
X27250496Y-33342243D01*
X27258554Y-33319721D01*
X27268782Y-33298097D01*
X27281079Y-33277580D01*
X27295329Y-33258367D01*
X27311393Y-33240643D01*
X27329117Y-33224579D01*
X27348330Y-33210329D01*
X27368847Y-33198032D01*
X27390471Y-33187804D01*
X27412993Y-33179746D01*
X27436197Y-33173934D01*
X27459858Y-33170424D01*
X27483750Y-33169250D01*
X28396250Y-33169250D01*
X28420142Y-33170424D01*
G37*
G36*
X28420142Y-31295424D02*
G01*
X28443803Y-31298934D01*
X28467007Y-31304746D01*
X28489529Y-31312804D01*
X28511153Y-31323032D01*
X28531670Y-31335329D01*
X28550883Y-31349579D01*
X28568607Y-31365643D01*
X28584671Y-31383367D01*
X28598921Y-31402580D01*
X28611218Y-31423097D01*
X28621446Y-31444721D01*
X28629504Y-31467243D01*
X28635316Y-31490447D01*
X28638826Y-31514108D01*
X28640000Y-31538000D01*
X28640000Y-32025500D01*
X28638826Y-32049392D01*
X28635316Y-32073053D01*
X28629504Y-32096257D01*
X28621446Y-32118779D01*
X28611218Y-32140403D01*
X28598921Y-32160920D01*
X28584671Y-32180133D01*
X28568607Y-32197857D01*
X28550883Y-32213921D01*
X28531670Y-32228171D01*
X28511153Y-32240468D01*
X28489529Y-32250696D01*
X28467007Y-32258754D01*
X28443803Y-32264566D01*
X28420142Y-32268076D01*
X28396250Y-32269250D01*
X27483750Y-32269250D01*
X27459858Y-32268076D01*
X27436197Y-32264566D01*
X27412993Y-32258754D01*
X27390471Y-32250696D01*
X27368847Y-32240468D01*
X27348330Y-32228171D01*
X27329117Y-32213921D01*
X27311393Y-32197857D01*
X27295329Y-32180133D01*
X27281079Y-32160920D01*
X27268782Y-32140403D01*
X27258554Y-32118779D01*
X27250496Y-32096257D01*
X27244684Y-32073053D01*
X27241174Y-32049392D01*
X27240000Y-32025500D01*
X27240000Y-31538000D01*
X27241174Y-31514108D01*
X27244684Y-31490447D01*
X27250496Y-31467243D01*
X27258554Y-31444721D01*
X27268782Y-31423097D01*
X27281079Y-31402580D01*
X27295329Y-31383367D01*
X27311393Y-31365643D01*
X27329117Y-31349579D01*
X27348330Y-31335329D01*
X27368847Y-31323032D01*
X27390471Y-31312804D01*
X27412993Y-31304746D01*
X27436197Y-31298934D01*
X27459858Y-31295424D01*
X27483750Y-31294250D01*
X28396250Y-31294250D01*
X28420142Y-31295424D01*
G37*
G36*
X25308642Y-33185424D02*
G01*
X25332303Y-33188934D01*
X25355507Y-33194746D01*
X25378029Y-33202804D01*
X25399653Y-33213032D01*
X25420170Y-33225329D01*
X25439383Y-33239579D01*
X25457107Y-33255643D01*
X25473171Y-33273367D01*
X25487421Y-33292580D01*
X25499718Y-33313097D01*
X25509946Y-33334721D01*
X25518004Y-33357243D01*
X25523816Y-33380447D01*
X25527326Y-33404108D01*
X25528500Y-33428000D01*
X25528500Y-33915500D01*
X25527326Y-33939392D01*
X25523816Y-33963053D01*
X25518004Y-33986257D01*
X25509946Y-34008779D01*
X25499718Y-34030403D01*
X25487421Y-34050920D01*
X25473171Y-34070133D01*
X25457107Y-34087857D01*
X25439383Y-34103921D01*
X25420170Y-34118171D01*
X25399653Y-34130468D01*
X25378029Y-34140696D01*
X25355507Y-34148754D01*
X25332303Y-34154566D01*
X25308642Y-34158076D01*
X25284750Y-34159250D01*
X24372250Y-34159250D01*
X24348358Y-34158076D01*
X24324697Y-34154566D01*
X24301493Y-34148754D01*
X24278971Y-34140696D01*
X24257347Y-34130468D01*
X24236830Y-34118171D01*
X24217617Y-34103921D01*
X24199893Y-34087857D01*
X24183829Y-34070133D01*
X24169579Y-34050920D01*
X24157282Y-34030403D01*
X24147054Y-34008779D01*
X24138996Y-33986257D01*
X24133184Y-33963053D01*
X24129674Y-33939392D01*
X24128500Y-33915500D01*
X24128500Y-33428000D01*
X24129674Y-33404108D01*
X24133184Y-33380447D01*
X24138996Y-33357243D01*
X24147054Y-33334721D01*
X24157282Y-33313097D01*
X24169579Y-33292580D01*
X24183829Y-33273367D01*
X24199893Y-33255643D01*
X24217617Y-33239579D01*
X24236830Y-33225329D01*
X24257347Y-33213032D01*
X24278971Y-33202804D01*
X24301493Y-33194746D01*
X24324697Y-33188934D01*
X24348358Y-33185424D01*
X24372250Y-33184250D01*
X25284750Y-33184250D01*
X25308642Y-33185424D01*
G37*
G36*
X25308642Y-31310424D02*
G01*
X25332303Y-31313934D01*
X25355507Y-31319746D01*
X25378029Y-31327804D01*
X25399653Y-31338032D01*
X25420170Y-31350329D01*
X25439383Y-31364579D01*
X25457107Y-31380643D01*
X25473171Y-31398367D01*
X25487421Y-31417580D01*
X25499718Y-31438097D01*
X25509946Y-31459721D01*
X25518004Y-31482243D01*
X25523816Y-31505447D01*
X25527326Y-31529108D01*
X25528500Y-31553000D01*
X25528500Y-32040500D01*
X25527326Y-32064392D01*
X25523816Y-32088053D01*
X25518004Y-32111257D01*
X25509946Y-32133779D01*
X25499718Y-32155403D01*
X25487421Y-32175920D01*
X25473171Y-32195133D01*
X25457107Y-32212857D01*
X25439383Y-32228921D01*
X25420170Y-32243171D01*
X25399653Y-32255468D01*
X25378029Y-32265696D01*
X25355507Y-32273754D01*
X25332303Y-32279566D01*
X25308642Y-32283076D01*
X25284750Y-32284250D01*
X24372250Y-32284250D01*
X24348358Y-32283076D01*
X24324697Y-32279566D01*
X24301493Y-32273754D01*
X24278971Y-32265696D01*
X24257347Y-32255468D01*
X24236830Y-32243171D01*
X24217617Y-32228921D01*
X24199893Y-32212857D01*
X24183829Y-32195133D01*
X24169579Y-32175920D01*
X24157282Y-32155403D01*
X24147054Y-32133779D01*
X24138996Y-32111257D01*
X24133184Y-32088053D01*
X24129674Y-32064392D01*
X24128500Y-32040500D01*
X24128500Y-31553000D01*
X24129674Y-31529108D01*
X24133184Y-31505447D01*
X24138996Y-31482243D01*
X24147054Y-31459721D01*
X24157282Y-31438097D01*
X24169579Y-31417580D01*
X24183829Y-31398367D01*
X24199893Y-31380643D01*
X24217617Y-31364579D01*
X24236830Y-31350329D01*
X24257347Y-31338032D01*
X24278971Y-31327804D01*
X24301493Y-31319746D01*
X24324697Y-31313934D01*
X24348358Y-31310424D01*
X24372250Y-31309250D01*
X25284750Y-31309250D01*
X25308642Y-31310424D01*
G37*
G36*
X41120142Y-90143174D02*
G01*
X41143803Y-90146684D01*
X41167007Y-90152496D01*
X41189529Y-90160554D01*
X41211153Y-90170782D01*
X41231670Y-90183079D01*
X41250883Y-90197329D01*
X41268607Y-90213393D01*
X41284671Y-90231117D01*
X41298921Y-90250330D01*
X41311218Y-90270847D01*
X41321446Y-90292471D01*
X41329504Y-90314993D01*
X41335316Y-90338197D01*
X41338826Y-90361858D01*
X41340000Y-90385750D01*
X41340000Y-90873250D01*
X41338826Y-90897142D01*
X41335316Y-90920803D01*
X41329504Y-90944007D01*
X41321446Y-90966529D01*
X41311218Y-90988153D01*
X41298921Y-91008670D01*
X41284671Y-91027883D01*
X41268607Y-91045607D01*
X41250883Y-91061671D01*
X41231670Y-91075921D01*
X41211153Y-91088218D01*
X41189529Y-91098446D01*
X41167007Y-91106504D01*
X41143803Y-91112316D01*
X41120142Y-91115826D01*
X41096250Y-91117000D01*
X40183750Y-91117000D01*
X40159858Y-91115826D01*
X40136197Y-91112316D01*
X40112993Y-91106504D01*
X40090471Y-91098446D01*
X40068847Y-91088218D01*
X40048330Y-91075921D01*
X40029117Y-91061671D01*
X40011393Y-91045607D01*
X39995329Y-91027883D01*
X39981079Y-91008670D01*
X39968782Y-90988153D01*
X39958554Y-90966529D01*
X39950496Y-90944007D01*
X39944684Y-90920803D01*
X39941174Y-90897142D01*
X39940000Y-90873250D01*
X39940000Y-90385750D01*
X39941174Y-90361858D01*
X39944684Y-90338197D01*
X39950496Y-90314993D01*
X39958554Y-90292471D01*
X39968782Y-90270847D01*
X39981079Y-90250330D01*
X39995329Y-90231117D01*
X40011393Y-90213393D01*
X40029117Y-90197329D01*
X40048330Y-90183079D01*
X40068847Y-90170782D01*
X40090471Y-90160554D01*
X40112993Y-90152496D01*
X40136197Y-90146684D01*
X40159858Y-90143174D01*
X40183750Y-90142000D01*
X41096250Y-90142000D01*
X41120142Y-90143174D01*
G37*
G36*
X41120142Y-92018174D02*
G01*
X41143803Y-92021684D01*
X41167007Y-92027496D01*
X41189529Y-92035554D01*
X41211153Y-92045782D01*
X41231670Y-92058079D01*
X41250883Y-92072329D01*
X41268607Y-92088393D01*
X41284671Y-92106117D01*
X41298921Y-92125330D01*
X41311218Y-92145847D01*
X41321446Y-92167471D01*
X41329504Y-92189993D01*
X41335316Y-92213197D01*
X41338826Y-92236858D01*
X41340000Y-92260750D01*
X41340000Y-92748250D01*
X41338826Y-92772142D01*
X41335316Y-92795803D01*
X41329504Y-92819007D01*
X41321446Y-92841529D01*
X41311218Y-92863153D01*
X41298921Y-92883670D01*
X41284671Y-92902883D01*
X41268607Y-92920607D01*
X41250883Y-92936671D01*
X41231670Y-92950921D01*
X41211153Y-92963218D01*
X41189529Y-92973446D01*
X41167007Y-92981504D01*
X41143803Y-92987316D01*
X41120142Y-92990826D01*
X41096250Y-92992000D01*
X40183750Y-92992000D01*
X40159858Y-92990826D01*
X40136197Y-92987316D01*
X40112993Y-92981504D01*
X40090471Y-92973446D01*
X40068847Y-92963218D01*
X40048330Y-92950921D01*
X40029117Y-92936671D01*
X40011393Y-92920607D01*
X39995329Y-92902883D01*
X39981079Y-92883670D01*
X39968782Y-92863153D01*
X39958554Y-92841529D01*
X39950496Y-92819007D01*
X39944684Y-92795803D01*
X39941174Y-92772142D01*
X39940000Y-92748250D01*
X39940000Y-92260750D01*
X39941174Y-92236858D01*
X39944684Y-92213197D01*
X39950496Y-92189993D01*
X39958554Y-92167471D01*
X39968782Y-92145847D01*
X39981079Y-92125330D01*
X39995329Y-92106117D01*
X40011393Y-92088393D01*
X40029117Y-92072329D01*
X40048330Y-92058079D01*
X40068847Y-92045782D01*
X40090471Y-92035554D01*
X40112993Y-92027496D01*
X40136197Y-92021684D01*
X40159858Y-92018174D01*
X40183750Y-92017000D01*
X41096250Y-92017000D01*
X41120142Y-92018174D01*
G37*
G36*
X54268042Y-77075974D02*
G01*
X54291703Y-77079484D01*
X54314907Y-77085296D01*
X54337429Y-77093354D01*
X54359053Y-77103582D01*
X54379570Y-77115879D01*
X54398783Y-77130129D01*
X54416507Y-77146193D01*
X54432571Y-77163917D01*
X54446821Y-77183130D01*
X54459118Y-77203647D01*
X54469346Y-77225271D01*
X54477404Y-77247793D01*
X54483216Y-77270997D01*
X54486726Y-77294658D01*
X54487900Y-77318550D01*
X54487900Y-78231050D01*
X54486726Y-78254942D01*
X54483216Y-78278603D01*
X54477404Y-78301807D01*
X54469346Y-78324329D01*
X54459118Y-78345953D01*
X54446821Y-78366470D01*
X54432571Y-78385683D01*
X54416507Y-78403407D01*
X54398783Y-78419471D01*
X54379570Y-78433721D01*
X54359053Y-78446018D01*
X54337429Y-78456246D01*
X54314907Y-78464304D01*
X54291703Y-78470116D01*
X54268042Y-78473626D01*
X54244150Y-78474800D01*
X53756650Y-78474800D01*
X53732758Y-78473626D01*
X53709097Y-78470116D01*
X53685893Y-78464304D01*
X53663371Y-78456246D01*
X53641747Y-78446018D01*
X53621230Y-78433721D01*
X53602017Y-78419471D01*
X53584293Y-78403407D01*
X53568229Y-78385683D01*
X53553979Y-78366470D01*
X53541682Y-78345953D01*
X53531454Y-78324329D01*
X53523396Y-78301807D01*
X53517584Y-78278603D01*
X53514074Y-78254942D01*
X53512900Y-78231050D01*
X53512900Y-77318550D01*
X53514074Y-77294658D01*
X53517584Y-77270997D01*
X53523396Y-77247793D01*
X53531454Y-77225271D01*
X53541682Y-77203647D01*
X53553979Y-77183130D01*
X53568229Y-77163917D01*
X53584293Y-77146193D01*
X53602017Y-77130129D01*
X53621230Y-77115879D01*
X53641747Y-77103582D01*
X53663371Y-77093354D01*
X53685893Y-77085296D01*
X53709097Y-77079484D01*
X53732758Y-77075974D01*
X53756650Y-77074800D01*
X54244150Y-77074800D01*
X54268042Y-77075974D01*
G37*
G36*
X52393042Y-77075974D02*
G01*
X52416703Y-77079484D01*
X52439907Y-77085296D01*
X52462429Y-77093354D01*
X52484053Y-77103582D01*
X52504570Y-77115879D01*
X52523783Y-77130129D01*
X52541507Y-77146193D01*
X52557571Y-77163917D01*
X52571821Y-77183130D01*
X52584118Y-77203647D01*
X52594346Y-77225271D01*
X52602404Y-77247793D01*
X52608216Y-77270997D01*
X52611726Y-77294658D01*
X52612900Y-77318550D01*
X52612900Y-78231050D01*
X52611726Y-78254942D01*
X52608216Y-78278603D01*
X52602404Y-78301807D01*
X52594346Y-78324329D01*
X52584118Y-78345953D01*
X52571821Y-78366470D01*
X52557571Y-78385683D01*
X52541507Y-78403407D01*
X52523783Y-78419471D01*
X52504570Y-78433721D01*
X52484053Y-78446018D01*
X52462429Y-78456246D01*
X52439907Y-78464304D01*
X52416703Y-78470116D01*
X52393042Y-78473626D01*
X52369150Y-78474800D01*
X51881650Y-78474800D01*
X51857758Y-78473626D01*
X51834097Y-78470116D01*
X51810893Y-78464304D01*
X51788371Y-78456246D01*
X51766747Y-78446018D01*
X51746230Y-78433721D01*
X51727017Y-78419471D01*
X51709293Y-78403407D01*
X51693229Y-78385683D01*
X51678979Y-78366470D01*
X51666682Y-78345953D01*
X51656454Y-78324329D01*
X51648396Y-78301807D01*
X51642584Y-78278603D01*
X51639074Y-78254942D01*
X51637900Y-78231050D01*
X51637900Y-77318550D01*
X51639074Y-77294658D01*
X51642584Y-77270997D01*
X51648396Y-77247793D01*
X51656454Y-77225271D01*
X51666682Y-77203647D01*
X51678979Y-77183130D01*
X51693229Y-77163917D01*
X51709293Y-77146193D01*
X51727017Y-77130129D01*
X51746230Y-77115879D01*
X51766747Y-77103582D01*
X51788371Y-77093354D01*
X51810893Y-77085296D01*
X51834097Y-77079484D01*
X51857758Y-77075974D01*
X51881650Y-77074800D01*
X52369150Y-77074800D01*
X52393042Y-77075974D01*
G37*
D12*
X40331250Y-79343750D03*
X40331250Y-80143750D03*
X40331250Y-80943750D03*
X40331250Y-81743750D03*
X40331250Y-82543750D03*
X40331250Y-83343750D03*
X40331250Y-84143750D03*
X40331250Y-84943750D03*
X40331250Y-85743750D03*
X40331250Y-86543750D03*
X40331250Y-87343750D03*
D13*
X42031250Y-89043750D03*
X42831250Y-89043750D03*
X43631250Y-89043750D03*
X44431250Y-89043750D03*
X45231250Y-89043750D03*
X46031250Y-89043750D03*
X46831250Y-89043750D03*
X47631250Y-89043750D03*
X48431250Y-89043750D03*
X49231250Y-89043750D03*
X50031250Y-89043750D03*
D12*
X51731250Y-87343750D03*
X51731250Y-86543750D03*
X51731250Y-85743750D03*
X51731250Y-84943750D03*
X51731250Y-84143750D03*
X51731250Y-83343750D03*
X51731250Y-82543750D03*
X51731250Y-81743750D03*
X51731250Y-80943750D03*
X51731250Y-80143750D03*
X51731250Y-79343750D03*
D13*
X50031250Y-77643750D03*
X49231250Y-77643750D03*
X48431250Y-77643750D03*
X47631250Y-77643750D03*
X46831250Y-77643750D03*
X46031250Y-77643750D03*
X45231250Y-77643750D03*
X44431250Y-77643750D03*
X43631250Y-77643750D03*
X42831250Y-77643750D03*
X42031250Y-77643750D03*
D14*
X29775100Y-24363750D03*
X23325100Y-24363750D03*
X29000100Y-24363750D03*
X24100100Y-24363750D03*
D15*
X24800100Y-24363750D03*
X28300100Y-24363750D03*
X25300100Y-24363750D03*
X27800100Y-24363750D03*
X25800100Y-24363750D03*
X27300100Y-24363750D03*
X26800100Y-24363750D03*
X26300100Y-24363750D03*
D16*
X27400000Y-27981250D03*
D17*
X25400000Y-27781250D03*
X27400000Y-29681250D03*
X25400000Y-29681250D03*
D18*
X287337500Y-100681250D03*
X287337500Y-103981250D03*
X263525000Y-100681250D03*
X263525000Y-103981250D03*
X241300000Y-100743750D03*
X241300000Y-104043750D03*
X159543750Y-100743750D03*
X159543750Y-104043750D03*
X77787500Y-100743750D03*
X77787500Y-104043750D03*
X53975000Y-100743750D03*
X53975000Y-104043750D03*
X30956250Y-100743750D03*
X30956250Y-104043750D03*
X242887500Y-93725000D03*
X242887500Y-90425000D03*
X239712500Y-93725000D03*
X239712500Y-90425000D03*
X220662500Y-93725000D03*
X220662500Y-90425000D03*
X201612500Y-93725000D03*
X201612500Y-90425000D03*
X182562500Y-93725000D03*
X182562500Y-90425000D03*
X163512500Y-93725000D03*
X163512500Y-90425000D03*
X144462500Y-93725000D03*
X144462500Y-90425000D03*
X125412500Y-93725000D03*
X125412500Y-90425000D03*
X106362500Y-93725000D03*
X106362500Y-90425000D03*
X87312500Y-93725000D03*
X87312500Y-90425000D03*
X68262500Y-93725000D03*
X68262500Y-90425000D03*
X36512500Y-93725000D03*
X36512500Y-90425000D03*
X252412500Y-74675000D03*
X252412500Y-71375000D03*
X249237500Y-74675000D03*
X249237500Y-71375000D03*
X230187500Y-74675000D03*
X230187500Y-71375000D03*
X211137500Y-74675000D03*
X211137500Y-71375000D03*
X192087500Y-74675000D03*
X192087500Y-71375000D03*
X173037500Y-74675000D03*
X173037500Y-71375000D03*
X153987500Y-74675000D03*
X153987500Y-71375000D03*
X134937500Y-74675000D03*
X134937500Y-71375000D03*
X115887500Y-74675000D03*
X115887500Y-71375000D03*
X96837500Y-74675000D03*
X96837500Y-71375000D03*
X77787500Y-74675000D03*
X77787500Y-71375000D03*
X58737500Y-74675000D03*
X58737500Y-71375000D03*
X34925000Y-74675000D03*
X34925000Y-71375000D03*
X266700000Y-55625000D03*
X266700000Y-52325000D03*
X263525000Y-55625000D03*
X263525000Y-52325000D03*
X244475000Y-55625000D03*
X244475000Y-52325000D03*
X225425000Y-55625000D03*
X225425000Y-52325000D03*
X206375000Y-55625000D03*
X206375000Y-52325000D03*
X187325000Y-55625000D03*
X187325000Y-52325000D03*
X168275000Y-55625000D03*
X168275000Y-52325000D03*
X149225000Y-55625000D03*
X149225000Y-52325000D03*
X130175000Y-55625000D03*
X130175000Y-52325000D03*
X111125000Y-55625000D03*
X111125000Y-52325000D03*
X92075000Y-55625000D03*
X92075000Y-52325000D03*
X73025000Y-55625000D03*
X73025000Y-52325000D03*
X53975000Y-55625000D03*
X53975000Y-52325000D03*
X31496000Y-55754000D03*
X31496000Y-59054000D03*
X257968750Y-36575000D03*
X257968750Y-33275000D03*
X254000000Y-36575000D03*
X254000000Y-33275000D03*
X237998000Y-36575000D03*
X237998000Y-33275000D03*
X234950000Y-36575000D03*
X234950000Y-33275000D03*
X215900000Y-36575000D03*
X215900000Y-33275000D03*
X196850000Y-36575000D03*
X196850000Y-33275000D03*
X177800000Y-36575000D03*
X177800000Y-33275000D03*
X158750000Y-36575000D03*
X158750000Y-33275000D03*
X139700000Y-36575000D03*
X139700000Y-33275000D03*
X120650000Y-36575000D03*
X120650000Y-33275000D03*
X101600000Y-36512500D03*
X101600000Y-33212500D03*
X82550000Y-36512500D03*
X82550000Y-33212500D03*
X63500000Y-36512500D03*
X63500000Y-33212500D03*
X44450000Y-36512500D03*
X44450000Y-33212500D03*
X23812500Y-36450000D03*
X23812500Y-39750000D03*
M02*
