G04 #@! TF.GenerationSoftware,KiCad,Pcbnew,(5.1.5)-3*
G04 #@! TF.CreationDate,2020-04-19T20:41:11-04:00*
G04 #@! TF.ProjectId,Squid60,53717569-6436-4302-9e6b-696361645f70,rev?*
G04 #@! TF.SameCoordinates,Original*
G04 #@! TF.FileFunction,Legend,Top*
G04 #@! TF.FilePolarity,Positive*
%FSLAX46Y46*%
G04 Gerber Fmt 4.6, Leading zero omitted, Abs format (unit mm)*
G04 Created by KiCad (PCBNEW (5.1.5)-3) date 2020-04-19 20:41:11*
%MOMM*%
%LPD*%
G04 APERTURE LIST*
%ADD10C,0.500000*%
%ADD11C,0.120000*%
%ADD12C,0.150000*%
G04 APERTURE END LIST*
D10*
X86789385Y-109281742D02*
X86789385Y-106281742D01*
X87503671Y-106281742D01*
X87932242Y-106424600D01*
X88217957Y-106710314D01*
X88360814Y-106996028D01*
X88503671Y-107567457D01*
X88503671Y-107996028D01*
X88360814Y-108567457D01*
X88217957Y-108853171D01*
X87932242Y-109138885D01*
X87503671Y-109281742D01*
X86789385Y-109281742D01*
X90932242Y-109138885D02*
X90646528Y-109281742D01*
X90075100Y-109281742D01*
X89789385Y-109138885D01*
X89646528Y-108853171D01*
X89646528Y-107710314D01*
X89789385Y-107424600D01*
X90075100Y-107281742D01*
X90646528Y-107281742D01*
X90932242Y-107424600D01*
X91075100Y-107710314D01*
X91075100Y-107996028D01*
X89646528Y-108281742D01*
X92217957Y-109138885D02*
X92503671Y-109281742D01*
X93075100Y-109281742D01*
X93360814Y-109138885D01*
X93503671Y-108853171D01*
X93503671Y-108710314D01*
X93360814Y-108424600D01*
X93075100Y-108281742D01*
X92646528Y-108281742D01*
X92360814Y-108138885D01*
X92217957Y-107853171D01*
X92217957Y-107710314D01*
X92360814Y-107424600D01*
X92646528Y-107281742D01*
X93075100Y-107281742D01*
X93360814Y-107424600D01*
X94789385Y-109281742D02*
X94789385Y-107281742D01*
X94789385Y-106281742D02*
X94646528Y-106424600D01*
X94789385Y-106567457D01*
X94932242Y-106424600D01*
X94789385Y-106281742D01*
X94789385Y-106567457D01*
X97503671Y-107281742D02*
X97503671Y-109710314D01*
X97360814Y-109996028D01*
X97217957Y-110138885D01*
X96932242Y-110281742D01*
X96503671Y-110281742D01*
X96217957Y-110138885D01*
X97503671Y-109138885D02*
X97217957Y-109281742D01*
X96646528Y-109281742D01*
X96360814Y-109138885D01*
X96217957Y-108996028D01*
X96075100Y-108710314D01*
X96075100Y-107853171D01*
X96217957Y-107567457D01*
X96360814Y-107424600D01*
X96646528Y-107281742D01*
X97217957Y-107281742D01*
X97503671Y-107424600D01*
X98932242Y-107281742D02*
X98932242Y-109281742D01*
X98932242Y-107567457D02*
X99075100Y-107424600D01*
X99360814Y-107281742D01*
X99789385Y-107281742D01*
X100075100Y-107424600D01*
X100217957Y-107710314D01*
X100217957Y-109281742D01*
X102789385Y-109138885D02*
X102503671Y-109281742D01*
X101932242Y-109281742D01*
X101646528Y-109138885D01*
X101503671Y-108853171D01*
X101503671Y-107710314D01*
X101646528Y-107424600D01*
X101932242Y-107281742D01*
X102503671Y-107281742D01*
X102789385Y-107424600D01*
X102932242Y-107710314D01*
X102932242Y-107996028D01*
X101503671Y-108281742D01*
X105503671Y-109281742D02*
X105503671Y-106281742D01*
X105503671Y-109138885D02*
X105217957Y-109281742D01*
X104646528Y-109281742D01*
X104360814Y-109138885D01*
X104217957Y-108996028D01*
X104075100Y-108710314D01*
X104075100Y-107853171D01*
X104217957Y-107567457D01*
X104360814Y-107424600D01*
X104646528Y-107281742D01*
X105217957Y-107281742D01*
X105503671Y-107424600D01*
X109217957Y-109281742D02*
X109217957Y-106281742D01*
X109217957Y-107424600D02*
X109503671Y-107281742D01*
X110075100Y-107281742D01*
X110360814Y-107424600D01*
X110503671Y-107567457D01*
X110646528Y-107853171D01*
X110646528Y-108710314D01*
X110503671Y-108996028D01*
X110360814Y-109138885D01*
X110075100Y-109281742D01*
X109503671Y-109281742D01*
X109217957Y-109138885D01*
X111646528Y-107281742D02*
X112360814Y-109281742D01*
X113075100Y-107281742D02*
X112360814Y-109281742D01*
X112075100Y-109996028D01*
X111932242Y-110138885D01*
X111646528Y-110281742D01*
X116360814Y-108424600D02*
X117789385Y-108424600D01*
X116075100Y-109281742D02*
X117075100Y-106281742D01*
X118075100Y-109281742D01*
X119503671Y-109281742D02*
X119217957Y-109138885D01*
X119075100Y-108853171D01*
X119075100Y-106281742D01*
X121932242Y-109281742D02*
X121932242Y-107710314D01*
X121789385Y-107424600D01*
X121503671Y-107281742D01*
X120932242Y-107281742D01*
X120646528Y-107424600D01*
X121932242Y-109138885D02*
X121646528Y-109281742D01*
X120932242Y-109281742D01*
X120646528Y-109138885D01*
X120503671Y-108853171D01*
X120503671Y-108567457D01*
X120646528Y-108281742D01*
X120932242Y-108138885D01*
X121646528Y-108138885D01*
X121932242Y-107996028D01*
X123217957Y-109138885D02*
X123503671Y-109281742D01*
X124075100Y-109281742D01*
X124360814Y-109138885D01*
X124503671Y-108853171D01*
X124503671Y-108710314D01*
X124360814Y-108424600D01*
X124075100Y-108281742D01*
X123646528Y-108281742D01*
X123360814Y-108138885D01*
X123217957Y-107853171D01*
X123217957Y-107710314D01*
X123360814Y-107424600D01*
X123646528Y-107281742D01*
X124075100Y-107281742D01*
X124360814Y-107424600D01*
D11*
X52718400Y-75692000D02*
X52718400Y-74632000D01*
X52718400Y-74632000D02*
X53778400Y-74632000D01*
X54778400Y-74632000D02*
X56838400Y-74632000D01*
X56838400Y-76752000D02*
X56838400Y-74632000D01*
X54778400Y-76752000D02*
X56838400Y-76752000D01*
X54778400Y-76752000D02*
X54778400Y-74632000D01*
D12*
X51683161Y-77025333D02*
X51730780Y-76882476D01*
X51730780Y-76644380D01*
X51683161Y-76549142D01*
X51635542Y-76501523D01*
X51540304Y-76453904D01*
X51445066Y-76453904D01*
X51349828Y-76501523D01*
X51302209Y-76549142D01*
X51254590Y-76644380D01*
X51206971Y-76834857D01*
X51159352Y-76930095D01*
X51111733Y-76977714D01*
X51016495Y-77025333D01*
X50921257Y-77025333D01*
X50826019Y-76977714D01*
X50778400Y-76930095D01*
X50730780Y-76834857D01*
X50730780Y-76596761D01*
X50778400Y-76453904D01*
X50730780Y-76120571D02*
X51730780Y-75882476D01*
X51016495Y-75692000D01*
X51730780Y-75501523D01*
X50730780Y-75263428D01*
X51730780Y-74358666D02*
X51730780Y-74930095D01*
X51730780Y-74644380D02*
X50730780Y-74644380D01*
X50873638Y-74739619D01*
X50968876Y-74834857D01*
X51016495Y-74930095D01*
M02*
